M48
; DRILL file {KiCad (5.1.9)-1} date 02/03/21 14:20:57
; FORMAT={-:-/ absolute / inch / decimal}
; #@! TF.CreationDate,2021-02-03T14:20:57-06:00
; #@! TF.GenerationSoftware,Kicad,Pcbnew,(5.1.9)-1
; #@! TF.FileFunction,Plated,1,2,PTH
FMAT,2
INCH
T1C0.0157
T2C0.0335
T3C0.0354
T4C0.0394
%
G90
G05
T1
X4.75Y-3.55
X4.85Y-3.55
X5.05Y-3.55
X5.275Y-2.45
X5.275Y-2.775
X5.275Y-3.55
X5.375Y-2.45
X5.375Y-2.775
X5.375Y-3.55
X5.425Y-3.25
X5.575Y-2.45
X5.575Y-2.775
X5.575Y-3.2
X5.575Y-3.55
X5.675Y-2.45
X5.675Y-2.775
X6.1Y-2.45
X6.1Y-2.75
X6.2Y-2.45
X6.2Y-2.75
X6.4Y-2.45
X6.4Y-2.75
X6.5Y-2.45
X6.5Y-2.75
X7.42Y-2.13
X7.58Y-2.14
X7.975Y-3.55
X8.075Y-2.45
X8.075Y-3.55
X8.275Y-2.45
X8.275Y-3.55
X8.375Y-2.45
X8.375Y-3.55
X8.5Y-2.45
X8.5Y-3.55
X8.6Y-2.45
X8.6Y-3.55
X8.8Y-2.45
X8.8Y-3.55
X8.9Y-2.45
X9.05Y-2.45
X9.05Y-3.55
X9.15Y-2.45
X9.15Y-3.55
X9.35Y-2.425
X9.35Y-3.55
X9.425Y-3.9
X9.45Y-2.425
X9.475Y-3.9
X9.525Y-3.9
X9.55Y-2.425
X9.575Y-3.55
X9.575Y-3.9
X9.65Y-2.425
X9.675Y-3.55
X9.85Y-2.425
X9.875Y-3.55
X9.95Y-2.425
T2
X4.7483Y-2.6954
X4.7483Y-3.2954
X4.8483Y-2.6954
X4.8483Y-3.2954
X4.9483Y-2.6954
X4.9483Y-3.2954
X5.0483Y-2.6954
X5.0483Y-3.2954
X5.1483Y-2.6954
X5.1483Y-3.2954
X5.2784Y-2.6954
X5.2784Y-3.2954
X5.3784Y-2.6954
X5.3784Y-3.2954
X5.4784Y-2.6954
X5.4784Y-3.2954
X5.5784Y-2.6954
X5.5784Y-3.2954
X5.6784Y-2.6954
X5.6784Y-3.2954
X6.11Y-2.695
X6.11Y-3.295
X6.21Y-2.695
X6.21Y-3.295
X6.31Y-2.695
X6.31Y-3.295
X6.41Y-2.695
X6.41Y-3.295
X6.51Y-2.695
X6.51Y-3.295
X6.64Y-2.695
X6.64Y-3.295
X6.74Y-2.695
X6.74Y-3.295
X6.84Y-2.695
X6.84Y-3.295
X6.94Y-2.695
X6.94Y-3.295
X7.04Y-2.695
X7.04Y-3.295
X7.47Y-2.695
X7.47Y-3.295
X7.57Y-2.695
X7.57Y-3.295
X7.67Y-2.695
X7.67Y-3.295
X7.77Y-2.695
X7.77Y-3.295
X7.87Y-2.695
X7.87Y-3.295
X8.0Y-2.695
X8.0Y-3.295
X8.1Y-2.695
X8.1Y-3.295
X8.2Y-2.695
X8.2Y-3.295
X8.3Y-2.695
X8.3Y-3.295
X8.4Y-2.695
X8.4Y-3.295
X8.53Y-2.695
X8.53Y-3.295
X8.63Y-2.695
X8.63Y-3.295
X8.73Y-2.695
X8.73Y-3.295
X8.83Y-2.695
X8.83Y-3.295
X8.93Y-2.695
X8.93Y-3.295
X9.06Y-2.695
X9.06Y-3.295
X9.16Y-2.695
X9.16Y-3.295
X9.26Y-2.695
X9.26Y-3.295
X9.36Y-2.695
X9.36Y-3.295
X9.46Y-2.695
X9.46Y-3.295
X9.59Y-2.695
X9.59Y-3.295
X9.69Y-2.695
X9.69Y-3.295
X9.79Y-2.695
X9.79Y-3.295
X9.89Y-2.695
X9.89Y-3.295
X9.99Y-2.695
X9.99Y-3.295
T3
X5.85Y-2.85
X5.85Y-3.125
X5.95Y-2.85
X5.95Y-3.125
X7.2Y-2.85
X7.2Y-3.125
X7.3Y-2.85
X7.3Y-3.125
X10.225Y-2.1
X10.325Y-2.1
T4
X4.35Y-2.35
X4.35Y-2.45
X4.35Y-2.55
X4.35Y-2.65
X4.35Y-2.75
X4.35Y-2.85
X4.35Y-2.95
X4.35Y-3.05
X4.35Y-3.15
X4.35Y-3.25
X4.35Y-3.35
X4.35Y-3.45
X4.35Y-3.55
X4.35Y-3.65
X4.45Y-2.35
X4.45Y-2.45
X4.45Y-2.55
X4.45Y-2.65
X4.45Y-2.75
X4.45Y-2.85
X4.45Y-2.95
X4.45Y-3.05
X4.45Y-3.15
X4.45Y-3.25
X4.45Y-3.35
X4.45Y-3.45
X4.45Y-3.55
X4.45Y-3.65
X4.65Y-2.05
X4.65Y-2.15
X4.65Y-3.85
X4.65Y-3.95
X4.75Y-2.05
X4.75Y-2.15
X4.75Y-3.85
X4.75Y-3.95
X4.85Y-2.05
X4.85Y-2.15
X4.85Y-3.85
X4.85Y-3.95
X4.95Y-2.05
X4.95Y-2.15
X4.95Y-3.85
X4.95Y-3.95
X5.05Y-2.05
X5.05Y-2.15
X5.05Y-3.85
X5.05Y-3.95
X5.15Y-2.05
X5.15Y-2.15
X5.15Y-3.85
X5.15Y-3.95
X5.25Y-2.05
X5.25Y-2.15
X5.25Y-3.85
X5.25Y-3.95
X5.35Y-2.05
X5.35Y-2.15
X5.35Y-3.85
X5.35Y-3.95
X5.45Y-2.05
X5.45Y-2.15
X5.45Y-3.85
X5.45Y-3.95
X5.55Y-2.05
X5.55Y-2.15
X5.55Y-3.85
X5.55Y-3.95
X5.65Y-2.05
X5.65Y-2.15
X5.65Y-3.85
X5.65Y-3.95
X5.75Y-2.05
X5.75Y-2.15
X5.75Y-3.85
X5.75Y-3.95
X5.85Y-2.05
X5.85Y-2.15
X5.85Y-3.85
X5.85Y-3.95
X5.95Y-2.05
X5.95Y-2.15
X5.95Y-3.85
X5.95Y-3.95
X6.05Y-2.05
X6.05Y-2.15
X6.05Y-3.85
X6.05Y-3.95
X6.15Y-2.05
X6.15Y-2.15
X6.15Y-3.85
X6.15Y-3.95
X6.25Y-2.05
X6.25Y-2.15
X6.25Y-3.85
X6.25Y-3.95
X6.35Y-2.05
X6.35Y-2.15
X6.35Y-3.85
X6.35Y-3.95
X6.45Y-2.05
X6.45Y-2.15
X6.45Y-3.85
X6.45Y-3.95
X6.55Y-2.05
X6.55Y-2.15
X6.55Y-3.85
X6.55Y-3.95
X6.85Y-3.85
X6.85Y-3.95
X6.95Y-3.85
X6.95Y-3.95
X7.65Y-2.175
X7.75Y-2.175
X7.85Y-2.175
X7.95Y-2.175
X8.05Y-2.175
X10.1864Y-2.272
X10.1864Y-2.528
X10.1864Y-2.897
X10.1864Y-3.153
X10.1864Y-3.522
X10.1864Y-3.778
X10.3636Y-2.272
X10.3636Y-2.528
X10.3636Y-2.897
X10.3636Y-3.153
X10.3636Y-3.522
X10.3636Y-3.778
T0
M30
