%TF.GenerationSoftware,KiCad,Pcbnew,(5.1.9)-1*%
%TF.CreationDate,2021-02-03T14:21:07-06:00*%
%TF.ProjectId,GPS_Clock_Ver2,4750535f-436c-46f6-936b-5f566572322e,rev?*%
%TF.SameCoordinates,Original*%
%TF.FileFunction,Legend,Top*%
%TF.FilePolarity,Positive*%
%FSLAX46Y46*%
G04 Gerber Fmt 4.6, Leading zero omitted, Abs format (unit mm)*
G04 Created by KiCad (PCBNEW (5.1.9)-1) date 2021-02-03 14:21:07*
%MOMM*%
%LPD*%
G01*
G04 APERTURE LIST*
%ADD10C,0.150000*%
%ADD11C,0.200000*%
%ADD12C,0.120000*%
%ADD13C,0.254000*%
G04 APERTURE END LIST*
D10*
X213162619Y-93481000D02*
X213067380Y-93433380D01*
X212924523Y-93433380D01*
X212781666Y-93481000D01*
X212686428Y-93576238D01*
X212638809Y-93671476D01*
X212591190Y-93861952D01*
X212591190Y-94004809D01*
X212638809Y-94195285D01*
X212686428Y-94290523D01*
X212781666Y-94385761D01*
X212924523Y-94433380D01*
X213019761Y-94433380D01*
X213162619Y-94385761D01*
X213210238Y-94338142D01*
X213210238Y-94004809D01*
X213019761Y-94004809D01*
X213638809Y-94433380D02*
X213638809Y-93433380D01*
X214019761Y-93433380D01*
X214115000Y-93481000D01*
X214162619Y-93528619D01*
X214210238Y-93623857D01*
X214210238Y-93766714D01*
X214162619Y-93861952D01*
X214115000Y-93909571D01*
X214019761Y-93957190D01*
X213638809Y-93957190D01*
X214591190Y-94385761D02*
X214734047Y-94433380D01*
X214972142Y-94433380D01*
X215067380Y-94385761D01*
X215115000Y-94338142D01*
X215162619Y-94242904D01*
X215162619Y-94147666D01*
X215115000Y-94052428D01*
X215067380Y-94004809D01*
X214972142Y-93957190D01*
X214781666Y-93909571D01*
X214686428Y-93861952D01*
X214638809Y-93814333D01*
X214591190Y-93719095D01*
X214591190Y-93623857D01*
X214638809Y-93528619D01*
X214686428Y-93481000D01*
X214781666Y-93433380D01*
X215019761Y-93433380D01*
X215162619Y-93481000D01*
X216305476Y-94385761D02*
X216448333Y-94433380D01*
X216686428Y-94433380D01*
X216781666Y-94385761D01*
X216829285Y-94338142D01*
X216876904Y-94242904D01*
X216876904Y-94147666D01*
X216829285Y-94052428D01*
X216781666Y-94004809D01*
X216686428Y-93957190D01*
X216495952Y-93909571D01*
X216400714Y-93861952D01*
X216353095Y-93814333D01*
X216305476Y-93719095D01*
X216305476Y-93623857D01*
X216353095Y-93528619D01*
X216400714Y-93481000D01*
X216495952Y-93433380D01*
X216734047Y-93433380D01*
X216876904Y-93481000D01*
X217210238Y-93766714D02*
X217448333Y-94433380D01*
X217686428Y-93766714D02*
X217448333Y-94433380D01*
X217353095Y-94671476D01*
X217305476Y-94719095D01*
X217210238Y-94766714D01*
X218067380Y-93766714D02*
X218067380Y-94433380D01*
X218067380Y-93861952D02*
X218115000Y-93814333D01*
X218210238Y-93766714D01*
X218353095Y-93766714D01*
X218448333Y-93814333D01*
X218495952Y-93909571D01*
X218495952Y-94433380D01*
X219400714Y-94385761D02*
X219305476Y-94433380D01*
X219115000Y-94433380D01*
X219019761Y-94385761D01*
X218972142Y-94338142D01*
X218924523Y-94242904D01*
X218924523Y-93957190D01*
X218972142Y-93861952D01*
X219019761Y-93814333D01*
X219115000Y-93766714D01*
X219305476Y-93766714D01*
X219400714Y-93814333D01*
X219829285Y-94433380D02*
X219829285Y-93433380D01*
X220257857Y-94433380D02*
X220257857Y-93909571D01*
X220210238Y-93814333D01*
X220115000Y-93766714D01*
X219972142Y-93766714D01*
X219876904Y-93814333D01*
X219829285Y-93861952D01*
X220734047Y-94433380D02*
X220734047Y-93766714D01*
X220734047Y-93957190D02*
X220781666Y-93861952D01*
X220829285Y-93814333D01*
X220924523Y-93766714D01*
X221019761Y-93766714D01*
X221495952Y-94433380D02*
X221400714Y-94385761D01*
X221353095Y-94338142D01*
X221305476Y-94242904D01*
X221305476Y-93957190D01*
X221353095Y-93861952D01*
X221400714Y-93814333D01*
X221495952Y-93766714D01*
X221638809Y-93766714D01*
X221734047Y-93814333D01*
X221781666Y-93861952D01*
X221829285Y-93957190D01*
X221829285Y-94242904D01*
X221781666Y-94338142D01*
X221734047Y-94385761D01*
X221638809Y-94433380D01*
X221495952Y-94433380D01*
X222257857Y-93766714D02*
X222257857Y-94433380D01*
X222257857Y-93861952D02*
X222305476Y-93814333D01*
X222400714Y-93766714D01*
X222543571Y-93766714D01*
X222638809Y-93814333D01*
X222686428Y-93909571D01*
X222686428Y-94433380D01*
X223162619Y-94433380D02*
X223162619Y-93766714D01*
X223162619Y-93433380D02*
X223115000Y-93481000D01*
X223162619Y-93528619D01*
X223210238Y-93481000D01*
X223162619Y-93433380D01*
X223162619Y-93528619D01*
X223543571Y-93766714D02*
X224067380Y-93766714D01*
X223543571Y-94433380D01*
X224067380Y-94433380D01*
X224829285Y-94385761D02*
X224734047Y-94433380D01*
X224543571Y-94433380D01*
X224448333Y-94385761D01*
X224400714Y-94290523D01*
X224400714Y-93909571D01*
X224448333Y-93814333D01*
X224543571Y-93766714D01*
X224734047Y-93766714D01*
X224829285Y-93814333D01*
X224876904Y-93909571D01*
X224876904Y-94004809D01*
X224400714Y-94100047D01*
X225734047Y-94433380D02*
X225734047Y-93433380D01*
X225734047Y-94385761D02*
X225638809Y-94433380D01*
X225448333Y-94433380D01*
X225353095Y-94385761D01*
X225305476Y-94338142D01*
X225257857Y-94242904D01*
X225257857Y-93957190D01*
X225305476Y-93861952D01*
X225353095Y-93814333D01*
X225448333Y-93766714D01*
X225638809Y-93766714D01*
X225734047Y-93814333D01*
X227543571Y-94338142D02*
X227495952Y-94385761D01*
X227353095Y-94433380D01*
X227257857Y-94433380D01*
X227115000Y-94385761D01*
X227019761Y-94290523D01*
X226972142Y-94195285D01*
X226924523Y-94004809D01*
X226924523Y-93861952D01*
X226972142Y-93671476D01*
X227019761Y-93576238D01*
X227115000Y-93481000D01*
X227257857Y-93433380D01*
X227353095Y-93433380D01*
X227495952Y-93481000D01*
X227543571Y-93528619D01*
X228115000Y-94433380D02*
X228019761Y-94385761D01*
X227972142Y-94290523D01*
X227972142Y-93433380D01*
X228638809Y-94433380D02*
X228543571Y-94385761D01*
X228495952Y-94338142D01*
X228448333Y-94242904D01*
X228448333Y-93957190D01*
X228495952Y-93861952D01*
X228543571Y-93814333D01*
X228638809Y-93766714D01*
X228781666Y-93766714D01*
X228876904Y-93814333D01*
X228924523Y-93861952D01*
X228972142Y-93957190D01*
X228972142Y-94242904D01*
X228924523Y-94338142D01*
X228876904Y-94385761D01*
X228781666Y-94433380D01*
X228638809Y-94433380D01*
X229829285Y-94385761D02*
X229734047Y-94433380D01*
X229543571Y-94433380D01*
X229448333Y-94385761D01*
X229400714Y-94338142D01*
X229353095Y-94242904D01*
X229353095Y-93957190D01*
X229400714Y-93861952D01*
X229448333Y-93814333D01*
X229543571Y-93766714D01*
X229734047Y-93766714D01*
X229829285Y-93814333D01*
X230257857Y-94433380D02*
X230257857Y-93433380D01*
X230353095Y-94052428D02*
X230638809Y-94433380D01*
X230638809Y-93766714D02*
X230257857Y-94147666D01*
X214353095Y-96083380D02*
X214019761Y-95607190D01*
X213781666Y-96083380D02*
X213781666Y-95083380D01*
X214162619Y-95083380D01*
X214257857Y-95131000D01*
X214305476Y-95178619D01*
X214353095Y-95273857D01*
X214353095Y-95416714D01*
X214305476Y-95511952D01*
X214257857Y-95559571D01*
X214162619Y-95607190D01*
X213781666Y-95607190D01*
X215162619Y-96035761D02*
X215067380Y-96083380D01*
X214876904Y-96083380D01*
X214781666Y-96035761D01*
X214734047Y-95940523D01*
X214734047Y-95559571D01*
X214781666Y-95464333D01*
X214876904Y-95416714D01*
X215067380Y-95416714D01*
X215162619Y-95464333D01*
X215210238Y-95559571D01*
X215210238Y-95654809D01*
X214734047Y-95750047D01*
X215543571Y-95416714D02*
X215781666Y-96083380D01*
X216019761Y-95416714D01*
X216400714Y-95988142D02*
X216448333Y-96035761D01*
X216400714Y-96083380D01*
X216353095Y-96035761D01*
X216400714Y-95988142D01*
X216400714Y-96083380D01*
X217591190Y-95178619D02*
X217638809Y-95131000D01*
X217734047Y-95083380D01*
X217972142Y-95083380D01*
X218067380Y-95131000D01*
X218115000Y-95178619D01*
X218162619Y-95273857D01*
X218162619Y-95369095D01*
X218115000Y-95511952D01*
X217543571Y-96083380D01*
X218162619Y-96083380D01*
X218591190Y-95988142D02*
X218638809Y-96035761D01*
X218591190Y-96083380D01*
X218543571Y-96035761D01*
X218591190Y-95988142D01*
X218591190Y-96083380D01*
X219257857Y-95083380D02*
X219353095Y-95083380D01*
X219448333Y-95131000D01*
X219495952Y-95178619D01*
X219543571Y-95273857D01*
X219591190Y-95464333D01*
X219591190Y-95702428D01*
X219543571Y-95892904D01*
X219495952Y-95988142D01*
X219448333Y-96035761D01*
X219353095Y-96083380D01*
X219257857Y-96083380D01*
X219162619Y-96035761D01*
X219115000Y-95988142D01*
X219067380Y-95892904D01*
X219019761Y-95702428D01*
X219019761Y-95464333D01*
X219067380Y-95273857D01*
X219115000Y-95178619D01*
X219162619Y-95131000D01*
X219257857Y-95083380D01*
X221067380Y-96464333D02*
X221019761Y-96416714D01*
X220924523Y-96273857D01*
X220876904Y-96178619D01*
X220829285Y-96035761D01*
X220781666Y-95797666D01*
X220781666Y-95607190D01*
X220829285Y-95369095D01*
X220876904Y-95226238D01*
X220924523Y-95131000D01*
X221019761Y-94988142D01*
X221067380Y-94940523D01*
X221400714Y-95178619D02*
X221448333Y-95131000D01*
X221543571Y-95083380D01*
X221781666Y-95083380D01*
X221876904Y-95131000D01*
X221924523Y-95178619D01*
X221972142Y-95273857D01*
X221972142Y-95369095D01*
X221924523Y-95511952D01*
X221353095Y-96083380D01*
X221972142Y-96083380D01*
X223115000Y-95035761D02*
X222257857Y-96321476D01*
X223400714Y-95178619D02*
X223448333Y-95131000D01*
X223543571Y-95083380D01*
X223781666Y-95083380D01*
X223876904Y-95131000D01*
X223924523Y-95178619D01*
X223972142Y-95273857D01*
X223972142Y-95369095D01*
X223924523Y-95511952D01*
X223353095Y-96083380D01*
X223972142Y-96083380D01*
X225115000Y-95035761D02*
X224257857Y-96321476D01*
X225400714Y-95178619D02*
X225448333Y-95131000D01*
X225543571Y-95083380D01*
X225781666Y-95083380D01*
X225876904Y-95131000D01*
X225924523Y-95178619D01*
X225972142Y-95273857D01*
X225972142Y-95369095D01*
X225924523Y-95511952D01*
X225353095Y-96083380D01*
X225972142Y-96083380D01*
X226591190Y-95083380D02*
X226686428Y-95083380D01*
X226781666Y-95131000D01*
X226829285Y-95178619D01*
X226876904Y-95273857D01*
X226924523Y-95464333D01*
X226924523Y-95702428D01*
X226876904Y-95892904D01*
X226829285Y-95988142D01*
X226781666Y-96035761D01*
X226686428Y-96083380D01*
X226591190Y-96083380D01*
X226495952Y-96035761D01*
X226448333Y-95988142D01*
X226400714Y-95892904D01*
X226353095Y-95702428D01*
X226353095Y-95464333D01*
X226400714Y-95273857D01*
X226448333Y-95178619D01*
X226495952Y-95131000D01*
X226591190Y-95083380D01*
X227305476Y-95178619D02*
X227353095Y-95131000D01*
X227448333Y-95083380D01*
X227686428Y-95083380D01*
X227781666Y-95131000D01*
X227829285Y-95178619D01*
X227876904Y-95273857D01*
X227876904Y-95369095D01*
X227829285Y-95511952D01*
X227257857Y-96083380D01*
X227876904Y-96083380D01*
X228829285Y-96083380D02*
X228257857Y-96083380D01*
X228543571Y-96083380D02*
X228543571Y-95083380D01*
X228448333Y-95226238D01*
X228353095Y-95321476D01*
X228257857Y-95369095D01*
X229162619Y-96464333D02*
X229210238Y-96416714D01*
X229305476Y-96273857D01*
X229353095Y-96178619D01*
X229400714Y-96035761D01*
X229448333Y-95797666D01*
X229448333Y-95607190D01*
X229400714Y-95369095D01*
X229353095Y-95226238D01*
X229305476Y-95131000D01*
X229210238Y-94988142D01*
X229162619Y-94940523D01*
X210353095Y-97733380D02*
X210353095Y-96733380D01*
X210591190Y-96733380D01*
X210734047Y-96781000D01*
X210829285Y-96876238D01*
X210876904Y-96971476D01*
X210924523Y-97161952D01*
X210924523Y-97304809D01*
X210876904Y-97495285D01*
X210829285Y-97590523D01*
X210734047Y-97685761D01*
X210591190Y-97733380D01*
X210353095Y-97733380D01*
X211734047Y-97685761D02*
X211638809Y-97733380D01*
X211448333Y-97733380D01*
X211353095Y-97685761D01*
X211305476Y-97590523D01*
X211305476Y-97209571D01*
X211353095Y-97114333D01*
X211448333Y-97066714D01*
X211638809Y-97066714D01*
X211734047Y-97114333D01*
X211781666Y-97209571D01*
X211781666Y-97304809D01*
X211305476Y-97400047D01*
X212162619Y-97685761D02*
X212257857Y-97733380D01*
X212448333Y-97733380D01*
X212543571Y-97685761D01*
X212591190Y-97590523D01*
X212591190Y-97542904D01*
X212543571Y-97447666D01*
X212448333Y-97400047D01*
X212305476Y-97400047D01*
X212210238Y-97352428D01*
X212162619Y-97257190D01*
X212162619Y-97209571D01*
X212210238Y-97114333D01*
X212305476Y-97066714D01*
X212448333Y-97066714D01*
X212543571Y-97114333D01*
X213019761Y-97733380D02*
X213019761Y-97066714D01*
X213019761Y-96733380D02*
X212972142Y-96781000D01*
X213019761Y-96828619D01*
X213067380Y-96781000D01*
X213019761Y-96733380D01*
X213019761Y-96828619D01*
X213924523Y-97066714D02*
X213924523Y-97876238D01*
X213876904Y-97971476D01*
X213829285Y-98019095D01*
X213734047Y-98066714D01*
X213591190Y-98066714D01*
X213495952Y-98019095D01*
X213924523Y-97685761D02*
X213829285Y-97733380D01*
X213638809Y-97733380D01*
X213543571Y-97685761D01*
X213495952Y-97638142D01*
X213448333Y-97542904D01*
X213448333Y-97257190D01*
X213495952Y-97161952D01*
X213543571Y-97114333D01*
X213638809Y-97066714D01*
X213829285Y-97066714D01*
X213924523Y-97114333D01*
X214400714Y-97066714D02*
X214400714Y-97733380D01*
X214400714Y-97161952D02*
X214448333Y-97114333D01*
X214543571Y-97066714D01*
X214686428Y-97066714D01*
X214781666Y-97114333D01*
X214829285Y-97209571D01*
X214829285Y-97733380D01*
X215686428Y-97685761D02*
X215591190Y-97733380D01*
X215400714Y-97733380D01*
X215305476Y-97685761D01*
X215257857Y-97590523D01*
X215257857Y-97209571D01*
X215305476Y-97114333D01*
X215400714Y-97066714D01*
X215591190Y-97066714D01*
X215686428Y-97114333D01*
X215734047Y-97209571D01*
X215734047Y-97304809D01*
X215257857Y-97400047D01*
X216162619Y-97733380D02*
X216162619Y-97066714D01*
X216162619Y-97257190D02*
X216210238Y-97161952D01*
X216257857Y-97114333D01*
X216353095Y-97066714D01*
X216448333Y-97066714D01*
X216781666Y-97638142D02*
X216829285Y-97685761D01*
X216781666Y-97733380D01*
X216734047Y-97685761D01*
X216781666Y-97638142D01*
X216781666Y-97733380D01*
X216781666Y-97114333D02*
X216829285Y-97161952D01*
X216781666Y-97209571D01*
X216734047Y-97161952D01*
X216781666Y-97114333D01*
X216781666Y-97209571D01*
X218019761Y-97733380D02*
X218019761Y-96733380D01*
X218353095Y-97447666D01*
X218686428Y-96733380D01*
X218686428Y-97733380D01*
X219591190Y-97733380D02*
X219591190Y-97209571D01*
X219543571Y-97114333D01*
X219448333Y-97066714D01*
X219257857Y-97066714D01*
X219162619Y-97114333D01*
X219591190Y-97685761D02*
X219495952Y-97733380D01*
X219257857Y-97733380D01*
X219162619Y-97685761D01*
X219115000Y-97590523D01*
X219115000Y-97495285D01*
X219162619Y-97400047D01*
X219257857Y-97352428D01*
X219495952Y-97352428D01*
X219591190Y-97304809D01*
X220067380Y-97733380D02*
X220067380Y-97066714D01*
X220067380Y-97257190D02*
X220115000Y-97161952D01*
X220162619Y-97114333D01*
X220257857Y-97066714D01*
X220353095Y-97066714D01*
X221115000Y-97685761D02*
X221019761Y-97733380D01*
X220829285Y-97733380D01*
X220734047Y-97685761D01*
X220686428Y-97638142D01*
X220638809Y-97542904D01*
X220638809Y-97257190D01*
X220686428Y-97161952D01*
X220734047Y-97114333D01*
X220829285Y-97066714D01*
X221019761Y-97066714D01*
X221115000Y-97114333D01*
X221972142Y-97066714D02*
X221972142Y-97733380D01*
X221543571Y-97066714D02*
X221543571Y-97590523D01*
X221591190Y-97685761D01*
X221686428Y-97733380D01*
X221829285Y-97733380D01*
X221924523Y-97685761D01*
X221972142Y-97638142D01*
X222400714Y-97685761D02*
X222495952Y-97733380D01*
X222686428Y-97733380D01*
X222781666Y-97685761D01*
X222829285Y-97590523D01*
X222829285Y-97542904D01*
X222781666Y-97447666D01*
X222686428Y-97400047D01*
X222543571Y-97400047D01*
X222448333Y-97352428D01*
X222400714Y-97257190D01*
X222400714Y-97209571D01*
X222448333Y-97114333D01*
X222543571Y-97066714D01*
X222686428Y-97066714D01*
X222781666Y-97114333D01*
X224019761Y-97733380D02*
X224019761Y-96733380D01*
X224257857Y-96733380D01*
X224400714Y-96781000D01*
X224495952Y-96876238D01*
X224543571Y-96971476D01*
X224591190Y-97161952D01*
X224591190Y-97304809D01*
X224543571Y-97495285D01*
X224495952Y-97590523D01*
X224400714Y-97685761D01*
X224257857Y-97733380D01*
X224019761Y-97733380D01*
X225400714Y-97685761D02*
X225305476Y-97733380D01*
X225115000Y-97733380D01*
X225019761Y-97685761D01*
X224972142Y-97590523D01*
X224972142Y-97209571D01*
X225019761Y-97114333D01*
X225115000Y-97066714D01*
X225305476Y-97066714D01*
X225400714Y-97114333D01*
X225448333Y-97209571D01*
X225448333Y-97304809D01*
X224972142Y-97400047D01*
X227115000Y-97733380D02*
X226638809Y-97733380D01*
X226638809Y-96733380D01*
X227876904Y-97733380D02*
X227876904Y-97209571D01*
X227829285Y-97114333D01*
X227734047Y-97066714D01*
X227543571Y-97066714D01*
X227448333Y-97114333D01*
X227876904Y-97685761D02*
X227781666Y-97733380D01*
X227543571Y-97733380D01*
X227448333Y-97685761D01*
X227400714Y-97590523D01*
X227400714Y-97495285D01*
X227448333Y-97400047D01*
X227543571Y-97352428D01*
X227781666Y-97352428D01*
X227876904Y-97304809D01*
X229638809Y-96781000D02*
X229543571Y-96733380D01*
X229400714Y-96733380D01*
X229257857Y-96781000D01*
X229162619Y-96876238D01*
X229115000Y-96971476D01*
X229067380Y-97161952D01*
X229067380Y-97304809D01*
X229115000Y-97495285D01*
X229162619Y-97590523D01*
X229257857Y-97685761D01*
X229400714Y-97733380D01*
X229495952Y-97733380D01*
X229638809Y-97685761D01*
X229686428Y-97638142D01*
X229686428Y-97304809D01*
X229495952Y-97304809D01*
X230543571Y-97733380D02*
X230543571Y-97209571D01*
X230495952Y-97114333D01*
X230400714Y-97066714D01*
X230210238Y-97066714D01*
X230115000Y-97114333D01*
X230543571Y-97685761D02*
X230448333Y-97733380D01*
X230210238Y-97733380D01*
X230115000Y-97685761D01*
X230067380Y-97590523D01*
X230067380Y-97495285D01*
X230115000Y-97400047D01*
X230210238Y-97352428D01*
X230448333Y-97352428D01*
X230543571Y-97304809D01*
X231019761Y-97733380D02*
X231019761Y-97066714D01*
X231019761Y-97257190D02*
X231067380Y-97161952D01*
X231115000Y-97114333D01*
X231210238Y-97066714D01*
X231305476Y-97066714D01*
X231543571Y-97066714D02*
X232067380Y-97066714D01*
X231543571Y-97733380D01*
X232067380Y-97733380D01*
X232876904Y-97733380D02*
X232876904Y-97209571D01*
X232829285Y-97114333D01*
X232734047Y-97066714D01*
X232543571Y-97066714D01*
X232448333Y-97114333D01*
X232876904Y-97685761D02*
X232781666Y-97733380D01*
X232543571Y-97733380D01*
X232448333Y-97685761D01*
X232400714Y-97590523D01*
X232400714Y-97495285D01*
X232448333Y-97400047D01*
X232543571Y-97352428D01*
X232781666Y-97352428D01*
X232876904Y-97304809D01*
X251849285Y-50935000D02*
X251754047Y-50887380D01*
X251611190Y-50887380D01*
X251468333Y-50935000D01*
X251373095Y-51030238D01*
X251325476Y-51125476D01*
X251277857Y-51315952D01*
X251277857Y-51458809D01*
X251325476Y-51649285D01*
X251373095Y-51744523D01*
X251468333Y-51839761D01*
X251611190Y-51887380D01*
X251706428Y-51887380D01*
X251849285Y-51839761D01*
X251896904Y-51792142D01*
X251896904Y-51458809D01*
X251706428Y-51458809D01*
X252325476Y-51887380D02*
X252325476Y-50887380D01*
X252706428Y-50887380D01*
X252801666Y-50935000D01*
X252849285Y-50982619D01*
X252896904Y-51077857D01*
X252896904Y-51220714D01*
X252849285Y-51315952D01*
X252801666Y-51363571D01*
X252706428Y-51411190D01*
X252325476Y-51411190D01*
X253277857Y-51839761D02*
X253420714Y-51887380D01*
X253658809Y-51887380D01*
X253754047Y-51839761D01*
X253801666Y-51792142D01*
X253849285Y-51696904D01*
X253849285Y-51601666D01*
X253801666Y-51506428D01*
X253754047Y-51458809D01*
X253658809Y-51411190D01*
X253468333Y-51363571D01*
X253373095Y-51315952D01*
X253325476Y-51268333D01*
X253277857Y-51173095D01*
X253277857Y-51077857D01*
X253325476Y-50982619D01*
X253373095Y-50935000D01*
X253468333Y-50887380D01*
X253706428Y-50887380D01*
X253849285Y-50935000D01*
X255515952Y-51887380D02*
X255039761Y-51887380D01*
X255039761Y-50887380D01*
X255992142Y-51887380D02*
X255896904Y-51839761D01*
X255849285Y-51792142D01*
X255801666Y-51696904D01*
X255801666Y-51411190D01*
X255849285Y-51315952D01*
X255896904Y-51268333D01*
X255992142Y-51220714D01*
X256135000Y-51220714D01*
X256230238Y-51268333D01*
X256277857Y-51315952D01*
X256325476Y-51411190D01*
X256325476Y-51696904D01*
X256277857Y-51792142D01*
X256230238Y-51839761D01*
X256135000Y-51887380D01*
X255992142Y-51887380D01*
X257182619Y-51839761D02*
X257087380Y-51887380D01*
X256896904Y-51887380D01*
X256801666Y-51839761D01*
X256754047Y-51792142D01*
X256706428Y-51696904D01*
X256706428Y-51411190D01*
X256754047Y-51315952D01*
X256801666Y-51268333D01*
X256896904Y-51220714D01*
X257087380Y-51220714D01*
X257182619Y-51268333D01*
X257611190Y-51887380D02*
X257611190Y-50887380D01*
X257706428Y-51506428D02*
X257992142Y-51887380D01*
X257992142Y-51220714D02*
X257611190Y-51601666D01*
X264628380Y-62531428D02*
X264628380Y-62340952D01*
X264676000Y-62245714D01*
X264771238Y-62150476D01*
X264961714Y-62102857D01*
X265295047Y-62102857D01*
X265485523Y-62150476D01*
X265580761Y-62245714D01*
X265628380Y-62340952D01*
X265628380Y-62531428D01*
X265580761Y-62626666D01*
X265485523Y-62721904D01*
X265295047Y-62769523D01*
X264961714Y-62769523D01*
X264771238Y-62721904D01*
X264676000Y-62626666D01*
X264628380Y-62531428D01*
X264961714Y-61817142D02*
X264961714Y-61436190D01*
X264628380Y-61674285D02*
X265485523Y-61674285D01*
X265580761Y-61626666D01*
X265628380Y-61531428D01*
X265628380Y-61436190D01*
X265628380Y-61102857D02*
X264628380Y-61102857D01*
X265628380Y-60674285D02*
X265104571Y-60674285D01*
X265009333Y-60721904D01*
X264961714Y-60817142D01*
X264961714Y-60960000D01*
X265009333Y-61055238D01*
X265056952Y-61102857D01*
X265580761Y-59817142D02*
X265628380Y-59912380D01*
X265628380Y-60102857D01*
X265580761Y-60198095D01*
X265485523Y-60245714D01*
X265104571Y-60245714D01*
X265009333Y-60198095D01*
X264961714Y-60102857D01*
X264961714Y-59912380D01*
X265009333Y-59817142D01*
X265104571Y-59769523D01*
X265199809Y-59769523D01*
X265295047Y-60245714D01*
X265628380Y-59340952D02*
X264961714Y-59340952D01*
X265152190Y-59340952D02*
X265056952Y-59293333D01*
X265009333Y-59245714D01*
X264961714Y-59150476D01*
X264961714Y-59055238D01*
X265104571Y-80319142D02*
X265152190Y-80176285D01*
X265199809Y-80128666D01*
X265295047Y-80081047D01*
X265437904Y-80081047D01*
X265533142Y-80128666D01*
X265580761Y-80176285D01*
X265628380Y-80271523D01*
X265628380Y-80652476D01*
X264628380Y-80652476D01*
X264628380Y-80319142D01*
X264676000Y-80223904D01*
X264723619Y-80176285D01*
X264818857Y-80128666D01*
X264914095Y-80128666D01*
X265009333Y-80176285D01*
X265056952Y-80223904D01*
X265104571Y-80319142D01*
X265104571Y-80652476D01*
X265628380Y-79652476D02*
X264961714Y-79652476D01*
X265152190Y-79652476D02*
X265056952Y-79604857D01*
X265009333Y-79557238D01*
X264961714Y-79462000D01*
X264961714Y-79366761D01*
X265628380Y-79033428D02*
X264961714Y-79033428D01*
X264628380Y-79033428D02*
X264676000Y-79081047D01*
X264723619Y-79033428D01*
X264676000Y-78985809D01*
X264628380Y-79033428D01*
X264723619Y-79033428D01*
X264961714Y-78128666D02*
X265771238Y-78128666D01*
X265866476Y-78176285D01*
X265914095Y-78223904D01*
X265961714Y-78319142D01*
X265961714Y-78462000D01*
X265914095Y-78557238D01*
X265580761Y-78128666D02*
X265628380Y-78223904D01*
X265628380Y-78414380D01*
X265580761Y-78509619D01*
X265533142Y-78557238D01*
X265437904Y-78604857D01*
X265152190Y-78604857D01*
X265056952Y-78557238D01*
X265009333Y-78509619D01*
X264961714Y-78414380D01*
X264961714Y-78223904D01*
X265009333Y-78128666D01*
X265628380Y-77652476D02*
X264628380Y-77652476D01*
X265628380Y-77223904D02*
X265104571Y-77223904D01*
X265009333Y-77271523D01*
X264961714Y-77366761D01*
X264961714Y-77509619D01*
X265009333Y-77604857D01*
X265056952Y-77652476D01*
X264961714Y-76890571D02*
X264961714Y-76509619D01*
X264628380Y-76747714D02*
X265485523Y-76747714D01*
X265580761Y-76700095D01*
X265628380Y-76604857D01*
X265628380Y-76509619D01*
X264961714Y-76176285D02*
X265628380Y-76176285D01*
X265056952Y-76176285D02*
X265009333Y-76128666D01*
X264961714Y-76033428D01*
X264961714Y-75890571D01*
X265009333Y-75795333D01*
X265104571Y-75747714D01*
X265628380Y-75747714D01*
X265580761Y-74890571D02*
X265628380Y-74985809D01*
X265628380Y-75176285D01*
X265580761Y-75271523D01*
X265485523Y-75319142D01*
X265104571Y-75319142D01*
X265009333Y-75271523D01*
X264961714Y-75176285D01*
X264961714Y-74985809D01*
X265009333Y-74890571D01*
X265104571Y-74842952D01*
X265199809Y-74842952D01*
X265295047Y-75319142D01*
X265580761Y-74462000D02*
X265628380Y-74366761D01*
X265628380Y-74176285D01*
X265580761Y-74081047D01*
X265485523Y-74033428D01*
X265437904Y-74033428D01*
X265342666Y-74081047D01*
X265295047Y-74176285D01*
X265295047Y-74319142D01*
X265247428Y-74414380D01*
X265152190Y-74462000D01*
X265104571Y-74462000D01*
X265009333Y-74414380D01*
X264961714Y-74319142D01*
X264961714Y-74176285D01*
X265009333Y-74081047D01*
X265580761Y-73652476D02*
X265628380Y-73557238D01*
X265628380Y-73366761D01*
X265580761Y-73271523D01*
X265485523Y-73223904D01*
X265437904Y-73223904D01*
X265342666Y-73271523D01*
X265295047Y-73366761D01*
X265295047Y-73509619D01*
X265247428Y-73604857D01*
X265152190Y-73652476D01*
X265104571Y-73652476D01*
X265009333Y-73604857D01*
X264961714Y-73509619D01*
X264961714Y-73366761D01*
X265009333Y-73271523D01*
X264628380Y-94329047D02*
X264628380Y-93757619D01*
X265628380Y-94043333D02*
X264628380Y-94043333D01*
X265628380Y-93424285D02*
X264961714Y-93424285D01*
X264628380Y-93424285D02*
X264676000Y-93471904D01*
X264723619Y-93424285D01*
X264676000Y-93376666D01*
X264628380Y-93424285D01*
X264723619Y-93424285D01*
X265628380Y-92948095D02*
X264961714Y-92948095D01*
X265056952Y-92948095D02*
X265009333Y-92900476D01*
X264961714Y-92805238D01*
X264961714Y-92662380D01*
X265009333Y-92567142D01*
X265104571Y-92519523D01*
X265628380Y-92519523D01*
X265104571Y-92519523D02*
X265009333Y-92471904D01*
X264961714Y-92376666D01*
X264961714Y-92233809D01*
X265009333Y-92138571D01*
X265104571Y-92090952D01*
X265628380Y-92090952D01*
X265580761Y-91233809D02*
X265628380Y-91329047D01*
X265628380Y-91519523D01*
X265580761Y-91614761D01*
X265485523Y-91662380D01*
X265104571Y-91662380D01*
X265009333Y-91614761D01*
X264961714Y-91519523D01*
X264961714Y-91329047D01*
X265009333Y-91233809D01*
X265104571Y-91186190D01*
X265199809Y-91186190D01*
X265295047Y-91662380D01*
D11*
%TO.C,DS1*%
X131961001Y-84708001D02*
X131961001Y-67458001D01*
X119411001Y-67458001D02*
X119411001Y-84708001D01*
X119411001Y-84708001D02*
X120606001Y-84708001D01*
%TO.C,DS2*%
X132876001Y-84708001D02*
X134071001Y-84708001D01*
X132876001Y-67458001D02*
X132876001Y-84708001D01*
X145426001Y-84708001D02*
X145426001Y-67458001D01*
%TO.C,DS3*%
X166549000Y-84698000D02*
X166549000Y-67448000D01*
X153999000Y-67448000D02*
X153999000Y-84698000D01*
X153999000Y-84698000D02*
X155194000Y-84698000D01*
%TO.C,DS4*%
X167461000Y-84698000D02*
X168656000Y-84698000D01*
X167461000Y-67448000D02*
X167461000Y-84698000D01*
X180011000Y-84698000D02*
X180011000Y-67448000D01*
%TO.C,DS5*%
X201093000Y-84698000D02*
X201093000Y-67448000D01*
X188543000Y-67448000D02*
X188543000Y-84698000D01*
X188543000Y-84698000D02*
X189738000Y-84698000D01*
%TO.C,DS6*%
X202005000Y-84698000D02*
X203200000Y-84698000D01*
X202005000Y-67448000D02*
X202005000Y-84698000D01*
X214555000Y-84698000D02*
X214555000Y-67448000D01*
%TO.C,DS7*%
X228017000Y-84698000D02*
X228017000Y-67448000D01*
X215467000Y-67448000D02*
X215467000Y-84698000D01*
X215467000Y-84698000D02*
X216662000Y-84698000D01*
%TO.C,DS8*%
X228929000Y-84698000D02*
X230124000Y-84698000D01*
X228929000Y-67448000D02*
X228929000Y-84698000D01*
X241479000Y-84698000D02*
X241479000Y-67448000D01*
%TO.C,DS9*%
X254941000Y-84698000D02*
X254941000Y-67448000D01*
X242391000Y-67448000D02*
X242391000Y-84698000D01*
X242391000Y-84698000D02*
X243586000Y-84698000D01*
D12*
%TO.C,D1*%
X148300000Y-73470000D02*
X148300000Y-73626000D01*
X148300000Y-71154000D02*
X148300000Y-71310000D01*
X150901130Y-73469837D02*
G75*
G02*
X148819039Y-73470000I-1041130J1079837D01*
G01*
X150901130Y-71310163D02*
G75*
G03*
X148819039Y-71310000I-1041130J-1079837D01*
G01*
X151532335Y-73468608D02*
G75*
G02*
X148300000Y-73625516I-1672335J1078608D01*
G01*
X151532335Y-71311392D02*
G75*
G03*
X148300000Y-71154484I-1672335J-1078608D01*
G01*
%TO.C,D2*%
X148300000Y-78139000D02*
X148300000Y-78295000D01*
X148300000Y-80455000D02*
X148300000Y-80611000D01*
X151532335Y-78296392D02*
G75*
G03*
X148300000Y-78139484I-1672335J-1078608D01*
G01*
X151532335Y-80453608D02*
G75*
G02*
X148300000Y-80610516I-1672335J1078608D01*
G01*
X150901130Y-78295163D02*
G75*
G03*
X148819039Y-78295000I-1041130J-1079837D01*
G01*
X150901130Y-80454837D02*
G75*
G02*
X148819039Y-80455000I-1041130J1079837D01*
G01*
%TO.C,D3*%
X182590000Y-73470000D02*
X182590000Y-73626000D01*
X182590000Y-71154000D02*
X182590000Y-71310000D01*
X185191130Y-73469837D02*
G75*
G02*
X183109039Y-73470000I-1041130J1079837D01*
G01*
X185191130Y-71310163D02*
G75*
G03*
X183109039Y-71310000I-1041130J-1079837D01*
G01*
X185822335Y-73468608D02*
G75*
G02*
X182590000Y-73625516I-1672335J1078608D01*
G01*
X185822335Y-71311392D02*
G75*
G03*
X182590000Y-71154484I-1672335J-1078608D01*
G01*
%TO.C,D4*%
X182590000Y-78139000D02*
X182590000Y-78295000D01*
X182590000Y-80455000D02*
X182590000Y-80611000D01*
X185822335Y-78296392D02*
G75*
G03*
X182590000Y-78139484I-1672335J-1078608D01*
G01*
X185822335Y-80453608D02*
G75*
G02*
X182590000Y-80610516I-1672335J1078608D01*
G01*
X185191130Y-78295163D02*
G75*
G03*
X183109039Y-78295000I-1041130J-1079837D01*
G01*
X185191130Y-80454837D02*
G75*
G02*
X183109039Y-80455000I-1041130J1079837D01*
G01*
%TO.C,R1*%
X119915000Y-64177936D02*
X119915000Y-64632064D01*
X121385000Y-64177936D02*
X121385000Y-64632064D01*
%TO.C,R2*%
X121385000Y-87767936D02*
X121385000Y-88222064D01*
X119915000Y-87767936D02*
X119915000Y-88222064D01*
%TO.C,R3*%
X123925000Y-64177936D02*
X123925000Y-64632064D01*
X122455000Y-64177936D02*
X122455000Y-64632064D01*
%TO.C,R4*%
X122455000Y-87767936D02*
X122455000Y-88222064D01*
X123925000Y-87767936D02*
X123925000Y-88222064D01*
%TO.C,R5*%
X127535000Y-64177936D02*
X127535000Y-64632064D01*
X129005000Y-64177936D02*
X129005000Y-64632064D01*
%TO.C,R6*%
X129005000Y-87767936D02*
X129005000Y-88222064D01*
X127535000Y-87767936D02*
X127535000Y-88222064D01*
%TO.C,R7*%
X131545000Y-64177936D02*
X131545000Y-64632064D01*
X130075000Y-64177936D02*
X130075000Y-64632064D01*
%TO.C,R8*%
X133250000Y-64177936D02*
X133250000Y-64632064D01*
X134720000Y-64177936D02*
X134720000Y-64632064D01*
%TO.C,R9*%
X133250000Y-87767936D02*
X133250000Y-88222064D01*
X134720000Y-87767936D02*
X134720000Y-88222064D01*
%TO.C,R10*%
X137260000Y-64177936D02*
X137260000Y-64632064D01*
X135790000Y-64177936D02*
X135790000Y-64632064D01*
%TO.C,R11*%
X137260000Y-87767936D02*
X137260000Y-88222064D01*
X135790000Y-87767936D02*
X135790000Y-88222064D01*
%TO.C,R12*%
X142340000Y-64177936D02*
X142340000Y-64632064D01*
X140870000Y-64177936D02*
X140870000Y-64632064D01*
%TO.C,R13*%
X140870000Y-87767936D02*
X140870000Y-88222064D01*
X142340000Y-87767936D02*
X142340000Y-88222064D01*
%TO.C,R14*%
X143410000Y-64177936D02*
X143410000Y-64632064D01*
X144880000Y-64177936D02*
X144880000Y-64632064D01*
%TO.C,R15*%
X151865000Y-66717936D02*
X151865000Y-67172064D01*
X150395000Y-66717936D02*
X150395000Y-67172064D01*
%TO.C,R16*%
X151865000Y-84952064D02*
X151865000Y-84497936D01*
X150395000Y-84952064D02*
X150395000Y-84497936D01*
%TO.C,R17*%
X154205000Y-64177936D02*
X154205000Y-64632064D01*
X155675000Y-64177936D02*
X155675000Y-64632064D01*
%TO.C,R18*%
X155675000Y-87767936D02*
X155675000Y-88222064D01*
X154205000Y-87767936D02*
X154205000Y-88222064D01*
%TO.C,R19*%
X158215000Y-64177936D02*
X158215000Y-64632064D01*
X156745000Y-64177936D02*
X156745000Y-64632064D01*
%TO.C,R20*%
X156745000Y-87767936D02*
X156745000Y-88222064D01*
X158215000Y-87767936D02*
X158215000Y-88222064D01*
%TO.C,R21*%
X161825000Y-64177936D02*
X161825000Y-64632064D01*
X163295000Y-64177936D02*
X163295000Y-64632064D01*
%TO.C,R22*%
X163295000Y-87767936D02*
X163295000Y-88222064D01*
X161825000Y-87767936D02*
X161825000Y-88222064D01*
%TO.C,R23*%
X165835000Y-64177936D02*
X165835000Y-64632064D01*
X164365000Y-64177936D02*
X164365000Y-64632064D01*
%TO.C,R24*%
X167921000Y-64177936D02*
X167921000Y-64632064D01*
X169391000Y-64177936D02*
X169391000Y-64632064D01*
%TO.C,R25*%
X167921000Y-87767936D02*
X167921000Y-88222064D01*
X169391000Y-87767936D02*
X169391000Y-88222064D01*
%TO.C,R26*%
X171931000Y-64177936D02*
X171931000Y-64632064D01*
X170461000Y-64177936D02*
X170461000Y-64632064D01*
%TO.C,R27*%
X171931000Y-87767936D02*
X171931000Y-88222064D01*
X170461000Y-87767936D02*
X170461000Y-88222064D01*
%TO.C,R28*%
X175541000Y-64177936D02*
X175541000Y-64632064D01*
X177011000Y-64177936D02*
X177011000Y-64632064D01*
%TO.C,R29*%
X175541000Y-87767936D02*
X175541000Y-88222064D01*
X177011000Y-87767936D02*
X177011000Y-88222064D01*
%TO.C,R30*%
X178081000Y-64177936D02*
X178081000Y-64632064D01*
X179551000Y-64177936D02*
X179551000Y-64632064D01*
%TO.C,R31*%
X186155000Y-66717936D02*
X186155000Y-67172064D01*
X184685000Y-66717936D02*
X184685000Y-67172064D01*
%TO.C,R32*%
X186155000Y-84952064D02*
X186155000Y-84497936D01*
X184685000Y-84952064D02*
X184685000Y-84497936D01*
%TO.C,R33*%
X188876000Y-64177936D02*
X188876000Y-64632064D01*
X190346000Y-64177936D02*
X190346000Y-64632064D01*
%TO.C,R34*%
X190346000Y-87767936D02*
X190346000Y-88222064D01*
X188876000Y-87767936D02*
X188876000Y-88222064D01*
%TO.C,R35*%
X192886000Y-64177936D02*
X192886000Y-64632064D01*
X191416000Y-64177936D02*
X191416000Y-64632064D01*
%TO.C,R36*%
X191416000Y-87767936D02*
X191416000Y-88222064D01*
X192886000Y-87767936D02*
X192886000Y-88222064D01*
%TO.C,R37*%
X196496000Y-64177936D02*
X196496000Y-64632064D01*
X197966000Y-64177936D02*
X197966000Y-64632064D01*
%TO.C,R38*%
X197966000Y-87767936D02*
X197966000Y-88222064D01*
X196496000Y-87767936D02*
X196496000Y-88222064D01*
%TO.C,R39*%
X200506000Y-64177936D02*
X200506000Y-64632064D01*
X199036000Y-64177936D02*
X199036000Y-64632064D01*
%TO.C,R40*%
X202211000Y-64177936D02*
X202211000Y-64632064D01*
X203681000Y-64177936D02*
X203681000Y-64632064D01*
%TO.C,R41*%
X202211000Y-87767936D02*
X202211000Y-88222064D01*
X203681000Y-87767936D02*
X203681000Y-88222064D01*
%TO.C,R42*%
X206221000Y-64177936D02*
X206221000Y-64632064D01*
X204751000Y-64177936D02*
X204751000Y-64632064D01*
%TO.C,R43*%
X206221000Y-87767936D02*
X206221000Y-88222064D01*
X204751000Y-87767936D02*
X204751000Y-88222064D01*
%TO.C,R44*%
X209831000Y-64177936D02*
X209831000Y-64632064D01*
X211301000Y-64177936D02*
X211301000Y-64632064D01*
%TO.C,R45*%
X209831000Y-87767936D02*
X209831000Y-88222064D01*
X211301000Y-87767936D02*
X211301000Y-88222064D01*
%TO.C,R46*%
X213841000Y-64177936D02*
X213841000Y-64632064D01*
X212371000Y-64177936D02*
X212371000Y-64632064D01*
%TO.C,R47*%
X212371000Y-87767936D02*
X212371000Y-88222064D01*
X213841000Y-87767936D02*
X213841000Y-88222064D01*
%TO.C,R48*%
X215546000Y-64177936D02*
X215546000Y-64632064D01*
X217016000Y-64177936D02*
X217016000Y-64632064D01*
%TO.C,R49*%
X217016000Y-87767936D02*
X217016000Y-88222064D01*
X215546000Y-87767936D02*
X215546000Y-88222064D01*
%TO.C,R50*%
X219556000Y-64177936D02*
X219556000Y-64632064D01*
X218086000Y-64177936D02*
X218086000Y-64632064D01*
%TO.C,R51*%
X218086000Y-87767936D02*
X218086000Y-88222064D01*
X219556000Y-87767936D02*
X219556000Y-88222064D01*
%TO.C,R52*%
X224636000Y-64177936D02*
X224636000Y-64632064D01*
X223166000Y-64177936D02*
X223166000Y-64632064D01*
%TO.C,R53*%
X224636000Y-87767936D02*
X224636000Y-88222064D01*
X223166000Y-87767936D02*
X223166000Y-88222064D01*
%TO.C,R54*%
X227176000Y-64177936D02*
X227176000Y-64632064D01*
X225706000Y-64177936D02*
X225706000Y-64632064D01*
%TO.C,R55*%
X229516000Y-64177936D02*
X229516000Y-64632064D01*
X230986000Y-64177936D02*
X230986000Y-64632064D01*
%TO.C,R56*%
X229516000Y-87767936D02*
X229516000Y-88222064D01*
X230986000Y-87767936D02*
X230986000Y-88222064D01*
%TO.C,R57*%
X233526000Y-64177936D02*
X233526000Y-64632064D01*
X232056000Y-64177936D02*
X232056000Y-64632064D01*
%TO.C,R58*%
X233526000Y-87767936D02*
X233526000Y-88222064D01*
X232056000Y-87767936D02*
X232056000Y-88222064D01*
%TO.C,R59*%
X238606000Y-64177936D02*
X238606000Y-64632064D01*
X237136000Y-64177936D02*
X237136000Y-64632064D01*
%TO.C,R60*%
X237136000Y-87767936D02*
X237136000Y-88222064D01*
X238606000Y-87767936D02*
X238606000Y-88222064D01*
%TO.C,R61*%
X239676000Y-64177936D02*
X239676000Y-64632064D01*
X241146000Y-64177936D02*
X241146000Y-64632064D01*
%TO.C,R62*%
X243940000Y-64177936D02*
X243940000Y-64632064D01*
X242470000Y-64177936D02*
X242470000Y-64632064D01*
%TO.C,R63*%
X243940000Y-87767936D02*
X243940000Y-88222064D01*
X242470000Y-87767936D02*
X242470000Y-88222064D01*
%TO.C,R64*%
X245010000Y-64177936D02*
X245010000Y-64632064D01*
X246480000Y-64177936D02*
X246480000Y-64632064D01*
%TO.C,R65*%
X245010000Y-87767936D02*
X245010000Y-88222064D01*
X246480000Y-87767936D02*
X246480000Y-88222064D01*
%TO.C,R66*%
X251560000Y-64177936D02*
X251560000Y-64632064D01*
X250090000Y-64177936D02*
X250090000Y-64632064D01*
%TO.C,R67*%
X251560000Y-87767936D02*
X251560000Y-88222064D01*
X250090000Y-87767936D02*
X250090000Y-88222064D01*
%TO.C,R68*%
X252630000Y-64177936D02*
X252630000Y-64632064D01*
X254100000Y-64177936D02*
X254100000Y-64632064D01*
%TO.C,R69*%
X258557500Y-67332776D02*
X258557500Y-67842224D01*
X259602500Y-67332776D02*
X259602500Y-67842224D01*
%TO.C,R70*%
X259602500Y-83207776D02*
X259602500Y-83717224D01*
X258557500Y-83207776D02*
X258557500Y-83717224D01*
%TO.C,R71*%
X259602500Y-99082776D02*
X259602500Y-99592224D01*
X258557500Y-99082776D02*
X258557500Y-99592224D01*
D13*
%TO.C,S1*%
X258327665Y-65464335D02*
G75*
G03*
X258327665Y-65464335I-99335J0D01*
G01*
X263980000Y-63460000D02*
X263980000Y-58460000D01*
X259672670Y-57965000D02*
X262264330Y-57965000D01*
X259729330Y-63955000D02*
X262165000Y-63955000D01*
X257990000Y-63460000D02*
X257990000Y-58460000D01*
%TO.C,S2*%
X257990000Y-79335000D02*
X257990000Y-74335000D01*
X259729330Y-79830000D02*
X262165000Y-79830000D01*
X259672670Y-73840000D02*
X262264330Y-73840000D01*
X263980000Y-79335000D02*
X263980000Y-74335000D01*
X258327665Y-81339335D02*
G75*
G03*
X258327665Y-81339335I-99335J0D01*
G01*
%TO.C,S3*%
X258327665Y-97214335D02*
G75*
G03*
X258327665Y-97214335I-99335J0D01*
G01*
X263980000Y-95210000D02*
X263980000Y-90210000D01*
X259672670Y-89715000D02*
X262264330Y-89715000D01*
X259729330Y-95705000D02*
X262165000Y-95705000D01*
X257990000Y-95210000D02*
X257990000Y-90210000D01*
D12*
%TO.C,D5*%
X262545000Y-54576000D02*
X262545000Y-54420000D01*
X262545000Y-52260000D02*
X262545000Y-52104000D01*
X259312665Y-54418608D02*
G75*
G03*
X262545000Y-54575516I1672335J1078608D01*
G01*
X259312665Y-52261392D02*
G75*
G02*
X262545000Y-52104484I1672335J-1078608D01*
G01*
X259943870Y-54419837D02*
G75*
G03*
X262025961Y-54420000I1041130J1079837D01*
G01*
X259943870Y-52260163D02*
G75*
G02*
X262025961Y-52260000I1041130J-1079837D01*
G01*
%TO.C,R72*%
X256042936Y-52605000D02*
X256497064Y-52605000D01*
X256042936Y-54075000D02*
X256497064Y-54075000D01*
%TD*%
M02*
