%TF.GenerationSoftware,KiCad,Pcbnew,(5.1.9)-1*%
%TF.CreationDate,2021-02-03T14:21:07-06:00*%
%TF.ProjectId,GPS_Clock_Ver2,4750535f-436c-46f6-936b-5f566572322e,rev?*%
%TF.SameCoordinates,Original*%
%TF.FileFunction,Paste,Top*%
%TF.FilePolarity,Positive*%
%FSLAX46Y46*%
G04 Gerber Fmt 4.6, Leading zero omitted, Abs format (unit mm)*
G04 Created by KiCad (PCBNEW (5.1.9)-1) date 2021-02-03 14:21:07*
%MOMM*%
%LPD*%
G01*
G04 APERTURE LIST*
G04 APERTURE END LIST*
%TO.C,R1*%
G36*
G01*
X120199999Y-64805000D02*
X121100001Y-64805000D01*
G75*
G02*
X121350000Y-65054999I0J-249999D01*
G01*
X121350000Y-65755001D01*
G75*
G02*
X121100001Y-66005000I-249999J0D01*
G01*
X120199999Y-66005000D01*
G75*
G02*
X119950000Y-65755001I0J249999D01*
G01*
X119950000Y-65054999D01*
G75*
G02*
X120199999Y-64805000I249999J0D01*
G01*
G37*
G36*
G01*
X120199999Y-62805000D02*
X121100001Y-62805000D01*
G75*
G02*
X121350000Y-63054999I0J-249999D01*
G01*
X121350000Y-63755001D01*
G75*
G02*
X121100001Y-64005000I-249999J0D01*
G01*
X120199999Y-64005000D01*
G75*
G02*
X119950000Y-63755001I0J249999D01*
G01*
X119950000Y-63054999D01*
G75*
G02*
X120199999Y-62805000I249999J0D01*
G01*
G37*
%TD*%
%TO.C,R2*%
G36*
G01*
X120199999Y-86395000D02*
X121100001Y-86395000D01*
G75*
G02*
X121350000Y-86644999I0J-249999D01*
G01*
X121350000Y-87345001D01*
G75*
G02*
X121100001Y-87595000I-249999J0D01*
G01*
X120199999Y-87595000D01*
G75*
G02*
X119950000Y-87345001I0J249999D01*
G01*
X119950000Y-86644999D01*
G75*
G02*
X120199999Y-86395000I249999J0D01*
G01*
G37*
G36*
G01*
X120199999Y-88395000D02*
X121100001Y-88395000D01*
G75*
G02*
X121350000Y-88644999I0J-249999D01*
G01*
X121350000Y-89345001D01*
G75*
G02*
X121100001Y-89595000I-249999J0D01*
G01*
X120199999Y-89595000D01*
G75*
G02*
X119950000Y-89345001I0J249999D01*
G01*
X119950000Y-88644999D01*
G75*
G02*
X120199999Y-88395000I249999J0D01*
G01*
G37*
%TD*%
%TO.C,R3*%
G36*
G01*
X122739999Y-62805000D02*
X123640001Y-62805000D01*
G75*
G02*
X123890000Y-63054999I0J-249999D01*
G01*
X123890000Y-63755001D01*
G75*
G02*
X123640001Y-64005000I-249999J0D01*
G01*
X122739999Y-64005000D01*
G75*
G02*
X122490000Y-63755001I0J249999D01*
G01*
X122490000Y-63054999D01*
G75*
G02*
X122739999Y-62805000I249999J0D01*
G01*
G37*
G36*
G01*
X122739999Y-64805000D02*
X123640001Y-64805000D01*
G75*
G02*
X123890000Y-65054999I0J-249999D01*
G01*
X123890000Y-65755001D01*
G75*
G02*
X123640001Y-66005000I-249999J0D01*
G01*
X122739999Y-66005000D01*
G75*
G02*
X122490000Y-65755001I0J249999D01*
G01*
X122490000Y-65054999D01*
G75*
G02*
X122739999Y-64805000I249999J0D01*
G01*
G37*
%TD*%
%TO.C,R4*%
G36*
G01*
X122739999Y-88395000D02*
X123640001Y-88395000D01*
G75*
G02*
X123890000Y-88644999I0J-249999D01*
G01*
X123890000Y-89345001D01*
G75*
G02*
X123640001Y-89595000I-249999J0D01*
G01*
X122739999Y-89595000D01*
G75*
G02*
X122490000Y-89345001I0J249999D01*
G01*
X122490000Y-88644999D01*
G75*
G02*
X122739999Y-88395000I249999J0D01*
G01*
G37*
G36*
G01*
X122739999Y-86395000D02*
X123640001Y-86395000D01*
G75*
G02*
X123890000Y-86644999I0J-249999D01*
G01*
X123890000Y-87345001D01*
G75*
G02*
X123640001Y-87595000I-249999J0D01*
G01*
X122739999Y-87595000D01*
G75*
G02*
X122490000Y-87345001I0J249999D01*
G01*
X122490000Y-86644999D01*
G75*
G02*
X122739999Y-86395000I249999J0D01*
G01*
G37*
%TD*%
%TO.C,R5*%
G36*
G01*
X127819999Y-64805000D02*
X128720001Y-64805000D01*
G75*
G02*
X128970000Y-65054999I0J-249999D01*
G01*
X128970000Y-65755001D01*
G75*
G02*
X128720001Y-66005000I-249999J0D01*
G01*
X127819999Y-66005000D01*
G75*
G02*
X127570000Y-65755001I0J249999D01*
G01*
X127570000Y-65054999D01*
G75*
G02*
X127819999Y-64805000I249999J0D01*
G01*
G37*
G36*
G01*
X127819999Y-62805000D02*
X128720001Y-62805000D01*
G75*
G02*
X128970000Y-63054999I0J-249999D01*
G01*
X128970000Y-63755001D01*
G75*
G02*
X128720001Y-64005000I-249999J0D01*
G01*
X127819999Y-64005000D01*
G75*
G02*
X127570000Y-63755001I0J249999D01*
G01*
X127570000Y-63054999D01*
G75*
G02*
X127819999Y-62805000I249999J0D01*
G01*
G37*
%TD*%
%TO.C,R6*%
G36*
G01*
X127819999Y-86395000D02*
X128720001Y-86395000D01*
G75*
G02*
X128970000Y-86644999I0J-249999D01*
G01*
X128970000Y-87345001D01*
G75*
G02*
X128720001Y-87595000I-249999J0D01*
G01*
X127819999Y-87595000D01*
G75*
G02*
X127570000Y-87345001I0J249999D01*
G01*
X127570000Y-86644999D01*
G75*
G02*
X127819999Y-86395000I249999J0D01*
G01*
G37*
G36*
G01*
X127819999Y-88395000D02*
X128720001Y-88395000D01*
G75*
G02*
X128970000Y-88644999I0J-249999D01*
G01*
X128970000Y-89345001D01*
G75*
G02*
X128720001Y-89595000I-249999J0D01*
G01*
X127819999Y-89595000D01*
G75*
G02*
X127570000Y-89345001I0J249999D01*
G01*
X127570000Y-88644999D01*
G75*
G02*
X127819999Y-88395000I249999J0D01*
G01*
G37*
%TD*%
%TO.C,R7*%
G36*
G01*
X130359999Y-62805000D02*
X131260001Y-62805000D01*
G75*
G02*
X131510000Y-63054999I0J-249999D01*
G01*
X131510000Y-63755001D01*
G75*
G02*
X131260001Y-64005000I-249999J0D01*
G01*
X130359999Y-64005000D01*
G75*
G02*
X130110000Y-63755001I0J249999D01*
G01*
X130110000Y-63054999D01*
G75*
G02*
X130359999Y-62805000I249999J0D01*
G01*
G37*
G36*
G01*
X130359999Y-64805000D02*
X131260001Y-64805000D01*
G75*
G02*
X131510000Y-65054999I0J-249999D01*
G01*
X131510000Y-65755001D01*
G75*
G02*
X131260001Y-66005000I-249999J0D01*
G01*
X130359999Y-66005000D01*
G75*
G02*
X130110000Y-65755001I0J249999D01*
G01*
X130110000Y-65054999D01*
G75*
G02*
X130359999Y-64805000I249999J0D01*
G01*
G37*
%TD*%
%TO.C,R8*%
G36*
G01*
X133534999Y-64805000D02*
X134435001Y-64805000D01*
G75*
G02*
X134685000Y-65054999I0J-249999D01*
G01*
X134685000Y-65755001D01*
G75*
G02*
X134435001Y-66005000I-249999J0D01*
G01*
X133534999Y-66005000D01*
G75*
G02*
X133285000Y-65755001I0J249999D01*
G01*
X133285000Y-65054999D01*
G75*
G02*
X133534999Y-64805000I249999J0D01*
G01*
G37*
G36*
G01*
X133534999Y-62805000D02*
X134435001Y-62805000D01*
G75*
G02*
X134685000Y-63054999I0J-249999D01*
G01*
X134685000Y-63755001D01*
G75*
G02*
X134435001Y-64005000I-249999J0D01*
G01*
X133534999Y-64005000D01*
G75*
G02*
X133285000Y-63755001I0J249999D01*
G01*
X133285000Y-63054999D01*
G75*
G02*
X133534999Y-62805000I249999J0D01*
G01*
G37*
%TD*%
%TO.C,R9*%
G36*
G01*
X133534999Y-88395000D02*
X134435001Y-88395000D01*
G75*
G02*
X134685000Y-88644999I0J-249999D01*
G01*
X134685000Y-89345001D01*
G75*
G02*
X134435001Y-89595000I-249999J0D01*
G01*
X133534999Y-89595000D01*
G75*
G02*
X133285000Y-89345001I0J249999D01*
G01*
X133285000Y-88644999D01*
G75*
G02*
X133534999Y-88395000I249999J0D01*
G01*
G37*
G36*
G01*
X133534999Y-86395000D02*
X134435001Y-86395000D01*
G75*
G02*
X134685000Y-86644999I0J-249999D01*
G01*
X134685000Y-87345001D01*
G75*
G02*
X134435001Y-87595000I-249999J0D01*
G01*
X133534999Y-87595000D01*
G75*
G02*
X133285000Y-87345001I0J249999D01*
G01*
X133285000Y-86644999D01*
G75*
G02*
X133534999Y-86395000I249999J0D01*
G01*
G37*
%TD*%
%TO.C,R10*%
G36*
G01*
X136074999Y-62805000D02*
X136975001Y-62805000D01*
G75*
G02*
X137225000Y-63054999I0J-249999D01*
G01*
X137225000Y-63755001D01*
G75*
G02*
X136975001Y-64005000I-249999J0D01*
G01*
X136074999Y-64005000D01*
G75*
G02*
X135825000Y-63755001I0J249999D01*
G01*
X135825000Y-63054999D01*
G75*
G02*
X136074999Y-62805000I249999J0D01*
G01*
G37*
G36*
G01*
X136074999Y-64805000D02*
X136975001Y-64805000D01*
G75*
G02*
X137225000Y-65054999I0J-249999D01*
G01*
X137225000Y-65755001D01*
G75*
G02*
X136975001Y-66005000I-249999J0D01*
G01*
X136074999Y-66005000D01*
G75*
G02*
X135825000Y-65755001I0J249999D01*
G01*
X135825000Y-65054999D01*
G75*
G02*
X136074999Y-64805000I249999J0D01*
G01*
G37*
%TD*%
%TO.C,R11*%
G36*
G01*
X136074999Y-86395000D02*
X136975001Y-86395000D01*
G75*
G02*
X137225000Y-86644999I0J-249999D01*
G01*
X137225000Y-87345001D01*
G75*
G02*
X136975001Y-87595000I-249999J0D01*
G01*
X136074999Y-87595000D01*
G75*
G02*
X135825000Y-87345001I0J249999D01*
G01*
X135825000Y-86644999D01*
G75*
G02*
X136074999Y-86395000I249999J0D01*
G01*
G37*
G36*
G01*
X136074999Y-88395000D02*
X136975001Y-88395000D01*
G75*
G02*
X137225000Y-88644999I0J-249999D01*
G01*
X137225000Y-89345001D01*
G75*
G02*
X136975001Y-89595000I-249999J0D01*
G01*
X136074999Y-89595000D01*
G75*
G02*
X135825000Y-89345001I0J249999D01*
G01*
X135825000Y-88644999D01*
G75*
G02*
X136074999Y-88395000I249999J0D01*
G01*
G37*
%TD*%
%TO.C,R12*%
G36*
G01*
X141154999Y-62805000D02*
X142055001Y-62805000D01*
G75*
G02*
X142305000Y-63054999I0J-249999D01*
G01*
X142305000Y-63755001D01*
G75*
G02*
X142055001Y-64005000I-249999J0D01*
G01*
X141154999Y-64005000D01*
G75*
G02*
X140905000Y-63755001I0J249999D01*
G01*
X140905000Y-63054999D01*
G75*
G02*
X141154999Y-62805000I249999J0D01*
G01*
G37*
G36*
G01*
X141154999Y-64805000D02*
X142055001Y-64805000D01*
G75*
G02*
X142305000Y-65054999I0J-249999D01*
G01*
X142305000Y-65755001D01*
G75*
G02*
X142055001Y-66005000I-249999J0D01*
G01*
X141154999Y-66005000D01*
G75*
G02*
X140905000Y-65755001I0J249999D01*
G01*
X140905000Y-65054999D01*
G75*
G02*
X141154999Y-64805000I249999J0D01*
G01*
G37*
%TD*%
%TO.C,R13*%
G36*
G01*
X141154999Y-88395000D02*
X142055001Y-88395000D01*
G75*
G02*
X142305000Y-88644999I0J-249999D01*
G01*
X142305000Y-89345001D01*
G75*
G02*
X142055001Y-89595000I-249999J0D01*
G01*
X141154999Y-89595000D01*
G75*
G02*
X140905000Y-89345001I0J249999D01*
G01*
X140905000Y-88644999D01*
G75*
G02*
X141154999Y-88395000I249999J0D01*
G01*
G37*
G36*
G01*
X141154999Y-86395000D02*
X142055001Y-86395000D01*
G75*
G02*
X142305000Y-86644999I0J-249999D01*
G01*
X142305000Y-87345001D01*
G75*
G02*
X142055001Y-87595000I-249999J0D01*
G01*
X141154999Y-87595000D01*
G75*
G02*
X140905000Y-87345001I0J249999D01*
G01*
X140905000Y-86644999D01*
G75*
G02*
X141154999Y-86395000I249999J0D01*
G01*
G37*
%TD*%
%TO.C,R14*%
G36*
G01*
X143694999Y-64805000D02*
X144595001Y-64805000D01*
G75*
G02*
X144845000Y-65054999I0J-249999D01*
G01*
X144845000Y-65755001D01*
G75*
G02*
X144595001Y-66005000I-249999J0D01*
G01*
X143694999Y-66005000D01*
G75*
G02*
X143445000Y-65755001I0J249999D01*
G01*
X143445000Y-65054999D01*
G75*
G02*
X143694999Y-64805000I249999J0D01*
G01*
G37*
G36*
G01*
X143694999Y-62805000D02*
X144595001Y-62805000D01*
G75*
G02*
X144845000Y-63054999I0J-249999D01*
G01*
X144845000Y-63755001D01*
G75*
G02*
X144595001Y-64005000I-249999J0D01*
G01*
X143694999Y-64005000D01*
G75*
G02*
X143445000Y-63755001I0J249999D01*
G01*
X143445000Y-63054999D01*
G75*
G02*
X143694999Y-62805000I249999J0D01*
G01*
G37*
%TD*%
%TO.C,R15*%
G36*
G01*
X150679999Y-65345000D02*
X151580001Y-65345000D01*
G75*
G02*
X151830000Y-65594999I0J-249999D01*
G01*
X151830000Y-66295001D01*
G75*
G02*
X151580001Y-66545000I-249999J0D01*
G01*
X150679999Y-66545000D01*
G75*
G02*
X150430000Y-66295001I0J249999D01*
G01*
X150430000Y-65594999D01*
G75*
G02*
X150679999Y-65345000I249999J0D01*
G01*
G37*
G36*
G01*
X150679999Y-67345000D02*
X151580001Y-67345000D01*
G75*
G02*
X151830000Y-67594999I0J-249999D01*
G01*
X151830000Y-68295001D01*
G75*
G02*
X151580001Y-68545000I-249999J0D01*
G01*
X150679999Y-68545000D01*
G75*
G02*
X150430000Y-68295001I0J249999D01*
G01*
X150430000Y-67594999D01*
G75*
G02*
X150679999Y-67345000I249999J0D01*
G01*
G37*
%TD*%
%TO.C,R16*%
G36*
G01*
X151580001Y-84325000D02*
X150679999Y-84325000D01*
G75*
G02*
X150430000Y-84075001I0J249999D01*
G01*
X150430000Y-83374999D01*
G75*
G02*
X150679999Y-83125000I249999J0D01*
G01*
X151580001Y-83125000D01*
G75*
G02*
X151830000Y-83374999I0J-249999D01*
G01*
X151830000Y-84075001D01*
G75*
G02*
X151580001Y-84325000I-249999J0D01*
G01*
G37*
G36*
G01*
X151580001Y-86325000D02*
X150679999Y-86325000D01*
G75*
G02*
X150430000Y-86075001I0J249999D01*
G01*
X150430000Y-85374999D01*
G75*
G02*
X150679999Y-85125000I249999J0D01*
G01*
X151580001Y-85125000D01*
G75*
G02*
X151830000Y-85374999I0J-249999D01*
G01*
X151830000Y-86075001D01*
G75*
G02*
X151580001Y-86325000I-249999J0D01*
G01*
G37*
%TD*%
%TO.C,R17*%
G36*
G01*
X154489999Y-64805000D02*
X155390001Y-64805000D01*
G75*
G02*
X155640000Y-65054999I0J-249999D01*
G01*
X155640000Y-65755001D01*
G75*
G02*
X155390001Y-66005000I-249999J0D01*
G01*
X154489999Y-66005000D01*
G75*
G02*
X154240000Y-65755001I0J249999D01*
G01*
X154240000Y-65054999D01*
G75*
G02*
X154489999Y-64805000I249999J0D01*
G01*
G37*
G36*
G01*
X154489999Y-62805000D02*
X155390001Y-62805000D01*
G75*
G02*
X155640000Y-63054999I0J-249999D01*
G01*
X155640000Y-63755001D01*
G75*
G02*
X155390001Y-64005000I-249999J0D01*
G01*
X154489999Y-64005000D01*
G75*
G02*
X154240000Y-63755001I0J249999D01*
G01*
X154240000Y-63054999D01*
G75*
G02*
X154489999Y-62805000I249999J0D01*
G01*
G37*
%TD*%
%TO.C,R18*%
G36*
G01*
X154489999Y-86395000D02*
X155390001Y-86395000D01*
G75*
G02*
X155640000Y-86644999I0J-249999D01*
G01*
X155640000Y-87345001D01*
G75*
G02*
X155390001Y-87595000I-249999J0D01*
G01*
X154489999Y-87595000D01*
G75*
G02*
X154240000Y-87345001I0J249999D01*
G01*
X154240000Y-86644999D01*
G75*
G02*
X154489999Y-86395000I249999J0D01*
G01*
G37*
G36*
G01*
X154489999Y-88395000D02*
X155390001Y-88395000D01*
G75*
G02*
X155640000Y-88644999I0J-249999D01*
G01*
X155640000Y-89345001D01*
G75*
G02*
X155390001Y-89595000I-249999J0D01*
G01*
X154489999Y-89595000D01*
G75*
G02*
X154240000Y-89345001I0J249999D01*
G01*
X154240000Y-88644999D01*
G75*
G02*
X154489999Y-88395000I249999J0D01*
G01*
G37*
%TD*%
%TO.C,R19*%
G36*
G01*
X157029999Y-62805000D02*
X157930001Y-62805000D01*
G75*
G02*
X158180000Y-63054999I0J-249999D01*
G01*
X158180000Y-63755001D01*
G75*
G02*
X157930001Y-64005000I-249999J0D01*
G01*
X157029999Y-64005000D01*
G75*
G02*
X156780000Y-63755001I0J249999D01*
G01*
X156780000Y-63054999D01*
G75*
G02*
X157029999Y-62805000I249999J0D01*
G01*
G37*
G36*
G01*
X157029999Y-64805000D02*
X157930001Y-64805000D01*
G75*
G02*
X158180000Y-65054999I0J-249999D01*
G01*
X158180000Y-65755001D01*
G75*
G02*
X157930001Y-66005000I-249999J0D01*
G01*
X157029999Y-66005000D01*
G75*
G02*
X156780000Y-65755001I0J249999D01*
G01*
X156780000Y-65054999D01*
G75*
G02*
X157029999Y-64805000I249999J0D01*
G01*
G37*
%TD*%
%TO.C,R20*%
G36*
G01*
X157029999Y-88395000D02*
X157930001Y-88395000D01*
G75*
G02*
X158180000Y-88644999I0J-249999D01*
G01*
X158180000Y-89345001D01*
G75*
G02*
X157930001Y-89595000I-249999J0D01*
G01*
X157029999Y-89595000D01*
G75*
G02*
X156780000Y-89345001I0J249999D01*
G01*
X156780000Y-88644999D01*
G75*
G02*
X157029999Y-88395000I249999J0D01*
G01*
G37*
G36*
G01*
X157029999Y-86395000D02*
X157930001Y-86395000D01*
G75*
G02*
X158180000Y-86644999I0J-249999D01*
G01*
X158180000Y-87345001D01*
G75*
G02*
X157930001Y-87595000I-249999J0D01*
G01*
X157029999Y-87595000D01*
G75*
G02*
X156780000Y-87345001I0J249999D01*
G01*
X156780000Y-86644999D01*
G75*
G02*
X157029999Y-86395000I249999J0D01*
G01*
G37*
%TD*%
%TO.C,R21*%
G36*
G01*
X162109999Y-64805000D02*
X163010001Y-64805000D01*
G75*
G02*
X163260000Y-65054999I0J-249999D01*
G01*
X163260000Y-65755001D01*
G75*
G02*
X163010001Y-66005000I-249999J0D01*
G01*
X162109999Y-66005000D01*
G75*
G02*
X161860000Y-65755001I0J249999D01*
G01*
X161860000Y-65054999D01*
G75*
G02*
X162109999Y-64805000I249999J0D01*
G01*
G37*
G36*
G01*
X162109999Y-62805000D02*
X163010001Y-62805000D01*
G75*
G02*
X163260000Y-63054999I0J-249999D01*
G01*
X163260000Y-63755001D01*
G75*
G02*
X163010001Y-64005000I-249999J0D01*
G01*
X162109999Y-64005000D01*
G75*
G02*
X161860000Y-63755001I0J249999D01*
G01*
X161860000Y-63054999D01*
G75*
G02*
X162109999Y-62805000I249999J0D01*
G01*
G37*
%TD*%
%TO.C,R22*%
G36*
G01*
X162109999Y-86395000D02*
X163010001Y-86395000D01*
G75*
G02*
X163260000Y-86644999I0J-249999D01*
G01*
X163260000Y-87345001D01*
G75*
G02*
X163010001Y-87595000I-249999J0D01*
G01*
X162109999Y-87595000D01*
G75*
G02*
X161860000Y-87345001I0J249999D01*
G01*
X161860000Y-86644999D01*
G75*
G02*
X162109999Y-86395000I249999J0D01*
G01*
G37*
G36*
G01*
X162109999Y-88395000D02*
X163010001Y-88395000D01*
G75*
G02*
X163260000Y-88644999I0J-249999D01*
G01*
X163260000Y-89345001D01*
G75*
G02*
X163010001Y-89595000I-249999J0D01*
G01*
X162109999Y-89595000D01*
G75*
G02*
X161860000Y-89345001I0J249999D01*
G01*
X161860000Y-88644999D01*
G75*
G02*
X162109999Y-88395000I249999J0D01*
G01*
G37*
%TD*%
%TO.C,R23*%
G36*
G01*
X164649999Y-62805000D02*
X165550001Y-62805000D01*
G75*
G02*
X165800000Y-63054999I0J-249999D01*
G01*
X165800000Y-63755001D01*
G75*
G02*
X165550001Y-64005000I-249999J0D01*
G01*
X164649999Y-64005000D01*
G75*
G02*
X164400000Y-63755001I0J249999D01*
G01*
X164400000Y-63054999D01*
G75*
G02*
X164649999Y-62805000I249999J0D01*
G01*
G37*
G36*
G01*
X164649999Y-64805000D02*
X165550001Y-64805000D01*
G75*
G02*
X165800000Y-65054999I0J-249999D01*
G01*
X165800000Y-65755001D01*
G75*
G02*
X165550001Y-66005000I-249999J0D01*
G01*
X164649999Y-66005000D01*
G75*
G02*
X164400000Y-65755001I0J249999D01*
G01*
X164400000Y-65054999D01*
G75*
G02*
X164649999Y-64805000I249999J0D01*
G01*
G37*
%TD*%
%TO.C,R24*%
G36*
G01*
X168205999Y-64805000D02*
X169106001Y-64805000D01*
G75*
G02*
X169356000Y-65054999I0J-249999D01*
G01*
X169356000Y-65755001D01*
G75*
G02*
X169106001Y-66005000I-249999J0D01*
G01*
X168205999Y-66005000D01*
G75*
G02*
X167956000Y-65755001I0J249999D01*
G01*
X167956000Y-65054999D01*
G75*
G02*
X168205999Y-64805000I249999J0D01*
G01*
G37*
G36*
G01*
X168205999Y-62805000D02*
X169106001Y-62805000D01*
G75*
G02*
X169356000Y-63054999I0J-249999D01*
G01*
X169356000Y-63755001D01*
G75*
G02*
X169106001Y-64005000I-249999J0D01*
G01*
X168205999Y-64005000D01*
G75*
G02*
X167956000Y-63755001I0J249999D01*
G01*
X167956000Y-63054999D01*
G75*
G02*
X168205999Y-62805000I249999J0D01*
G01*
G37*
%TD*%
%TO.C,R25*%
G36*
G01*
X168205999Y-88395000D02*
X169106001Y-88395000D01*
G75*
G02*
X169356000Y-88644999I0J-249999D01*
G01*
X169356000Y-89345001D01*
G75*
G02*
X169106001Y-89595000I-249999J0D01*
G01*
X168205999Y-89595000D01*
G75*
G02*
X167956000Y-89345001I0J249999D01*
G01*
X167956000Y-88644999D01*
G75*
G02*
X168205999Y-88395000I249999J0D01*
G01*
G37*
G36*
G01*
X168205999Y-86395000D02*
X169106001Y-86395000D01*
G75*
G02*
X169356000Y-86644999I0J-249999D01*
G01*
X169356000Y-87345001D01*
G75*
G02*
X169106001Y-87595000I-249999J0D01*
G01*
X168205999Y-87595000D01*
G75*
G02*
X167956000Y-87345001I0J249999D01*
G01*
X167956000Y-86644999D01*
G75*
G02*
X168205999Y-86395000I249999J0D01*
G01*
G37*
%TD*%
%TO.C,R26*%
G36*
G01*
X170745999Y-62805000D02*
X171646001Y-62805000D01*
G75*
G02*
X171896000Y-63054999I0J-249999D01*
G01*
X171896000Y-63755001D01*
G75*
G02*
X171646001Y-64005000I-249999J0D01*
G01*
X170745999Y-64005000D01*
G75*
G02*
X170496000Y-63755001I0J249999D01*
G01*
X170496000Y-63054999D01*
G75*
G02*
X170745999Y-62805000I249999J0D01*
G01*
G37*
G36*
G01*
X170745999Y-64805000D02*
X171646001Y-64805000D01*
G75*
G02*
X171896000Y-65054999I0J-249999D01*
G01*
X171896000Y-65755001D01*
G75*
G02*
X171646001Y-66005000I-249999J0D01*
G01*
X170745999Y-66005000D01*
G75*
G02*
X170496000Y-65755001I0J249999D01*
G01*
X170496000Y-65054999D01*
G75*
G02*
X170745999Y-64805000I249999J0D01*
G01*
G37*
%TD*%
%TO.C,R27*%
G36*
G01*
X170745999Y-86395000D02*
X171646001Y-86395000D01*
G75*
G02*
X171896000Y-86644999I0J-249999D01*
G01*
X171896000Y-87345001D01*
G75*
G02*
X171646001Y-87595000I-249999J0D01*
G01*
X170745999Y-87595000D01*
G75*
G02*
X170496000Y-87345001I0J249999D01*
G01*
X170496000Y-86644999D01*
G75*
G02*
X170745999Y-86395000I249999J0D01*
G01*
G37*
G36*
G01*
X170745999Y-88395000D02*
X171646001Y-88395000D01*
G75*
G02*
X171896000Y-88644999I0J-249999D01*
G01*
X171896000Y-89345001D01*
G75*
G02*
X171646001Y-89595000I-249999J0D01*
G01*
X170745999Y-89595000D01*
G75*
G02*
X170496000Y-89345001I0J249999D01*
G01*
X170496000Y-88644999D01*
G75*
G02*
X170745999Y-88395000I249999J0D01*
G01*
G37*
%TD*%
%TO.C,R28*%
G36*
G01*
X175825999Y-64805000D02*
X176726001Y-64805000D01*
G75*
G02*
X176976000Y-65054999I0J-249999D01*
G01*
X176976000Y-65755001D01*
G75*
G02*
X176726001Y-66005000I-249999J0D01*
G01*
X175825999Y-66005000D01*
G75*
G02*
X175576000Y-65755001I0J249999D01*
G01*
X175576000Y-65054999D01*
G75*
G02*
X175825999Y-64805000I249999J0D01*
G01*
G37*
G36*
G01*
X175825999Y-62805000D02*
X176726001Y-62805000D01*
G75*
G02*
X176976000Y-63054999I0J-249999D01*
G01*
X176976000Y-63755001D01*
G75*
G02*
X176726001Y-64005000I-249999J0D01*
G01*
X175825999Y-64005000D01*
G75*
G02*
X175576000Y-63755001I0J249999D01*
G01*
X175576000Y-63054999D01*
G75*
G02*
X175825999Y-62805000I249999J0D01*
G01*
G37*
%TD*%
%TO.C,R29*%
G36*
G01*
X175825999Y-88395000D02*
X176726001Y-88395000D01*
G75*
G02*
X176976000Y-88644999I0J-249999D01*
G01*
X176976000Y-89345001D01*
G75*
G02*
X176726001Y-89595000I-249999J0D01*
G01*
X175825999Y-89595000D01*
G75*
G02*
X175576000Y-89345001I0J249999D01*
G01*
X175576000Y-88644999D01*
G75*
G02*
X175825999Y-88395000I249999J0D01*
G01*
G37*
G36*
G01*
X175825999Y-86395000D02*
X176726001Y-86395000D01*
G75*
G02*
X176976000Y-86644999I0J-249999D01*
G01*
X176976000Y-87345001D01*
G75*
G02*
X176726001Y-87595000I-249999J0D01*
G01*
X175825999Y-87595000D01*
G75*
G02*
X175576000Y-87345001I0J249999D01*
G01*
X175576000Y-86644999D01*
G75*
G02*
X175825999Y-86395000I249999J0D01*
G01*
G37*
%TD*%
%TO.C,R30*%
G36*
G01*
X178365999Y-64805000D02*
X179266001Y-64805000D01*
G75*
G02*
X179516000Y-65054999I0J-249999D01*
G01*
X179516000Y-65755001D01*
G75*
G02*
X179266001Y-66005000I-249999J0D01*
G01*
X178365999Y-66005000D01*
G75*
G02*
X178116000Y-65755001I0J249999D01*
G01*
X178116000Y-65054999D01*
G75*
G02*
X178365999Y-64805000I249999J0D01*
G01*
G37*
G36*
G01*
X178365999Y-62805000D02*
X179266001Y-62805000D01*
G75*
G02*
X179516000Y-63054999I0J-249999D01*
G01*
X179516000Y-63755001D01*
G75*
G02*
X179266001Y-64005000I-249999J0D01*
G01*
X178365999Y-64005000D01*
G75*
G02*
X178116000Y-63755001I0J249999D01*
G01*
X178116000Y-63054999D01*
G75*
G02*
X178365999Y-62805000I249999J0D01*
G01*
G37*
%TD*%
%TO.C,R31*%
G36*
G01*
X184969999Y-65345000D02*
X185870001Y-65345000D01*
G75*
G02*
X186120000Y-65594999I0J-249999D01*
G01*
X186120000Y-66295001D01*
G75*
G02*
X185870001Y-66545000I-249999J0D01*
G01*
X184969999Y-66545000D01*
G75*
G02*
X184720000Y-66295001I0J249999D01*
G01*
X184720000Y-65594999D01*
G75*
G02*
X184969999Y-65345000I249999J0D01*
G01*
G37*
G36*
G01*
X184969999Y-67345000D02*
X185870001Y-67345000D01*
G75*
G02*
X186120000Y-67594999I0J-249999D01*
G01*
X186120000Y-68295001D01*
G75*
G02*
X185870001Y-68545000I-249999J0D01*
G01*
X184969999Y-68545000D01*
G75*
G02*
X184720000Y-68295001I0J249999D01*
G01*
X184720000Y-67594999D01*
G75*
G02*
X184969999Y-67345000I249999J0D01*
G01*
G37*
%TD*%
%TO.C,R32*%
G36*
G01*
X185870001Y-84325000D02*
X184969999Y-84325000D01*
G75*
G02*
X184720000Y-84075001I0J249999D01*
G01*
X184720000Y-83374999D01*
G75*
G02*
X184969999Y-83125000I249999J0D01*
G01*
X185870001Y-83125000D01*
G75*
G02*
X186120000Y-83374999I0J-249999D01*
G01*
X186120000Y-84075001D01*
G75*
G02*
X185870001Y-84325000I-249999J0D01*
G01*
G37*
G36*
G01*
X185870001Y-86325000D02*
X184969999Y-86325000D01*
G75*
G02*
X184720000Y-86075001I0J249999D01*
G01*
X184720000Y-85374999D01*
G75*
G02*
X184969999Y-85125000I249999J0D01*
G01*
X185870001Y-85125000D01*
G75*
G02*
X186120000Y-85374999I0J-249999D01*
G01*
X186120000Y-86075001D01*
G75*
G02*
X185870001Y-86325000I-249999J0D01*
G01*
G37*
%TD*%
%TO.C,R33*%
G36*
G01*
X189160999Y-64805000D02*
X190061001Y-64805000D01*
G75*
G02*
X190311000Y-65054999I0J-249999D01*
G01*
X190311000Y-65755001D01*
G75*
G02*
X190061001Y-66005000I-249999J0D01*
G01*
X189160999Y-66005000D01*
G75*
G02*
X188911000Y-65755001I0J249999D01*
G01*
X188911000Y-65054999D01*
G75*
G02*
X189160999Y-64805000I249999J0D01*
G01*
G37*
G36*
G01*
X189160999Y-62805000D02*
X190061001Y-62805000D01*
G75*
G02*
X190311000Y-63054999I0J-249999D01*
G01*
X190311000Y-63755001D01*
G75*
G02*
X190061001Y-64005000I-249999J0D01*
G01*
X189160999Y-64005000D01*
G75*
G02*
X188911000Y-63755001I0J249999D01*
G01*
X188911000Y-63054999D01*
G75*
G02*
X189160999Y-62805000I249999J0D01*
G01*
G37*
%TD*%
%TO.C,R34*%
G36*
G01*
X189160999Y-86395000D02*
X190061001Y-86395000D01*
G75*
G02*
X190311000Y-86644999I0J-249999D01*
G01*
X190311000Y-87345001D01*
G75*
G02*
X190061001Y-87595000I-249999J0D01*
G01*
X189160999Y-87595000D01*
G75*
G02*
X188911000Y-87345001I0J249999D01*
G01*
X188911000Y-86644999D01*
G75*
G02*
X189160999Y-86395000I249999J0D01*
G01*
G37*
G36*
G01*
X189160999Y-88395000D02*
X190061001Y-88395000D01*
G75*
G02*
X190311000Y-88644999I0J-249999D01*
G01*
X190311000Y-89345001D01*
G75*
G02*
X190061001Y-89595000I-249999J0D01*
G01*
X189160999Y-89595000D01*
G75*
G02*
X188911000Y-89345001I0J249999D01*
G01*
X188911000Y-88644999D01*
G75*
G02*
X189160999Y-88395000I249999J0D01*
G01*
G37*
%TD*%
%TO.C,R35*%
G36*
G01*
X191700999Y-62805000D02*
X192601001Y-62805000D01*
G75*
G02*
X192851000Y-63054999I0J-249999D01*
G01*
X192851000Y-63755001D01*
G75*
G02*
X192601001Y-64005000I-249999J0D01*
G01*
X191700999Y-64005000D01*
G75*
G02*
X191451000Y-63755001I0J249999D01*
G01*
X191451000Y-63054999D01*
G75*
G02*
X191700999Y-62805000I249999J0D01*
G01*
G37*
G36*
G01*
X191700999Y-64805000D02*
X192601001Y-64805000D01*
G75*
G02*
X192851000Y-65054999I0J-249999D01*
G01*
X192851000Y-65755001D01*
G75*
G02*
X192601001Y-66005000I-249999J0D01*
G01*
X191700999Y-66005000D01*
G75*
G02*
X191451000Y-65755001I0J249999D01*
G01*
X191451000Y-65054999D01*
G75*
G02*
X191700999Y-64805000I249999J0D01*
G01*
G37*
%TD*%
%TO.C,R36*%
G36*
G01*
X191700999Y-88395000D02*
X192601001Y-88395000D01*
G75*
G02*
X192851000Y-88644999I0J-249999D01*
G01*
X192851000Y-89345001D01*
G75*
G02*
X192601001Y-89595000I-249999J0D01*
G01*
X191700999Y-89595000D01*
G75*
G02*
X191451000Y-89345001I0J249999D01*
G01*
X191451000Y-88644999D01*
G75*
G02*
X191700999Y-88395000I249999J0D01*
G01*
G37*
G36*
G01*
X191700999Y-86395000D02*
X192601001Y-86395000D01*
G75*
G02*
X192851000Y-86644999I0J-249999D01*
G01*
X192851000Y-87345001D01*
G75*
G02*
X192601001Y-87595000I-249999J0D01*
G01*
X191700999Y-87595000D01*
G75*
G02*
X191451000Y-87345001I0J249999D01*
G01*
X191451000Y-86644999D01*
G75*
G02*
X191700999Y-86395000I249999J0D01*
G01*
G37*
%TD*%
%TO.C,R37*%
G36*
G01*
X196780999Y-64805000D02*
X197681001Y-64805000D01*
G75*
G02*
X197931000Y-65054999I0J-249999D01*
G01*
X197931000Y-65755001D01*
G75*
G02*
X197681001Y-66005000I-249999J0D01*
G01*
X196780999Y-66005000D01*
G75*
G02*
X196531000Y-65755001I0J249999D01*
G01*
X196531000Y-65054999D01*
G75*
G02*
X196780999Y-64805000I249999J0D01*
G01*
G37*
G36*
G01*
X196780999Y-62805000D02*
X197681001Y-62805000D01*
G75*
G02*
X197931000Y-63054999I0J-249999D01*
G01*
X197931000Y-63755001D01*
G75*
G02*
X197681001Y-64005000I-249999J0D01*
G01*
X196780999Y-64005000D01*
G75*
G02*
X196531000Y-63755001I0J249999D01*
G01*
X196531000Y-63054999D01*
G75*
G02*
X196780999Y-62805000I249999J0D01*
G01*
G37*
%TD*%
%TO.C,R38*%
G36*
G01*
X196780999Y-86395000D02*
X197681001Y-86395000D01*
G75*
G02*
X197931000Y-86644999I0J-249999D01*
G01*
X197931000Y-87345001D01*
G75*
G02*
X197681001Y-87595000I-249999J0D01*
G01*
X196780999Y-87595000D01*
G75*
G02*
X196531000Y-87345001I0J249999D01*
G01*
X196531000Y-86644999D01*
G75*
G02*
X196780999Y-86395000I249999J0D01*
G01*
G37*
G36*
G01*
X196780999Y-88395000D02*
X197681001Y-88395000D01*
G75*
G02*
X197931000Y-88644999I0J-249999D01*
G01*
X197931000Y-89345001D01*
G75*
G02*
X197681001Y-89595000I-249999J0D01*
G01*
X196780999Y-89595000D01*
G75*
G02*
X196531000Y-89345001I0J249999D01*
G01*
X196531000Y-88644999D01*
G75*
G02*
X196780999Y-88395000I249999J0D01*
G01*
G37*
%TD*%
%TO.C,R39*%
G36*
G01*
X199320999Y-62805000D02*
X200221001Y-62805000D01*
G75*
G02*
X200471000Y-63054999I0J-249999D01*
G01*
X200471000Y-63755001D01*
G75*
G02*
X200221001Y-64005000I-249999J0D01*
G01*
X199320999Y-64005000D01*
G75*
G02*
X199071000Y-63755001I0J249999D01*
G01*
X199071000Y-63054999D01*
G75*
G02*
X199320999Y-62805000I249999J0D01*
G01*
G37*
G36*
G01*
X199320999Y-64805000D02*
X200221001Y-64805000D01*
G75*
G02*
X200471000Y-65054999I0J-249999D01*
G01*
X200471000Y-65755001D01*
G75*
G02*
X200221001Y-66005000I-249999J0D01*
G01*
X199320999Y-66005000D01*
G75*
G02*
X199071000Y-65755001I0J249999D01*
G01*
X199071000Y-65054999D01*
G75*
G02*
X199320999Y-64805000I249999J0D01*
G01*
G37*
%TD*%
%TO.C,R40*%
G36*
G01*
X202495999Y-64805000D02*
X203396001Y-64805000D01*
G75*
G02*
X203646000Y-65054999I0J-249999D01*
G01*
X203646000Y-65755001D01*
G75*
G02*
X203396001Y-66005000I-249999J0D01*
G01*
X202495999Y-66005000D01*
G75*
G02*
X202246000Y-65755001I0J249999D01*
G01*
X202246000Y-65054999D01*
G75*
G02*
X202495999Y-64805000I249999J0D01*
G01*
G37*
G36*
G01*
X202495999Y-62805000D02*
X203396001Y-62805000D01*
G75*
G02*
X203646000Y-63054999I0J-249999D01*
G01*
X203646000Y-63755001D01*
G75*
G02*
X203396001Y-64005000I-249999J0D01*
G01*
X202495999Y-64005000D01*
G75*
G02*
X202246000Y-63755001I0J249999D01*
G01*
X202246000Y-63054999D01*
G75*
G02*
X202495999Y-62805000I249999J0D01*
G01*
G37*
%TD*%
%TO.C,R41*%
G36*
G01*
X202495999Y-88395000D02*
X203396001Y-88395000D01*
G75*
G02*
X203646000Y-88644999I0J-249999D01*
G01*
X203646000Y-89345001D01*
G75*
G02*
X203396001Y-89595000I-249999J0D01*
G01*
X202495999Y-89595000D01*
G75*
G02*
X202246000Y-89345001I0J249999D01*
G01*
X202246000Y-88644999D01*
G75*
G02*
X202495999Y-88395000I249999J0D01*
G01*
G37*
G36*
G01*
X202495999Y-86395000D02*
X203396001Y-86395000D01*
G75*
G02*
X203646000Y-86644999I0J-249999D01*
G01*
X203646000Y-87345001D01*
G75*
G02*
X203396001Y-87595000I-249999J0D01*
G01*
X202495999Y-87595000D01*
G75*
G02*
X202246000Y-87345001I0J249999D01*
G01*
X202246000Y-86644999D01*
G75*
G02*
X202495999Y-86395000I249999J0D01*
G01*
G37*
%TD*%
%TO.C,R42*%
G36*
G01*
X205035999Y-62805000D02*
X205936001Y-62805000D01*
G75*
G02*
X206186000Y-63054999I0J-249999D01*
G01*
X206186000Y-63755001D01*
G75*
G02*
X205936001Y-64005000I-249999J0D01*
G01*
X205035999Y-64005000D01*
G75*
G02*
X204786000Y-63755001I0J249999D01*
G01*
X204786000Y-63054999D01*
G75*
G02*
X205035999Y-62805000I249999J0D01*
G01*
G37*
G36*
G01*
X205035999Y-64805000D02*
X205936001Y-64805000D01*
G75*
G02*
X206186000Y-65054999I0J-249999D01*
G01*
X206186000Y-65755001D01*
G75*
G02*
X205936001Y-66005000I-249999J0D01*
G01*
X205035999Y-66005000D01*
G75*
G02*
X204786000Y-65755001I0J249999D01*
G01*
X204786000Y-65054999D01*
G75*
G02*
X205035999Y-64805000I249999J0D01*
G01*
G37*
%TD*%
%TO.C,R43*%
G36*
G01*
X205035999Y-86395000D02*
X205936001Y-86395000D01*
G75*
G02*
X206186000Y-86644999I0J-249999D01*
G01*
X206186000Y-87345001D01*
G75*
G02*
X205936001Y-87595000I-249999J0D01*
G01*
X205035999Y-87595000D01*
G75*
G02*
X204786000Y-87345001I0J249999D01*
G01*
X204786000Y-86644999D01*
G75*
G02*
X205035999Y-86395000I249999J0D01*
G01*
G37*
G36*
G01*
X205035999Y-88395000D02*
X205936001Y-88395000D01*
G75*
G02*
X206186000Y-88644999I0J-249999D01*
G01*
X206186000Y-89345001D01*
G75*
G02*
X205936001Y-89595000I-249999J0D01*
G01*
X205035999Y-89595000D01*
G75*
G02*
X204786000Y-89345001I0J249999D01*
G01*
X204786000Y-88644999D01*
G75*
G02*
X205035999Y-88395000I249999J0D01*
G01*
G37*
%TD*%
%TO.C,R44*%
G36*
G01*
X210115999Y-64805000D02*
X211016001Y-64805000D01*
G75*
G02*
X211266000Y-65054999I0J-249999D01*
G01*
X211266000Y-65755001D01*
G75*
G02*
X211016001Y-66005000I-249999J0D01*
G01*
X210115999Y-66005000D01*
G75*
G02*
X209866000Y-65755001I0J249999D01*
G01*
X209866000Y-65054999D01*
G75*
G02*
X210115999Y-64805000I249999J0D01*
G01*
G37*
G36*
G01*
X210115999Y-62805000D02*
X211016001Y-62805000D01*
G75*
G02*
X211266000Y-63054999I0J-249999D01*
G01*
X211266000Y-63755001D01*
G75*
G02*
X211016001Y-64005000I-249999J0D01*
G01*
X210115999Y-64005000D01*
G75*
G02*
X209866000Y-63755001I0J249999D01*
G01*
X209866000Y-63054999D01*
G75*
G02*
X210115999Y-62805000I249999J0D01*
G01*
G37*
%TD*%
%TO.C,R45*%
G36*
G01*
X210115999Y-88395000D02*
X211016001Y-88395000D01*
G75*
G02*
X211266000Y-88644999I0J-249999D01*
G01*
X211266000Y-89345001D01*
G75*
G02*
X211016001Y-89595000I-249999J0D01*
G01*
X210115999Y-89595000D01*
G75*
G02*
X209866000Y-89345001I0J249999D01*
G01*
X209866000Y-88644999D01*
G75*
G02*
X210115999Y-88395000I249999J0D01*
G01*
G37*
G36*
G01*
X210115999Y-86395000D02*
X211016001Y-86395000D01*
G75*
G02*
X211266000Y-86644999I0J-249999D01*
G01*
X211266000Y-87345001D01*
G75*
G02*
X211016001Y-87595000I-249999J0D01*
G01*
X210115999Y-87595000D01*
G75*
G02*
X209866000Y-87345001I0J249999D01*
G01*
X209866000Y-86644999D01*
G75*
G02*
X210115999Y-86395000I249999J0D01*
G01*
G37*
%TD*%
%TO.C,R46*%
G36*
G01*
X212655999Y-62805000D02*
X213556001Y-62805000D01*
G75*
G02*
X213806000Y-63054999I0J-249999D01*
G01*
X213806000Y-63755001D01*
G75*
G02*
X213556001Y-64005000I-249999J0D01*
G01*
X212655999Y-64005000D01*
G75*
G02*
X212406000Y-63755001I0J249999D01*
G01*
X212406000Y-63054999D01*
G75*
G02*
X212655999Y-62805000I249999J0D01*
G01*
G37*
G36*
G01*
X212655999Y-64805000D02*
X213556001Y-64805000D01*
G75*
G02*
X213806000Y-65054999I0J-249999D01*
G01*
X213806000Y-65755001D01*
G75*
G02*
X213556001Y-66005000I-249999J0D01*
G01*
X212655999Y-66005000D01*
G75*
G02*
X212406000Y-65755001I0J249999D01*
G01*
X212406000Y-65054999D01*
G75*
G02*
X212655999Y-64805000I249999J0D01*
G01*
G37*
%TD*%
%TO.C,R47*%
G36*
G01*
X212655999Y-88395000D02*
X213556001Y-88395000D01*
G75*
G02*
X213806000Y-88644999I0J-249999D01*
G01*
X213806000Y-89345001D01*
G75*
G02*
X213556001Y-89595000I-249999J0D01*
G01*
X212655999Y-89595000D01*
G75*
G02*
X212406000Y-89345001I0J249999D01*
G01*
X212406000Y-88644999D01*
G75*
G02*
X212655999Y-88395000I249999J0D01*
G01*
G37*
G36*
G01*
X212655999Y-86395000D02*
X213556001Y-86395000D01*
G75*
G02*
X213806000Y-86644999I0J-249999D01*
G01*
X213806000Y-87345001D01*
G75*
G02*
X213556001Y-87595000I-249999J0D01*
G01*
X212655999Y-87595000D01*
G75*
G02*
X212406000Y-87345001I0J249999D01*
G01*
X212406000Y-86644999D01*
G75*
G02*
X212655999Y-86395000I249999J0D01*
G01*
G37*
%TD*%
%TO.C,R48*%
G36*
G01*
X215830999Y-64805000D02*
X216731001Y-64805000D01*
G75*
G02*
X216981000Y-65054999I0J-249999D01*
G01*
X216981000Y-65755001D01*
G75*
G02*
X216731001Y-66005000I-249999J0D01*
G01*
X215830999Y-66005000D01*
G75*
G02*
X215581000Y-65755001I0J249999D01*
G01*
X215581000Y-65054999D01*
G75*
G02*
X215830999Y-64805000I249999J0D01*
G01*
G37*
G36*
G01*
X215830999Y-62805000D02*
X216731001Y-62805000D01*
G75*
G02*
X216981000Y-63054999I0J-249999D01*
G01*
X216981000Y-63755001D01*
G75*
G02*
X216731001Y-64005000I-249999J0D01*
G01*
X215830999Y-64005000D01*
G75*
G02*
X215581000Y-63755001I0J249999D01*
G01*
X215581000Y-63054999D01*
G75*
G02*
X215830999Y-62805000I249999J0D01*
G01*
G37*
%TD*%
%TO.C,R49*%
G36*
G01*
X215830999Y-86395000D02*
X216731001Y-86395000D01*
G75*
G02*
X216981000Y-86644999I0J-249999D01*
G01*
X216981000Y-87345001D01*
G75*
G02*
X216731001Y-87595000I-249999J0D01*
G01*
X215830999Y-87595000D01*
G75*
G02*
X215581000Y-87345001I0J249999D01*
G01*
X215581000Y-86644999D01*
G75*
G02*
X215830999Y-86395000I249999J0D01*
G01*
G37*
G36*
G01*
X215830999Y-88395000D02*
X216731001Y-88395000D01*
G75*
G02*
X216981000Y-88644999I0J-249999D01*
G01*
X216981000Y-89345001D01*
G75*
G02*
X216731001Y-89595000I-249999J0D01*
G01*
X215830999Y-89595000D01*
G75*
G02*
X215581000Y-89345001I0J249999D01*
G01*
X215581000Y-88644999D01*
G75*
G02*
X215830999Y-88395000I249999J0D01*
G01*
G37*
%TD*%
%TO.C,R50*%
G36*
G01*
X218370999Y-62805000D02*
X219271001Y-62805000D01*
G75*
G02*
X219521000Y-63054999I0J-249999D01*
G01*
X219521000Y-63755001D01*
G75*
G02*
X219271001Y-64005000I-249999J0D01*
G01*
X218370999Y-64005000D01*
G75*
G02*
X218121000Y-63755001I0J249999D01*
G01*
X218121000Y-63054999D01*
G75*
G02*
X218370999Y-62805000I249999J0D01*
G01*
G37*
G36*
G01*
X218370999Y-64805000D02*
X219271001Y-64805000D01*
G75*
G02*
X219521000Y-65054999I0J-249999D01*
G01*
X219521000Y-65755001D01*
G75*
G02*
X219271001Y-66005000I-249999J0D01*
G01*
X218370999Y-66005000D01*
G75*
G02*
X218121000Y-65755001I0J249999D01*
G01*
X218121000Y-65054999D01*
G75*
G02*
X218370999Y-64805000I249999J0D01*
G01*
G37*
%TD*%
%TO.C,R51*%
G36*
G01*
X218370999Y-88395000D02*
X219271001Y-88395000D01*
G75*
G02*
X219521000Y-88644999I0J-249999D01*
G01*
X219521000Y-89345001D01*
G75*
G02*
X219271001Y-89595000I-249999J0D01*
G01*
X218370999Y-89595000D01*
G75*
G02*
X218121000Y-89345001I0J249999D01*
G01*
X218121000Y-88644999D01*
G75*
G02*
X218370999Y-88395000I249999J0D01*
G01*
G37*
G36*
G01*
X218370999Y-86395000D02*
X219271001Y-86395000D01*
G75*
G02*
X219521000Y-86644999I0J-249999D01*
G01*
X219521000Y-87345001D01*
G75*
G02*
X219271001Y-87595000I-249999J0D01*
G01*
X218370999Y-87595000D01*
G75*
G02*
X218121000Y-87345001I0J249999D01*
G01*
X218121000Y-86644999D01*
G75*
G02*
X218370999Y-86395000I249999J0D01*
G01*
G37*
%TD*%
%TO.C,R52*%
G36*
G01*
X223450999Y-62805000D02*
X224351001Y-62805000D01*
G75*
G02*
X224601000Y-63054999I0J-249999D01*
G01*
X224601000Y-63755001D01*
G75*
G02*
X224351001Y-64005000I-249999J0D01*
G01*
X223450999Y-64005000D01*
G75*
G02*
X223201000Y-63755001I0J249999D01*
G01*
X223201000Y-63054999D01*
G75*
G02*
X223450999Y-62805000I249999J0D01*
G01*
G37*
G36*
G01*
X223450999Y-64805000D02*
X224351001Y-64805000D01*
G75*
G02*
X224601000Y-65054999I0J-249999D01*
G01*
X224601000Y-65755001D01*
G75*
G02*
X224351001Y-66005000I-249999J0D01*
G01*
X223450999Y-66005000D01*
G75*
G02*
X223201000Y-65755001I0J249999D01*
G01*
X223201000Y-65054999D01*
G75*
G02*
X223450999Y-64805000I249999J0D01*
G01*
G37*
%TD*%
%TO.C,R53*%
G36*
G01*
X223450999Y-86395000D02*
X224351001Y-86395000D01*
G75*
G02*
X224601000Y-86644999I0J-249999D01*
G01*
X224601000Y-87345001D01*
G75*
G02*
X224351001Y-87595000I-249999J0D01*
G01*
X223450999Y-87595000D01*
G75*
G02*
X223201000Y-87345001I0J249999D01*
G01*
X223201000Y-86644999D01*
G75*
G02*
X223450999Y-86395000I249999J0D01*
G01*
G37*
G36*
G01*
X223450999Y-88395000D02*
X224351001Y-88395000D01*
G75*
G02*
X224601000Y-88644999I0J-249999D01*
G01*
X224601000Y-89345001D01*
G75*
G02*
X224351001Y-89595000I-249999J0D01*
G01*
X223450999Y-89595000D01*
G75*
G02*
X223201000Y-89345001I0J249999D01*
G01*
X223201000Y-88644999D01*
G75*
G02*
X223450999Y-88395000I249999J0D01*
G01*
G37*
%TD*%
%TO.C,R54*%
G36*
G01*
X225990999Y-62805000D02*
X226891001Y-62805000D01*
G75*
G02*
X227141000Y-63054999I0J-249999D01*
G01*
X227141000Y-63755001D01*
G75*
G02*
X226891001Y-64005000I-249999J0D01*
G01*
X225990999Y-64005000D01*
G75*
G02*
X225741000Y-63755001I0J249999D01*
G01*
X225741000Y-63054999D01*
G75*
G02*
X225990999Y-62805000I249999J0D01*
G01*
G37*
G36*
G01*
X225990999Y-64805000D02*
X226891001Y-64805000D01*
G75*
G02*
X227141000Y-65054999I0J-249999D01*
G01*
X227141000Y-65755001D01*
G75*
G02*
X226891001Y-66005000I-249999J0D01*
G01*
X225990999Y-66005000D01*
G75*
G02*
X225741000Y-65755001I0J249999D01*
G01*
X225741000Y-65054999D01*
G75*
G02*
X225990999Y-64805000I249999J0D01*
G01*
G37*
%TD*%
%TO.C,R55*%
G36*
G01*
X229800999Y-64805000D02*
X230701001Y-64805000D01*
G75*
G02*
X230951000Y-65054999I0J-249999D01*
G01*
X230951000Y-65755001D01*
G75*
G02*
X230701001Y-66005000I-249999J0D01*
G01*
X229800999Y-66005000D01*
G75*
G02*
X229551000Y-65755001I0J249999D01*
G01*
X229551000Y-65054999D01*
G75*
G02*
X229800999Y-64805000I249999J0D01*
G01*
G37*
G36*
G01*
X229800999Y-62805000D02*
X230701001Y-62805000D01*
G75*
G02*
X230951000Y-63054999I0J-249999D01*
G01*
X230951000Y-63755001D01*
G75*
G02*
X230701001Y-64005000I-249999J0D01*
G01*
X229800999Y-64005000D01*
G75*
G02*
X229551000Y-63755001I0J249999D01*
G01*
X229551000Y-63054999D01*
G75*
G02*
X229800999Y-62805000I249999J0D01*
G01*
G37*
%TD*%
%TO.C,R56*%
G36*
G01*
X229800999Y-88395000D02*
X230701001Y-88395000D01*
G75*
G02*
X230951000Y-88644999I0J-249999D01*
G01*
X230951000Y-89345001D01*
G75*
G02*
X230701001Y-89595000I-249999J0D01*
G01*
X229800999Y-89595000D01*
G75*
G02*
X229551000Y-89345001I0J249999D01*
G01*
X229551000Y-88644999D01*
G75*
G02*
X229800999Y-88395000I249999J0D01*
G01*
G37*
G36*
G01*
X229800999Y-86395000D02*
X230701001Y-86395000D01*
G75*
G02*
X230951000Y-86644999I0J-249999D01*
G01*
X230951000Y-87345001D01*
G75*
G02*
X230701001Y-87595000I-249999J0D01*
G01*
X229800999Y-87595000D01*
G75*
G02*
X229551000Y-87345001I0J249999D01*
G01*
X229551000Y-86644999D01*
G75*
G02*
X229800999Y-86395000I249999J0D01*
G01*
G37*
%TD*%
%TO.C,R57*%
G36*
G01*
X232340999Y-62805000D02*
X233241001Y-62805000D01*
G75*
G02*
X233491000Y-63054999I0J-249999D01*
G01*
X233491000Y-63755001D01*
G75*
G02*
X233241001Y-64005000I-249999J0D01*
G01*
X232340999Y-64005000D01*
G75*
G02*
X232091000Y-63755001I0J249999D01*
G01*
X232091000Y-63054999D01*
G75*
G02*
X232340999Y-62805000I249999J0D01*
G01*
G37*
G36*
G01*
X232340999Y-64805000D02*
X233241001Y-64805000D01*
G75*
G02*
X233491000Y-65054999I0J-249999D01*
G01*
X233491000Y-65755001D01*
G75*
G02*
X233241001Y-66005000I-249999J0D01*
G01*
X232340999Y-66005000D01*
G75*
G02*
X232091000Y-65755001I0J249999D01*
G01*
X232091000Y-65054999D01*
G75*
G02*
X232340999Y-64805000I249999J0D01*
G01*
G37*
%TD*%
%TO.C,R58*%
G36*
G01*
X232340999Y-86395000D02*
X233241001Y-86395000D01*
G75*
G02*
X233491000Y-86644999I0J-249999D01*
G01*
X233491000Y-87345001D01*
G75*
G02*
X233241001Y-87595000I-249999J0D01*
G01*
X232340999Y-87595000D01*
G75*
G02*
X232091000Y-87345001I0J249999D01*
G01*
X232091000Y-86644999D01*
G75*
G02*
X232340999Y-86395000I249999J0D01*
G01*
G37*
G36*
G01*
X232340999Y-88395000D02*
X233241001Y-88395000D01*
G75*
G02*
X233491000Y-88644999I0J-249999D01*
G01*
X233491000Y-89345001D01*
G75*
G02*
X233241001Y-89595000I-249999J0D01*
G01*
X232340999Y-89595000D01*
G75*
G02*
X232091000Y-89345001I0J249999D01*
G01*
X232091000Y-88644999D01*
G75*
G02*
X232340999Y-88395000I249999J0D01*
G01*
G37*
%TD*%
%TO.C,R59*%
G36*
G01*
X237420999Y-62805000D02*
X238321001Y-62805000D01*
G75*
G02*
X238571000Y-63054999I0J-249999D01*
G01*
X238571000Y-63755001D01*
G75*
G02*
X238321001Y-64005000I-249999J0D01*
G01*
X237420999Y-64005000D01*
G75*
G02*
X237171000Y-63755001I0J249999D01*
G01*
X237171000Y-63054999D01*
G75*
G02*
X237420999Y-62805000I249999J0D01*
G01*
G37*
G36*
G01*
X237420999Y-64805000D02*
X238321001Y-64805000D01*
G75*
G02*
X238571000Y-65054999I0J-249999D01*
G01*
X238571000Y-65755001D01*
G75*
G02*
X238321001Y-66005000I-249999J0D01*
G01*
X237420999Y-66005000D01*
G75*
G02*
X237171000Y-65755001I0J249999D01*
G01*
X237171000Y-65054999D01*
G75*
G02*
X237420999Y-64805000I249999J0D01*
G01*
G37*
%TD*%
%TO.C,R60*%
G36*
G01*
X237420999Y-88395000D02*
X238321001Y-88395000D01*
G75*
G02*
X238571000Y-88644999I0J-249999D01*
G01*
X238571000Y-89345001D01*
G75*
G02*
X238321001Y-89595000I-249999J0D01*
G01*
X237420999Y-89595000D01*
G75*
G02*
X237171000Y-89345001I0J249999D01*
G01*
X237171000Y-88644999D01*
G75*
G02*
X237420999Y-88395000I249999J0D01*
G01*
G37*
G36*
G01*
X237420999Y-86395000D02*
X238321001Y-86395000D01*
G75*
G02*
X238571000Y-86644999I0J-249999D01*
G01*
X238571000Y-87345001D01*
G75*
G02*
X238321001Y-87595000I-249999J0D01*
G01*
X237420999Y-87595000D01*
G75*
G02*
X237171000Y-87345001I0J249999D01*
G01*
X237171000Y-86644999D01*
G75*
G02*
X237420999Y-86395000I249999J0D01*
G01*
G37*
%TD*%
%TO.C,R61*%
G36*
G01*
X239960999Y-64805000D02*
X240861001Y-64805000D01*
G75*
G02*
X241111000Y-65054999I0J-249999D01*
G01*
X241111000Y-65755001D01*
G75*
G02*
X240861001Y-66005000I-249999J0D01*
G01*
X239960999Y-66005000D01*
G75*
G02*
X239711000Y-65755001I0J249999D01*
G01*
X239711000Y-65054999D01*
G75*
G02*
X239960999Y-64805000I249999J0D01*
G01*
G37*
G36*
G01*
X239960999Y-62805000D02*
X240861001Y-62805000D01*
G75*
G02*
X241111000Y-63054999I0J-249999D01*
G01*
X241111000Y-63755001D01*
G75*
G02*
X240861001Y-64005000I-249999J0D01*
G01*
X239960999Y-64005000D01*
G75*
G02*
X239711000Y-63755001I0J249999D01*
G01*
X239711000Y-63054999D01*
G75*
G02*
X239960999Y-62805000I249999J0D01*
G01*
G37*
%TD*%
%TO.C,R62*%
G36*
G01*
X242754999Y-62805000D02*
X243655001Y-62805000D01*
G75*
G02*
X243905000Y-63054999I0J-249999D01*
G01*
X243905000Y-63755001D01*
G75*
G02*
X243655001Y-64005000I-249999J0D01*
G01*
X242754999Y-64005000D01*
G75*
G02*
X242505000Y-63755001I0J249999D01*
G01*
X242505000Y-63054999D01*
G75*
G02*
X242754999Y-62805000I249999J0D01*
G01*
G37*
G36*
G01*
X242754999Y-64805000D02*
X243655001Y-64805000D01*
G75*
G02*
X243905000Y-65054999I0J-249999D01*
G01*
X243905000Y-65755001D01*
G75*
G02*
X243655001Y-66005000I-249999J0D01*
G01*
X242754999Y-66005000D01*
G75*
G02*
X242505000Y-65755001I0J249999D01*
G01*
X242505000Y-65054999D01*
G75*
G02*
X242754999Y-64805000I249999J0D01*
G01*
G37*
%TD*%
%TO.C,R63*%
G36*
G01*
X242754999Y-86395000D02*
X243655001Y-86395000D01*
G75*
G02*
X243905000Y-86644999I0J-249999D01*
G01*
X243905000Y-87345001D01*
G75*
G02*
X243655001Y-87595000I-249999J0D01*
G01*
X242754999Y-87595000D01*
G75*
G02*
X242505000Y-87345001I0J249999D01*
G01*
X242505000Y-86644999D01*
G75*
G02*
X242754999Y-86395000I249999J0D01*
G01*
G37*
G36*
G01*
X242754999Y-88395000D02*
X243655001Y-88395000D01*
G75*
G02*
X243905000Y-88644999I0J-249999D01*
G01*
X243905000Y-89345001D01*
G75*
G02*
X243655001Y-89595000I-249999J0D01*
G01*
X242754999Y-89595000D01*
G75*
G02*
X242505000Y-89345001I0J249999D01*
G01*
X242505000Y-88644999D01*
G75*
G02*
X242754999Y-88395000I249999J0D01*
G01*
G37*
%TD*%
%TO.C,R64*%
G36*
G01*
X245294999Y-64805000D02*
X246195001Y-64805000D01*
G75*
G02*
X246445000Y-65054999I0J-249999D01*
G01*
X246445000Y-65755001D01*
G75*
G02*
X246195001Y-66005000I-249999J0D01*
G01*
X245294999Y-66005000D01*
G75*
G02*
X245045000Y-65755001I0J249999D01*
G01*
X245045000Y-65054999D01*
G75*
G02*
X245294999Y-64805000I249999J0D01*
G01*
G37*
G36*
G01*
X245294999Y-62805000D02*
X246195001Y-62805000D01*
G75*
G02*
X246445000Y-63054999I0J-249999D01*
G01*
X246445000Y-63755001D01*
G75*
G02*
X246195001Y-64005000I-249999J0D01*
G01*
X245294999Y-64005000D01*
G75*
G02*
X245045000Y-63755001I0J249999D01*
G01*
X245045000Y-63054999D01*
G75*
G02*
X245294999Y-62805000I249999J0D01*
G01*
G37*
%TD*%
%TO.C,R65*%
G36*
G01*
X245294999Y-88395000D02*
X246195001Y-88395000D01*
G75*
G02*
X246445000Y-88644999I0J-249999D01*
G01*
X246445000Y-89345001D01*
G75*
G02*
X246195001Y-89595000I-249999J0D01*
G01*
X245294999Y-89595000D01*
G75*
G02*
X245045000Y-89345001I0J249999D01*
G01*
X245045000Y-88644999D01*
G75*
G02*
X245294999Y-88395000I249999J0D01*
G01*
G37*
G36*
G01*
X245294999Y-86395000D02*
X246195001Y-86395000D01*
G75*
G02*
X246445000Y-86644999I0J-249999D01*
G01*
X246445000Y-87345001D01*
G75*
G02*
X246195001Y-87595000I-249999J0D01*
G01*
X245294999Y-87595000D01*
G75*
G02*
X245045000Y-87345001I0J249999D01*
G01*
X245045000Y-86644999D01*
G75*
G02*
X245294999Y-86395000I249999J0D01*
G01*
G37*
%TD*%
%TO.C,R66*%
G36*
G01*
X250374999Y-62805000D02*
X251275001Y-62805000D01*
G75*
G02*
X251525000Y-63054999I0J-249999D01*
G01*
X251525000Y-63755001D01*
G75*
G02*
X251275001Y-64005000I-249999J0D01*
G01*
X250374999Y-64005000D01*
G75*
G02*
X250125000Y-63755001I0J249999D01*
G01*
X250125000Y-63054999D01*
G75*
G02*
X250374999Y-62805000I249999J0D01*
G01*
G37*
G36*
G01*
X250374999Y-64805000D02*
X251275001Y-64805000D01*
G75*
G02*
X251525000Y-65054999I0J-249999D01*
G01*
X251525000Y-65755001D01*
G75*
G02*
X251275001Y-66005000I-249999J0D01*
G01*
X250374999Y-66005000D01*
G75*
G02*
X250125000Y-65755001I0J249999D01*
G01*
X250125000Y-65054999D01*
G75*
G02*
X250374999Y-64805000I249999J0D01*
G01*
G37*
%TD*%
%TO.C,R67*%
G36*
G01*
X250374999Y-86395000D02*
X251275001Y-86395000D01*
G75*
G02*
X251525000Y-86644999I0J-249999D01*
G01*
X251525000Y-87345001D01*
G75*
G02*
X251275001Y-87595000I-249999J0D01*
G01*
X250374999Y-87595000D01*
G75*
G02*
X250125000Y-87345001I0J249999D01*
G01*
X250125000Y-86644999D01*
G75*
G02*
X250374999Y-86395000I249999J0D01*
G01*
G37*
G36*
G01*
X250374999Y-88395000D02*
X251275001Y-88395000D01*
G75*
G02*
X251525000Y-88644999I0J-249999D01*
G01*
X251525000Y-89345001D01*
G75*
G02*
X251275001Y-89595000I-249999J0D01*
G01*
X250374999Y-89595000D01*
G75*
G02*
X250125000Y-89345001I0J249999D01*
G01*
X250125000Y-88644999D01*
G75*
G02*
X250374999Y-88395000I249999J0D01*
G01*
G37*
%TD*%
%TO.C,R68*%
G36*
G01*
X252914999Y-64805000D02*
X253815001Y-64805000D01*
G75*
G02*
X254065000Y-65054999I0J-249999D01*
G01*
X254065000Y-65755001D01*
G75*
G02*
X253815001Y-66005000I-249999J0D01*
G01*
X252914999Y-66005000D01*
G75*
G02*
X252665000Y-65755001I0J249999D01*
G01*
X252665000Y-65054999D01*
G75*
G02*
X252914999Y-64805000I249999J0D01*
G01*
G37*
G36*
G01*
X252914999Y-62805000D02*
X253815001Y-62805000D01*
G75*
G02*
X254065000Y-63054999I0J-249999D01*
G01*
X254065000Y-63755001D01*
G75*
G02*
X253815001Y-64005000I-249999J0D01*
G01*
X252914999Y-64005000D01*
G75*
G02*
X252665000Y-63755001I0J249999D01*
G01*
X252665000Y-63054999D01*
G75*
G02*
X252914999Y-62805000I249999J0D01*
G01*
G37*
%TD*%
%TO.C,R69*%
G36*
G01*
X258842500Y-68012500D02*
X259317500Y-68012500D01*
G75*
G02*
X259555000Y-68250000I0J-237500D01*
G01*
X259555000Y-68750000D01*
G75*
G02*
X259317500Y-68987500I-237500J0D01*
G01*
X258842500Y-68987500D01*
G75*
G02*
X258605000Y-68750000I0J237500D01*
G01*
X258605000Y-68250000D01*
G75*
G02*
X258842500Y-68012500I237500J0D01*
G01*
G37*
G36*
G01*
X258842500Y-66187500D02*
X259317500Y-66187500D01*
G75*
G02*
X259555000Y-66425000I0J-237500D01*
G01*
X259555000Y-66925000D01*
G75*
G02*
X259317500Y-67162500I-237500J0D01*
G01*
X258842500Y-67162500D01*
G75*
G02*
X258605000Y-66925000I0J237500D01*
G01*
X258605000Y-66425000D01*
G75*
G02*
X258842500Y-66187500I237500J0D01*
G01*
G37*
%TD*%
%TO.C,R70*%
G36*
G01*
X258842500Y-82062500D02*
X259317500Y-82062500D01*
G75*
G02*
X259555000Y-82300000I0J-237500D01*
G01*
X259555000Y-82800000D01*
G75*
G02*
X259317500Y-83037500I-237500J0D01*
G01*
X258842500Y-83037500D01*
G75*
G02*
X258605000Y-82800000I0J237500D01*
G01*
X258605000Y-82300000D01*
G75*
G02*
X258842500Y-82062500I237500J0D01*
G01*
G37*
G36*
G01*
X258842500Y-83887500D02*
X259317500Y-83887500D01*
G75*
G02*
X259555000Y-84125000I0J-237500D01*
G01*
X259555000Y-84625000D01*
G75*
G02*
X259317500Y-84862500I-237500J0D01*
G01*
X258842500Y-84862500D01*
G75*
G02*
X258605000Y-84625000I0J237500D01*
G01*
X258605000Y-84125000D01*
G75*
G02*
X258842500Y-83887500I237500J0D01*
G01*
G37*
%TD*%
%TO.C,R71*%
G36*
G01*
X258842500Y-97937500D02*
X259317500Y-97937500D01*
G75*
G02*
X259555000Y-98175000I0J-237500D01*
G01*
X259555000Y-98675000D01*
G75*
G02*
X259317500Y-98912500I-237500J0D01*
G01*
X258842500Y-98912500D01*
G75*
G02*
X258605000Y-98675000I0J237500D01*
G01*
X258605000Y-98175000D01*
G75*
G02*
X258842500Y-97937500I237500J0D01*
G01*
G37*
G36*
G01*
X258842500Y-99762500D02*
X259317500Y-99762500D01*
G75*
G02*
X259555000Y-100000000I0J-237500D01*
G01*
X259555000Y-100500000D01*
G75*
G02*
X259317500Y-100737500I-237500J0D01*
G01*
X258842500Y-100737500D01*
G75*
G02*
X258605000Y-100500000I0J237500D01*
G01*
X258605000Y-100000000D01*
G75*
G02*
X258842500Y-99762500I237500J0D01*
G01*
G37*
%TD*%
%TO.C,R72*%
G36*
G01*
X254670000Y-53790001D02*
X254670000Y-52889999D01*
G75*
G02*
X254919999Y-52640000I249999J0D01*
G01*
X255620001Y-52640000D01*
G75*
G02*
X255870000Y-52889999I0J-249999D01*
G01*
X255870000Y-53790001D01*
G75*
G02*
X255620001Y-54040000I-249999J0D01*
G01*
X254919999Y-54040000D01*
G75*
G02*
X254670000Y-53790001I0J249999D01*
G01*
G37*
G36*
G01*
X256670000Y-53790001D02*
X256670000Y-52889999D01*
G75*
G02*
X256919999Y-52640000I249999J0D01*
G01*
X257620001Y-52640000D01*
G75*
G02*
X257870000Y-52889999I0J-249999D01*
G01*
X257870000Y-53790001D01*
G75*
G02*
X257620001Y-54040000I-249999J0D01*
G01*
X256919999Y-54040000D01*
G75*
G02*
X256670000Y-53790001I0J249999D01*
G01*
G37*
%TD*%
M02*
