%TF.GenerationSoftware,KiCad,Pcbnew,(5.1.9)-1*%
%TF.CreationDate,2021-02-03T14:21:07-06:00*%
%TF.ProjectId,GPS_Clock_Ver2,4750535f-436c-46f6-936b-5f566572322e,rev?*%
%TF.SameCoordinates,Original*%
%TF.FileFunction,Soldermask,Bot*%
%TF.FilePolarity,Negative*%
%FSLAX46Y46*%
G04 Gerber Fmt 4.6, Leading zero omitted, Abs format (unit mm)*
G04 Created by KiCad (PCBNEW (5.1.9)-1) date 2021-02-03 14:21:07*
%MOMM*%
%LPD*%
G01*
G04 APERTURE LIST*
%ADD10R,1.700000X1.700000*%
%ADD11O,1.700000X1.700000*%
%ADD12C,1.275000*%
%ADD13R,1.275000X1.275000*%
%ADD14C,1.800000*%
%ADD15R,1.800000X1.800000*%
%ADD16C,1.500000*%
G04 APERTURE END LIST*
D10*
%TO.C,J3*%
X110490000Y-92710000D03*
D11*
X113030000Y-92710000D03*
X110490000Y-90170000D03*
X113030000Y-90170000D03*
X110490000Y-87630000D03*
X113030000Y-87630000D03*
X110490000Y-85090000D03*
X113030000Y-85090000D03*
X110490000Y-82550000D03*
X113030000Y-82550000D03*
X110490000Y-80010000D03*
X113030000Y-80010000D03*
X110490000Y-77470000D03*
X113030000Y-77470000D03*
X110490000Y-74930000D03*
X113030000Y-74930000D03*
X110490000Y-72390000D03*
X113030000Y-72390000D03*
X110490000Y-69850000D03*
X113030000Y-69850000D03*
X110490000Y-67310000D03*
X113030000Y-67310000D03*
X110490000Y-64770000D03*
X113030000Y-64770000D03*
X110490000Y-62230000D03*
X113030000Y-62230000D03*
X110490000Y-59690000D03*
X113030000Y-59690000D03*
%TD*%
D12*
%TO.C,DS1*%
X120606001Y-68463001D03*
X123146001Y-68463001D03*
X125686001Y-68463001D03*
X128226001Y-68463001D03*
X130766001Y-68463001D03*
X130766001Y-83703001D03*
X128226001Y-83703001D03*
X125686001Y-83703001D03*
X123146001Y-83703001D03*
D13*
X120606001Y-83703001D03*
%TD*%
%TO.C,DS2*%
X134071001Y-83703001D03*
D12*
X136611001Y-83703001D03*
X139151001Y-83703001D03*
X141691001Y-83703001D03*
X144231001Y-83703001D03*
X144231001Y-68463001D03*
X141691001Y-68463001D03*
X139151001Y-68463001D03*
X136611001Y-68463001D03*
X134071001Y-68463001D03*
%TD*%
%TO.C,DS3*%
X155194000Y-68453000D03*
X157734000Y-68453000D03*
X160274000Y-68453000D03*
X162814000Y-68453000D03*
X165354000Y-68453000D03*
X165354000Y-83693000D03*
X162814000Y-83693000D03*
X160274000Y-83693000D03*
X157734000Y-83693000D03*
D13*
X155194000Y-83693000D03*
%TD*%
%TO.C,DS4*%
X168656000Y-83693000D03*
D12*
X171196000Y-83693000D03*
X173736000Y-83693000D03*
X176276000Y-83693000D03*
X178816000Y-83693000D03*
X178816000Y-68453000D03*
X176276000Y-68453000D03*
X173736000Y-68453000D03*
X171196000Y-68453000D03*
X168656000Y-68453000D03*
%TD*%
%TO.C,DS5*%
X189738000Y-68453000D03*
X192278000Y-68453000D03*
X194818000Y-68453000D03*
X197358000Y-68453000D03*
X199898000Y-68453000D03*
X199898000Y-83693000D03*
X197358000Y-83693000D03*
X194818000Y-83693000D03*
X192278000Y-83693000D03*
D13*
X189738000Y-83693000D03*
%TD*%
%TO.C,DS6*%
X203200000Y-83693000D03*
D12*
X205740000Y-83693000D03*
X208280000Y-83693000D03*
X210820000Y-83693000D03*
X213360000Y-83693000D03*
X213360000Y-68453000D03*
X210820000Y-68453000D03*
X208280000Y-68453000D03*
X205740000Y-68453000D03*
X203200000Y-68453000D03*
%TD*%
%TO.C,DS7*%
X216662000Y-68453000D03*
X219202000Y-68453000D03*
X221742000Y-68453000D03*
X224282000Y-68453000D03*
X226822000Y-68453000D03*
X226822000Y-83693000D03*
X224282000Y-83693000D03*
X221742000Y-83693000D03*
X219202000Y-83693000D03*
D13*
X216662000Y-83693000D03*
%TD*%
%TO.C,DS8*%
X230124000Y-83693000D03*
D12*
X232664000Y-83693000D03*
X235204000Y-83693000D03*
X237744000Y-83693000D03*
X240284000Y-83693000D03*
X240284000Y-68453000D03*
X237744000Y-68453000D03*
X235204000Y-68453000D03*
X232664000Y-68453000D03*
X230124000Y-68453000D03*
%TD*%
%TO.C,DS9*%
X243586000Y-68453000D03*
X246126000Y-68453000D03*
X248666000Y-68453000D03*
X251206000Y-68453000D03*
X253746000Y-68453000D03*
X253746000Y-83693000D03*
X251206000Y-83693000D03*
X248666000Y-83693000D03*
X246126000Y-83693000D03*
D13*
X243586000Y-83693000D03*
%TD*%
D10*
%TO.C,J1*%
X176530000Y-100330000D03*
D11*
X176530000Y-97790000D03*
X173990000Y-100330000D03*
X173990000Y-97790000D03*
%TD*%
D10*
%TO.C,J2*%
X166370000Y-54610000D03*
D11*
X166370000Y-52070000D03*
X163830000Y-54610000D03*
X163830000Y-52070000D03*
X161290000Y-54610000D03*
X161290000Y-52070000D03*
X158750000Y-54610000D03*
X158750000Y-52070000D03*
X156210000Y-54610000D03*
X156210000Y-52070000D03*
X153670000Y-54610000D03*
X153670000Y-52070000D03*
X151130000Y-54610000D03*
X151130000Y-52070000D03*
X148590000Y-54610000D03*
X148590000Y-52070000D03*
X146050000Y-54610000D03*
X146050000Y-52070000D03*
X143510000Y-54610000D03*
X143510000Y-52070000D03*
X140970000Y-54610000D03*
X140970000Y-52070000D03*
X138430000Y-54610000D03*
X138430000Y-52070000D03*
X135890000Y-54610000D03*
X135890000Y-52070000D03*
X133350000Y-54610000D03*
X133350000Y-52070000D03*
X130810000Y-54610000D03*
X130810000Y-52070000D03*
X128270000Y-54610000D03*
X128270000Y-52070000D03*
X125730000Y-54610000D03*
X125730000Y-52070000D03*
X123190000Y-54610000D03*
X123190000Y-52070000D03*
X120650000Y-54610000D03*
X120650000Y-52070000D03*
X118110000Y-54610000D03*
X118110000Y-52070000D03*
%TD*%
%TO.C,J4*%
X118110000Y-97790000D03*
X118110000Y-100330000D03*
X120650000Y-97790000D03*
X120650000Y-100330000D03*
X123190000Y-97790000D03*
X123190000Y-100330000D03*
X125730000Y-97790000D03*
X125730000Y-100330000D03*
X128270000Y-97790000D03*
X128270000Y-100330000D03*
X130810000Y-97790000D03*
X130810000Y-100330000D03*
X133350000Y-97790000D03*
X133350000Y-100330000D03*
X135890000Y-97790000D03*
X135890000Y-100330000D03*
X138430000Y-97790000D03*
X138430000Y-100330000D03*
X140970000Y-97790000D03*
X140970000Y-100330000D03*
X143510000Y-97790000D03*
X143510000Y-100330000D03*
X146050000Y-97790000D03*
X146050000Y-100330000D03*
X148590000Y-97790000D03*
X148590000Y-100330000D03*
X151130000Y-97790000D03*
X151130000Y-100330000D03*
X153670000Y-97790000D03*
X153670000Y-100330000D03*
X156210000Y-97790000D03*
X156210000Y-100330000D03*
X158750000Y-97790000D03*
X158750000Y-100330000D03*
X161290000Y-97790000D03*
X161290000Y-100330000D03*
X163830000Y-97790000D03*
X163830000Y-100330000D03*
X166370000Y-97790000D03*
D10*
X166370000Y-100330000D03*
%TD*%
D14*
%TO.C,D1*%
X151130000Y-72390000D03*
D15*
X148590000Y-72390000D03*
%TD*%
%TO.C,D2*%
X148590000Y-79375000D03*
D14*
X151130000Y-79375000D03*
%TD*%
%TO.C,D3*%
X185420000Y-72390000D03*
D15*
X182880000Y-72390000D03*
%TD*%
%TO.C,D4*%
X182880000Y-79375000D03*
D14*
X185420000Y-79375000D03*
%TD*%
D10*
%TO.C,J5*%
X204470000Y-55245000D03*
D11*
X201930000Y-55245000D03*
X199390000Y-55245000D03*
X196850000Y-55245000D03*
X194310000Y-55245000D03*
%TD*%
D16*
%TO.C,S1*%
X263235000Y-57710000D03*
X263235000Y-64210000D03*
X258735000Y-57710000D03*
X258735000Y-64210000D03*
%TD*%
%TO.C,S2*%
X258735000Y-80085000D03*
X258735000Y-73585000D03*
X263235000Y-80085000D03*
X263235000Y-73585000D03*
%TD*%
%TO.C,S3*%
X263235000Y-89460000D03*
X263235000Y-95960000D03*
X258735000Y-89460000D03*
X258735000Y-95960000D03*
%TD*%
D15*
%TO.C,D5*%
X262255000Y-53340000D03*
D14*
X259715000Y-53340000D03*
%TD*%
M02*
