%TF.GenerationSoftware,KiCad,Pcbnew,(5.1.9)-1*%
%TF.CreationDate,2021-02-04T20:28:27-06:00*%
%TF.ProjectId,Intel_10M02SCE144_Breakout_Board,496e7465-6c5f-4313-904d-303253434531,rev?*%
%TF.SameCoordinates,Original*%
%TF.FileFunction,Soldermask,Bot*%
%TF.FilePolarity,Negative*%
%FSLAX46Y46*%
G04 Gerber Fmt 4.6, Leading zero omitted, Abs format (unit mm)*
G04 Created by KiCad (PCBNEW (5.1.9)-1) date 2021-02-04 20:28:27*
%MOMM*%
%LPD*%
G01*
G04 APERTURE LIST*
%ADD10C,1.200000*%
%ADD11R,1.200000X1.200000*%
%ADD12C,1.800000*%
%ADD13R,1.800000X1.800000*%
%ADD14R,1.700000X1.700000*%
%ADD15O,1.700000X1.700000*%
%ADD16C,1.500000*%
%ADD17C,3.200000*%
%ADD18O,2.100000X1.000000*%
%ADD19C,1.100000*%
G04 APERTURE END LIST*
D10*
%TO.C,C1*%
X104870000Y-115570000D03*
D11*
X102870000Y-115570000D03*
%TD*%
%TO.C,C2*%
X108490000Y-115570000D03*
D10*
X110490000Y-115570000D03*
%TD*%
%TO.C,C4*%
G36*
G01*
X149609000Y-105807500D02*
X149609000Y-106282500D01*
G75*
G02*
X149371500Y-106520000I-237500J0D01*
G01*
X148771500Y-106520000D01*
G75*
G02*
X148534000Y-106282500I0J237500D01*
G01*
X148534000Y-105807500D01*
G75*
G02*
X148771500Y-105570000I237500J0D01*
G01*
X149371500Y-105570000D01*
G75*
G02*
X149609000Y-105807500I0J-237500D01*
G01*
G37*
G36*
G01*
X147884000Y-105807500D02*
X147884000Y-106282500D01*
G75*
G02*
X147646500Y-106520000I-237500J0D01*
G01*
X147046500Y-106520000D01*
G75*
G02*
X146809000Y-106282500I0J237500D01*
G01*
X146809000Y-105807500D01*
G75*
G02*
X147046500Y-105570000I237500J0D01*
G01*
X147646500Y-105570000D01*
G75*
G02*
X147884000Y-105807500I0J-237500D01*
G01*
G37*
%TD*%
%TO.C,C5*%
G36*
G01*
X134564000Y-103488500D02*
X134564000Y-103013500D01*
G75*
G02*
X134801500Y-102776000I237500J0D01*
G01*
X135401500Y-102776000D01*
G75*
G02*
X135639000Y-103013500I0J-237500D01*
G01*
X135639000Y-103488500D01*
G75*
G02*
X135401500Y-103726000I-237500J0D01*
G01*
X134801500Y-103726000D01*
G75*
G02*
X134564000Y-103488500I0J237500D01*
G01*
G37*
G36*
G01*
X132839000Y-103488500D02*
X132839000Y-103013500D01*
G75*
G02*
X133076500Y-102776000I237500J0D01*
G01*
X133676500Y-102776000D01*
G75*
G02*
X133914000Y-103013500I0J-237500D01*
G01*
X133914000Y-103488500D01*
G75*
G02*
X133676500Y-103726000I-237500J0D01*
G01*
X133076500Y-103726000D01*
G75*
G02*
X132839000Y-103488500I0J237500D01*
G01*
G37*
%TD*%
%TO.C,C6*%
G36*
G01*
X138286500Y-108969000D02*
X137811500Y-108969000D01*
G75*
G02*
X137574000Y-108731500I0J237500D01*
G01*
X137574000Y-108131500D01*
G75*
G02*
X137811500Y-107894000I237500J0D01*
G01*
X138286500Y-107894000D01*
G75*
G02*
X138524000Y-108131500I0J-237500D01*
G01*
X138524000Y-108731500D01*
G75*
G02*
X138286500Y-108969000I-237500J0D01*
G01*
G37*
G36*
G01*
X138286500Y-107244000D02*
X137811500Y-107244000D01*
G75*
G02*
X137574000Y-107006500I0J237500D01*
G01*
X137574000Y-106406500D01*
G75*
G02*
X137811500Y-106169000I237500J0D01*
G01*
X138286500Y-106169000D01*
G75*
G02*
X138524000Y-106406500I0J-237500D01*
G01*
X138524000Y-107006500D01*
G75*
G02*
X138286500Y-107244000I-237500J0D01*
G01*
G37*
%TD*%
%TO.C,C7*%
G36*
G01*
X144001500Y-108969000D02*
X143526500Y-108969000D01*
G75*
G02*
X143289000Y-108731500I0J237500D01*
G01*
X143289000Y-108131500D01*
G75*
G02*
X143526500Y-107894000I237500J0D01*
G01*
X144001500Y-107894000D01*
G75*
G02*
X144239000Y-108131500I0J-237500D01*
G01*
X144239000Y-108731500D01*
G75*
G02*
X144001500Y-108969000I-237500J0D01*
G01*
G37*
G36*
G01*
X144001500Y-107244000D02*
X143526500Y-107244000D01*
G75*
G02*
X143289000Y-107006500I0J237500D01*
G01*
X143289000Y-106406500D01*
G75*
G02*
X143526500Y-106169000I237500J0D01*
G01*
X144001500Y-106169000D01*
G75*
G02*
X144239000Y-106406500I0J-237500D01*
G01*
X144239000Y-107006500D01*
G75*
G02*
X144001500Y-107244000I-237500J0D01*
G01*
G37*
%TD*%
%TO.C,C8*%
G36*
G01*
X139716500Y-93416000D02*
X140191500Y-93416000D01*
G75*
G02*
X140429000Y-93653500I0J-237500D01*
G01*
X140429000Y-94253500D01*
G75*
G02*
X140191500Y-94491000I-237500J0D01*
G01*
X139716500Y-94491000D01*
G75*
G02*
X139479000Y-94253500I0J237500D01*
G01*
X139479000Y-93653500D01*
G75*
G02*
X139716500Y-93416000I237500J0D01*
G01*
G37*
G36*
G01*
X139716500Y-91691000D02*
X140191500Y-91691000D01*
G75*
G02*
X140429000Y-91928500I0J-237500D01*
G01*
X140429000Y-92528500D01*
G75*
G02*
X140191500Y-92766000I-237500J0D01*
G01*
X139716500Y-92766000D01*
G75*
G02*
X139479000Y-92528500I0J237500D01*
G01*
X139479000Y-91928500D01*
G75*
G02*
X139716500Y-91691000I237500J0D01*
G01*
G37*
%TD*%
%TO.C,C9*%
G36*
G01*
X137811500Y-93416000D02*
X138286500Y-93416000D01*
G75*
G02*
X138524000Y-93653500I0J-237500D01*
G01*
X138524000Y-94253500D01*
G75*
G02*
X138286500Y-94491000I-237500J0D01*
G01*
X137811500Y-94491000D01*
G75*
G02*
X137574000Y-94253500I0J237500D01*
G01*
X137574000Y-93653500D01*
G75*
G02*
X137811500Y-93416000I237500J0D01*
G01*
G37*
G36*
G01*
X137811500Y-91691000D02*
X138286500Y-91691000D01*
G75*
G02*
X138524000Y-91928500I0J-237500D01*
G01*
X138524000Y-92528500D01*
G75*
G02*
X138286500Y-92766000I-237500J0D01*
G01*
X137811500Y-92766000D01*
G75*
G02*
X137574000Y-92528500I0J237500D01*
G01*
X137574000Y-91928500D01*
G75*
G02*
X137811500Y-91691000I237500J0D01*
G01*
G37*
%TD*%
%TO.C,C10*%
G36*
G01*
X149609000Y-100092500D02*
X149609000Y-100567500D01*
G75*
G02*
X149371500Y-100805000I-237500J0D01*
G01*
X148771500Y-100805000D01*
G75*
G02*
X148534000Y-100567500I0J237500D01*
G01*
X148534000Y-100092500D01*
G75*
G02*
X148771500Y-99855000I237500J0D01*
G01*
X149371500Y-99855000D01*
G75*
G02*
X149609000Y-100092500I0J-237500D01*
G01*
G37*
G36*
G01*
X147884000Y-100092500D02*
X147884000Y-100567500D01*
G75*
G02*
X147646500Y-100805000I-237500J0D01*
G01*
X147046500Y-100805000D01*
G75*
G02*
X146809000Y-100567500I0J237500D01*
G01*
X146809000Y-100092500D01*
G75*
G02*
X147046500Y-99855000I237500J0D01*
G01*
X147646500Y-99855000D01*
G75*
G02*
X147884000Y-100092500I0J-237500D01*
G01*
G37*
%TD*%
%TO.C,C11*%
G36*
G01*
X147884000Y-98187500D02*
X147884000Y-98662500D01*
G75*
G02*
X147646500Y-98900000I-237500J0D01*
G01*
X147046500Y-98900000D01*
G75*
G02*
X146809000Y-98662500I0J237500D01*
G01*
X146809000Y-98187500D01*
G75*
G02*
X147046500Y-97950000I237500J0D01*
G01*
X147646500Y-97950000D01*
G75*
G02*
X147884000Y-98187500I0J-237500D01*
G01*
G37*
G36*
G01*
X149609000Y-98187500D02*
X149609000Y-98662500D01*
G75*
G02*
X149371500Y-98900000I-237500J0D01*
G01*
X148771500Y-98900000D01*
G75*
G02*
X148534000Y-98662500I0J237500D01*
G01*
X148534000Y-98187500D01*
G75*
G02*
X148771500Y-97950000I237500J0D01*
G01*
X149371500Y-97950000D01*
G75*
G02*
X149609000Y-98187500I0J-237500D01*
G01*
G37*
%TD*%
%TO.C,C12*%
G36*
G01*
X132839000Y-93963500D02*
X132839000Y-93488500D01*
G75*
G02*
X133076500Y-93251000I237500J0D01*
G01*
X133676500Y-93251000D01*
G75*
G02*
X133914000Y-93488500I0J-237500D01*
G01*
X133914000Y-93963500D01*
G75*
G02*
X133676500Y-94201000I-237500J0D01*
G01*
X133076500Y-94201000D01*
G75*
G02*
X132839000Y-93963500I0J237500D01*
G01*
G37*
G36*
G01*
X134564000Y-93963500D02*
X134564000Y-93488500D01*
G75*
G02*
X134801500Y-93251000I237500J0D01*
G01*
X135401500Y-93251000D01*
G75*
G02*
X135639000Y-93488500I0J-237500D01*
G01*
X135639000Y-93963500D01*
G75*
G02*
X135401500Y-94201000I-237500J0D01*
G01*
X134801500Y-94201000D01*
G75*
G02*
X134564000Y-93963500I0J237500D01*
G01*
G37*
%TD*%
%TO.C,C13*%
G36*
G01*
X134564000Y-95868500D02*
X134564000Y-95393500D01*
G75*
G02*
X134801500Y-95156000I237500J0D01*
G01*
X135401500Y-95156000D01*
G75*
G02*
X135639000Y-95393500I0J-237500D01*
G01*
X135639000Y-95868500D01*
G75*
G02*
X135401500Y-96106000I-237500J0D01*
G01*
X134801500Y-96106000D01*
G75*
G02*
X134564000Y-95868500I0J237500D01*
G01*
G37*
G36*
G01*
X132839000Y-95868500D02*
X132839000Y-95393500D01*
G75*
G02*
X133076500Y-95156000I237500J0D01*
G01*
X133676500Y-95156000D01*
G75*
G02*
X133914000Y-95393500I0J-237500D01*
G01*
X133914000Y-95868500D01*
G75*
G02*
X133676500Y-96106000I-237500J0D01*
G01*
X133076500Y-96106000D01*
G75*
G02*
X132839000Y-95868500I0J237500D01*
G01*
G37*
%TD*%
%TO.C,C14*%
G36*
G01*
X132839000Y-97773500D02*
X132839000Y-97298500D01*
G75*
G02*
X133076500Y-97061000I237500J0D01*
G01*
X133676500Y-97061000D01*
G75*
G02*
X133914000Y-97298500I0J-237500D01*
G01*
X133914000Y-97773500D01*
G75*
G02*
X133676500Y-98011000I-237500J0D01*
G01*
X133076500Y-98011000D01*
G75*
G02*
X132839000Y-97773500I0J237500D01*
G01*
G37*
G36*
G01*
X134564000Y-97773500D02*
X134564000Y-97298500D01*
G75*
G02*
X134801500Y-97061000I237500J0D01*
G01*
X135401500Y-97061000D01*
G75*
G02*
X135639000Y-97298500I0J-237500D01*
G01*
X135639000Y-97773500D01*
G75*
G02*
X135401500Y-98011000I-237500J0D01*
G01*
X134801500Y-98011000D01*
G75*
G02*
X134564000Y-97773500I0J237500D01*
G01*
G37*
%TD*%
%TO.C,C15*%
G36*
G01*
X141621500Y-93416000D02*
X142096500Y-93416000D01*
G75*
G02*
X142334000Y-93653500I0J-237500D01*
G01*
X142334000Y-94253500D01*
G75*
G02*
X142096500Y-94491000I-237500J0D01*
G01*
X141621500Y-94491000D01*
G75*
G02*
X141384000Y-94253500I0J237500D01*
G01*
X141384000Y-93653500D01*
G75*
G02*
X141621500Y-93416000I237500J0D01*
G01*
G37*
G36*
G01*
X141621500Y-91691000D02*
X142096500Y-91691000D01*
G75*
G02*
X142334000Y-91928500I0J-237500D01*
G01*
X142334000Y-92528500D01*
G75*
G02*
X142096500Y-92766000I-237500J0D01*
G01*
X141621500Y-92766000D01*
G75*
G02*
X141384000Y-92528500I0J237500D01*
G01*
X141384000Y-91928500D01*
G75*
G02*
X141621500Y-91691000I237500J0D01*
G01*
G37*
%TD*%
%TO.C,C16*%
G36*
G01*
X143526500Y-91691000D02*
X144001500Y-91691000D01*
G75*
G02*
X144239000Y-91928500I0J-237500D01*
G01*
X144239000Y-92528500D01*
G75*
G02*
X144001500Y-92766000I-237500J0D01*
G01*
X143526500Y-92766000D01*
G75*
G02*
X143289000Y-92528500I0J237500D01*
G01*
X143289000Y-91928500D01*
G75*
G02*
X143526500Y-91691000I237500J0D01*
G01*
G37*
G36*
G01*
X143526500Y-93416000D02*
X144001500Y-93416000D01*
G75*
G02*
X144239000Y-93653500I0J-237500D01*
G01*
X144239000Y-94253500D01*
G75*
G02*
X144001500Y-94491000I-237500J0D01*
G01*
X143526500Y-94491000D01*
G75*
G02*
X143289000Y-94253500I0J237500D01*
G01*
X143289000Y-93653500D01*
G75*
G02*
X143526500Y-93416000I237500J0D01*
G01*
G37*
%TD*%
%TO.C,C17*%
G36*
G01*
X147884000Y-94377500D02*
X147884000Y-94852500D01*
G75*
G02*
X147646500Y-95090000I-237500J0D01*
G01*
X147046500Y-95090000D01*
G75*
G02*
X146809000Y-94852500I0J237500D01*
G01*
X146809000Y-94377500D01*
G75*
G02*
X147046500Y-94140000I237500J0D01*
G01*
X147646500Y-94140000D01*
G75*
G02*
X147884000Y-94377500I0J-237500D01*
G01*
G37*
G36*
G01*
X149609000Y-94377500D02*
X149609000Y-94852500D01*
G75*
G02*
X149371500Y-95090000I-237500J0D01*
G01*
X148771500Y-95090000D01*
G75*
G02*
X148534000Y-94852500I0J237500D01*
G01*
X148534000Y-94377500D01*
G75*
G02*
X148771500Y-94140000I237500J0D01*
G01*
X149371500Y-94140000D01*
G75*
G02*
X149609000Y-94377500I0J-237500D01*
G01*
G37*
%TD*%
%TO.C,C18*%
G36*
G01*
X147884000Y-96282500D02*
X147884000Y-96757500D01*
G75*
G02*
X147646500Y-96995000I-237500J0D01*
G01*
X147046500Y-96995000D01*
G75*
G02*
X146809000Y-96757500I0J237500D01*
G01*
X146809000Y-96282500D01*
G75*
G02*
X147046500Y-96045000I237500J0D01*
G01*
X147646500Y-96045000D01*
G75*
G02*
X147884000Y-96282500I0J-237500D01*
G01*
G37*
G36*
G01*
X149609000Y-96282500D02*
X149609000Y-96757500D01*
G75*
G02*
X149371500Y-96995000I-237500J0D01*
G01*
X148771500Y-96995000D01*
G75*
G02*
X148534000Y-96757500I0J237500D01*
G01*
X148534000Y-96282500D01*
G75*
G02*
X148771500Y-96045000I237500J0D01*
G01*
X149371500Y-96045000D01*
G75*
G02*
X149609000Y-96282500I0J-237500D01*
G01*
G37*
%TD*%
%TO.C,C19*%
G36*
G01*
X147884000Y-103902500D02*
X147884000Y-104377500D01*
G75*
G02*
X147646500Y-104615000I-237500J0D01*
G01*
X147046500Y-104615000D01*
G75*
G02*
X146809000Y-104377500I0J237500D01*
G01*
X146809000Y-103902500D01*
G75*
G02*
X147046500Y-103665000I237500J0D01*
G01*
X147646500Y-103665000D01*
G75*
G02*
X147884000Y-103902500I0J-237500D01*
G01*
G37*
G36*
G01*
X149609000Y-103902500D02*
X149609000Y-104377500D01*
G75*
G02*
X149371500Y-104615000I-237500J0D01*
G01*
X148771500Y-104615000D01*
G75*
G02*
X148534000Y-104377500I0J237500D01*
G01*
X148534000Y-103902500D01*
G75*
G02*
X148771500Y-103665000I237500J0D01*
G01*
X149371500Y-103665000D01*
G75*
G02*
X149609000Y-103902500I0J-237500D01*
G01*
G37*
%TD*%
%TO.C,C20*%
G36*
G01*
X149609000Y-101997500D02*
X149609000Y-102472500D01*
G75*
G02*
X149371500Y-102710000I-237500J0D01*
G01*
X148771500Y-102710000D01*
G75*
G02*
X148534000Y-102472500I0J237500D01*
G01*
X148534000Y-101997500D01*
G75*
G02*
X148771500Y-101760000I237500J0D01*
G01*
X149371500Y-101760000D01*
G75*
G02*
X149609000Y-101997500I0J-237500D01*
G01*
G37*
G36*
G01*
X147884000Y-101997500D02*
X147884000Y-102472500D01*
G75*
G02*
X147646500Y-102710000I-237500J0D01*
G01*
X147046500Y-102710000D01*
G75*
G02*
X146809000Y-102472500I0J237500D01*
G01*
X146809000Y-101997500D01*
G75*
G02*
X147046500Y-101760000I237500J0D01*
G01*
X147646500Y-101760000D01*
G75*
G02*
X147884000Y-101997500I0J-237500D01*
G01*
G37*
%TD*%
%TO.C,C21*%
G36*
G01*
X140191500Y-108969000D02*
X139716500Y-108969000D01*
G75*
G02*
X139479000Y-108731500I0J237500D01*
G01*
X139479000Y-108131500D01*
G75*
G02*
X139716500Y-107894000I237500J0D01*
G01*
X140191500Y-107894000D01*
G75*
G02*
X140429000Y-108131500I0J-237500D01*
G01*
X140429000Y-108731500D01*
G75*
G02*
X140191500Y-108969000I-237500J0D01*
G01*
G37*
G36*
G01*
X140191500Y-107244000D02*
X139716500Y-107244000D01*
G75*
G02*
X139479000Y-107006500I0J237500D01*
G01*
X139479000Y-106406500D01*
G75*
G02*
X139716500Y-106169000I237500J0D01*
G01*
X140191500Y-106169000D01*
G75*
G02*
X140429000Y-106406500I0J-237500D01*
G01*
X140429000Y-107006500D01*
G75*
G02*
X140191500Y-107244000I-237500J0D01*
G01*
G37*
%TD*%
%TO.C,C22*%
G36*
G01*
X142096500Y-108969000D02*
X141621500Y-108969000D01*
G75*
G02*
X141384000Y-108731500I0J237500D01*
G01*
X141384000Y-108131500D01*
G75*
G02*
X141621500Y-107894000I237500J0D01*
G01*
X142096500Y-107894000D01*
G75*
G02*
X142334000Y-108131500I0J-237500D01*
G01*
X142334000Y-108731500D01*
G75*
G02*
X142096500Y-108969000I-237500J0D01*
G01*
G37*
G36*
G01*
X142096500Y-107244000D02*
X141621500Y-107244000D01*
G75*
G02*
X141384000Y-107006500I0J237500D01*
G01*
X141384000Y-106406500D01*
G75*
G02*
X141621500Y-106169000I237500J0D01*
G01*
X142096500Y-106169000D01*
G75*
G02*
X142334000Y-106406500I0J-237500D01*
G01*
X142334000Y-107006500D01*
G75*
G02*
X142096500Y-107244000I-237500J0D01*
G01*
G37*
%TD*%
%TO.C,C23*%
G36*
G01*
X134564000Y-105393500D02*
X134564000Y-104918500D01*
G75*
G02*
X134801500Y-104681000I237500J0D01*
G01*
X135401500Y-104681000D01*
G75*
G02*
X135639000Y-104918500I0J-237500D01*
G01*
X135639000Y-105393500D01*
G75*
G02*
X135401500Y-105631000I-237500J0D01*
G01*
X134801500Y-105631000D01*
G75*
G02*
X134564000Y-105393500I0J237500D01*
G01*
G37*
G36*
G01*
X132839000Y-105393500D02*
X132839000Y-104918500D01*
G75*
G02*
X133076500Y-104681000I237500J0D01*
G01*
X133676500Y-104681000D01*
G75*
G02*
X133914000Y-104918500I0J-237500D01*
G01*
X133914000Y-105393500D01*
G75*
G02*
X133676500Y-105631000I-237500J0D01*
G01*
X133076500Y-105631000D01*
G75*
G02*
X132839000Y-105393500I0J237500D01*
G01*
G37*
%TD*%
%TO.C,C24*%
G36*
G01*
X132839000Y-107298500D02*
X132839000Y-106823500D01*
G75*
G02*
X133076500Y-106586000I237500J0D01*
G01*
X133676500Y-106586000D01*
G75*
G02*
X133914000Y-106823500I0J-237500D01*
G01*
X133914000Y-107298500D01*
G75*
G02*
X133676500Y-107536000I-237500J0D01*
G01*
X133076500Y-107536000D01*
G75*
G02*
X132839000Y-107298500I0J237500D01*
G01*
G37*
G36*
G01*
X134564000Y-107298500D02*
X134564000Y-106823500D01*
G75*
G02*
X134801500Y-106586000I237500J0D01*
G01*
X135401500Y-106586000D01*
G75*
G02*
X135639000Y-106823500I0J-237500D01*
G01*
X135639000Y-107298500D01*
G75*
G02*
X135401500Y-107536000I-237500J0D01*
G01*
X134801500Y-107536000D01*
G75*
G02*
X134564000Y-107298500I0J237500D01*
G01*
G37*
%TD*%
%TO.C,C25*%
G36*
G01*
X134564000Y-99678500D02*
X134564000Y-99203500D01*
G75*
G02*
X134801500Y-98966000I237500J0D01*
G01*
X135401500Y-98966000D01*
G75*
G02*
X135639000Y-99203500I0J-237500D01*
G01*
X135639000Y-99678500D01*
G75*
G02*
X135401500Y-99916000I-237500J0D01*
G01*
X134801500Y-99916000D01*
G75*
G02*
X134564000Y-99678500I0J237500D01*
G01*
G37*
G36*
G01*
X132839000Y-99678500D02*
X132839000Y-99203500D01*
G75*
G02*
X133076500Y-98966000I237500J0D01*
G01*
X133676500Y-98966000D01*
G75*
G02*
X133914000Y-99203500I0J-237500D01*
G01*
X133914000Y-99678500D01*
G75*
G02*
X133676500Y-99916000I-237500J0D01*
G01*
X133076500Y-99916000D01*
G75*
G02*
X132839000Y-99678500I0J237500D01*
G01*
G37*
%TD*%
%TO.C,C26*%
G36*
G01*
X132839000Y-101583500D02*
X132839000Y-101108500D01*
G75*
G02*
X133076500Y-100871000I237500J0D01*
G01*
X133676500Y-100871000D01*
G75*
G02*
X133914000Y-101108500I0J-237500D01*
G01*
X133914000Y-101583500D01*
G75*
G02*
X133676500Y-101821000I-237500J0D01*
G01*
X133076500Y-101821000D01*
G75*
G02*
X132839000Y-101583500I0J237500D01*
G01*
G37*
G36*
G01*
X134564000Y-101583500D02*
X134564000Y-101108500D01*
G75*
G02*
X134801500Y-100871000I237500J0D01*
G01*
X135401500Y-100871000D01*
G75*
G02*
X135639000Y-101108500I0J-237500D01*
G01*
X135639000Y-101583500D01*
G75*
G02*
X135401500Y-101821000I-237500J0D01*
G01*
X134801500Y-101821000D01*
G75*
G02*
X134564000Y-101583500I0J237500D01*
G01*
G37*
%TD*%
%TO.C,C27*%
G36*
G01*
X104156500Y-86992000D02*
X104631500Y-86992000D01*
G75*
G02*
X104869000Y-87229500I0J-237500D01*
G01*
X104869000Y-87829500D01*
G75*
G02*
X104631500Y-88067000I-237500J0D01*
G01*
X104156500Y-88067000D01*
G75*
G02*
X103919000Y-87829500I0J237500D01*
G01*
X103919000Y-87229500D01*
G75*
G02*
X104156500Y-86992000I237500J0D01*
G01*
G37*
G36*
G01*
X104156500Y-88717000D02*
X104631500Y-88717000D01*
G75*
G02*
X104869000Y-88954500I0J-237500D01*
G01*
X104869000Y-89554500D01*
G75*
G02*
X104631500Y-89792000I-237500J0D01*
G01*
X104156500Y-89792000D01*
G75*
G02*
X103919000Y-89554500I0J237500D01*
G01*
X103919000Y-88954500D01*
G75*
G02*
X104156500Y-88717000I237500J0D01*
G01*
G37*
%TD*%
%TO.C,C28*%
G36*
G01*
X104156500Y-97607000D02*
X104631500Y-97607000D01*
G75*
G02*
X104869000Y-97844500I0J-237500D01*
G01*
X104869000Y-98444500D01*
G75*
G02*
X104631500Y-98682000I-237500J0D01*
G01*
X104156500Y-98682000D01*
G75*
G02*
X103919000Y-98444500I0J237500D01*
G01*
X103919000Y-97844500D01*
G75*
G02*
X104156500Y-97607000I237500J0D01*
G01*
G37*
G36*
G01*
X104156500Y-95882000D02*
X104631500Y-95882000D01*
G75*
G02*
X104869000Y-96119500I0J-237500D01*
G01*
X104869000Y-96719500D01*
G75*
G02*
X104631500Y-96957000I-237500J0D01*
G01*
X104156500Y-96957000D01*
G75*
G02*
X103919000Y-96719500I0J237500D01*
G01*
X103919000Y-96119500D01*
G75*
G02*
X104156500Y-95882000I237500J0D01*
G01*
G37*
%TD*%
%TO.C,C29*%
G36*
G01*
X104010000Y-82279500D02*
X104010000Y-81804500D01*
G75*
G02*
X104247500Y-81567000I237500J0D01*
G01*
X104847500Y-81567000D01*
G75*
G02*
X105085000Y-81804500I0J-237500D01*
G01*
X105085000Y-82279500D01*
G75*
G02*
X104847500Y-82517000I-237500J0D01*
G01*
X104247500Y-82517000D01*
G75*
G02*
X104010000Y-82279500I0J237500D01*
G01*
G37*
G36*
G01*
X105735000Y-82279500D02*
X105735000Y-81804500D01*
G75*
G02*
X105972500Y-81567000I237500J0D01*
G01*
X106572500Y-81567000D01*
G75*
G02*
X106810000Y-81804500I0J-237500D01*
G01*
X106810000Y-82279500D01*
G75*
G02*
X106572500Y-82517000I-237500J0D01*
G01*
X105972500Y-82517000D01*
G75*
G02*
X105735000Y-82279500I0J237500D01*
G01*
G37*
%TD*%
%TO.C,C30*%
G36*
G01*
X104156500Y-92273000D02*
X104631500Y-92273000D01*
G75*
G02*
X104869000Y-92510500I0J-237500D01*
G01*
X104869000Y-93110500D01*
G75*
G02*
X104631500Y-93348000I-237500J0D01*
G01*
X104156500Y-93348000D01*
G75*
G02*
X103919000Y-93110500I0J237500D01*
G01*
X103919000Y-92510500D01*
G75*
G02*
X104156500Y-92273000I237500J0D01*
G01*
G37*
G36*
G01*
X104156500Y-90548000D02*
X104631500Y-90548000D01*
G75*
G02*
X104869000Y-90785500I0J-237500D01*
G01*
X104869000Y-91385500D01*
G75*
G02*
X104631500Y-91623000I-237500J0D01*
G01*
X104156500Y-91623000D01*
G75*
G02*
X103919000Y-91385500I0J237500D01*
G01*
X103919000Y-90785500D01*
G75*
G02*
X104156500Y-90548000I237500J0D01*
G01*
G37*
%TD*%
D12*
%TO.C,D1*%
X99060000Y-115570000D03*
D13*
X96520000Y-115570000D03*
%TD*%
%TO.C,D2*%
X109220000Y-83820000D03*
D12*
X111760000Y-83820000D03*
%TD*%
%TO.C,D3*%
G36*
G01*
X106725000Y-89170500D02*
X106725000Y-89645500D01*
G75*
G02*
X106487500Y-89883000I-237500J0D01*
G01*
X105912500Y-89883000D01*
G75*
G02*
X105675000Y-89645500I0J237500D01*
G01*
X105675000Y-89170500D01*
G75*
G02*
X105912500Y-88933000I237500J0D01*
G01*
X106487500Y-88933000D01*
G75*
G02*
X106725000Y-89170500I0J-237500D01*
G01*
G37*
G36*
G01*
X108475000Y-89170500D02*
X108475000Y-89645500D01*
G75*
G02*
X108237500Y-89883000I-237500J0D01*
G01*
X107662500Y-89883000D01*
G75*
G02*
X107425000Y-89645500I0J237500D01*
G01*
X107425000Y-89170500D01*
G75*
G02*
X107662500Y-88933000I237500J0D01*
G01*
X108237500Y-88933000D01*
G75*
G02*
X108475000Y-89170500I0J-237500D01*
G01*
G37*
%TD*%
%TO.C,D4*%
G36*
G01*
X108588000Y-96282500D02*
X108588000Y-96757500D01*
G75*
G02*
X108350500Y-96995000I-237500J0D01*
G01*
X107775500Y-96995000D01*
G75*
G02*
X107538000Y-96757500I0J237500D01*
G01*
X107538000Y-96282500D01*
G75*
G02*
X107775500Y-96045000I237500J0D01*
G01*
X108350500Y-96045000D01*
G75*
G02*
X108588000Y-96282500I0J-237500D01*
G01*
G37*
G36*
G01*
X106838000Y-96282500D02*
X106838000Y-96757500D01*
G75*
G02*
X106600500Y-96995000I-237500J0D01*
G01*
X106025500Y-96995000D01*
G75*
G02*
X105788000Y-96757500I0J237500D01*
G01*
X105788000Y-96282500D01*
G75*
G02*
X106025500Y-96045000I237500J0D01*
G01*
X106600500Y-96045000D01*
G75*
G02*
X106838000Y-96282500I0J-237500D01*
G01*
G37*
%TD*%
%TO.C,D5*%
G36*
G01*
X103536000Y-79772500D02*
X103536000Y-80247500D01*
G75*
G02*
X103298500Y-80485000I-237500J0D01*
G01*
X102723500Y-80485000D01*
G75*
G02*
X102486000Y-80247500I0J237500D01*
G01*
X102486000Y-79772500D01*
G75*
G02*
X102723500Y-79535000I237500J0D01*
G01*
X103298500Y-79535000D01*
G75*
G02*
X103536000Y-79772500I0J-237500D01*
G01*
G37*
G36*
G01*
X105286000Y-79772500D02*
X105286000Y-80247500D01*
G75*
G02*
X105048500Y-80485000I-237500J0D01*
G01*
X104473500Y-80485000D01*
G75*
G02*
X104236000Y-80247500I0J237500D01*
G01*
X104236000Y-79772500D01*
G75*
G02*
X104473500Y-79535000I237500J0D01*
G01*
X105048500Y-79535000D01*
G75*
G02*
X105286000Y-79772500I0J-237500D01*
G01*
G37*
%TD*%
%TO.C,D6*%
G36*
G01*
X108588000Y-90948500D02*
X108588000Y-91423500D01*
G75*
G02*
X108350500Y-91661000I-237500J0D01*
G01*
X107775500Y-91661000D01*
G75*
G02*
X107538000Y-91423500I0J237500D01*
G01*
X107538000Y-90948500D01*
G75*
G02*
X107775500Y-90711000I237500J0D01*
G01*
X108350500Y-90711000D01*
G75*
G02*
X108588000Y-90948500I0J-237500D01*
G01*
G37*
G36*
G01*
X106838000Y-90948500D02*
X106838000Y-91423500D01*
G75*
G02*
X106600500Y-91661000I-237500J0D01*
G01*
X106025500Y-91661000D01*
G75*
G02*
X105788000Y-91423500I0J237500D01*
G01*
X105788000Y-90948500D01*
G75*
G02*
X106025500Y-90711000I237500J0D01*
G01*
X106600500Y-90711000D01*
G75*
G02*
X106838000Y-90948500I0J-237500D01*
G01*
G37*
%TD*%
D14*
%TO.C,J2*%
X107950000Y-124460000D03*
D15*
X107950000Y-121920000D03*
X110490000Y-124460000D03*
X110490000Y-121920000D03*
%TD*%
%TO.C,J3*%
X166370000Y-121920000D03*
X166370000Y-124460000D03*
X163830000Y-121920000D03*
X163830000Y-124460000D03*
X161290000Y-121920000D03*
X161290000Y-124460000D03*
X158750000Y-121920000D03*
X158750000Y-124460000D03*
X156210000Y-121920000D03*
X156210000Y-124460000D03*
X153670000Y-121920000D03*
X153670000Y-124460000D03*
X151130000Y-121920000D03*
X151130000Y-124460000D03*
X148590000Y-121920000D03*
X148590000Y-124460000D03*
X146050000Y-121920000D03*
X146050000Y-124460000D03*
X143510000Y-121920000D03*
X143510000Y-124460000D03*
X140970000Y-121920000D03*
X140970000Y-124460000D03*
X138430000Y-121920000D03*
X138430000Y-124460000D03*
X135890000Y-121920000D03*
X135890000Y-124460000D03*
X133350000Y-121920000D03*
X133350000Y-124460000D03*
X130810000Y-121920000D03*
X130810000Y-124460000D03*
X128270000Y-121920000D03*
X128270000Y-124460000D03*
X125730000Y-121920000D03*
X125730000Y-124460000D03*
X123190000Y-121920000D03*
X123190000Y-124460000D03*
X120650000Y-121920000D03*
X120650000Y-124460000D03*
X118110000Y-121920000D03*
D14*
X118110000Y-124460000D03*
%TD*%
%TO.C,J4*%
X173990000Y-116840000D03*
D15*
X171450000Y-116840000D03*
X173990000Y-114300000D03*
X171450000Y-114300000D03*
X173990000Y-111760000D03*
X171450000Y-111760000D03*
X173990000Y-109220000D03*
X171450000Y-109220000D03*
X173990000Y-106680000D03*
X171450000Y-106680000D03*
X173990000Y-104140000D03*
X171450000Y-104140000D03*
X173990000Y-101600000D03*
X171450000Y-101600000D03*
X173990000Y-99060000D03*
X171450000Y-99060000D03*
X173990000Y-96520000D03*
X171450000Y-96520000D03*
X173990000Y-93980000D03*
X171450000Y-93980000D03*
X173990000Y-91440000D03*
X171450000Y-91440000D03*
X173990000Y-88900000D03*
X171450000Y-88900000D03*
X173990000Y-86360000D03*
X171450000Y-86360000D03*
X173990000Y-83820000D03*
X171450000Y-83820000D03*
%TD*%
D14*
%TO.C,J5*%
X118110000Y-78740000D03*
D15*
X118110000Y-76200000D03*
X120650000Y-78740000D03*
X120650000Y-76200000D03*
X123190000Y-78740000D03*
X123190000Y-76200000D03*
X125730000Y-78740000D03*
X125730000Y-76200000D03*
X128270000Y-78740000D03*
X128270000Y-76200000D03*
X130810000Y-78740000D03*
X130810000Y-76200000D03*
X133350000Y-78740000D03*
X133350000Y-76200000D03*
X135890000Y-78740000D03*
X135890000Y-76200000D03*
X138430000Y-78740000D03*
X138430000Y-76200000D03*
X140970000Y-78740000D03*
X140970000Y-76200000D03*
X143510000Y-78740000D03*
X143510000Y-76200000D03*
X146050000Y-78740000D03*
X146050000Y-76200000D03*
X148590000Y-78740000D03*
X148590000Y-76200000D03*
X151130000Y-78740000D03*
X151130000Y-76200000D03*
X153670000Y-78740000D03*
X153670000Y-76200000D03*
X156210000Y-78740000D03*
X156210000Y-76200000D03*
X158750000Y-78740000D03*
X158750000Y-76200000D03*
X161290000Y-78740000D03*
X161290000Y-76200000D03*
X163830000Y-78740000D03*
X163830000Y-76200000D03*
X166370000Y-78740000D03*
X166370000Y-76200000D03*
%TD*%
D14*
%TO.C,J6*%
X96520000Y-86360000D03*
D15*
X99060000Y-86360000D03*
X96520000Y-88900000D03*
X99060000Y-88900000D03*
X96520000Y-91440000D03*
X99060000Y-91440000D03*
X96520000Y-93980000D03*
X99060000Y-93980000D03*
X96520000Y-96520000D03*
X99060000Y-96520000D03*
%TD*%
%TO.C,R2*%
G36*
G01*
X95120000Y-82787500D02*
X95120000Y-82312500D01*
G75*
G02*
X95357500Y-82075000I237500J0D01*
G01*
X95857500Y-82075000D01*
G75*
G02*
X96095000Y-82312500I0J-237500D01*
G01*
X96095000Y-82787500D01*
G75*
G02*
X95857500Y-83025000I-237500J0D01*
G01*
X95357500Y-83025000D01*
G75*
G02*
X95120000Y-82787500I0J237500D01*
G01*
G37*
G36*
G01*
X96945000Y-82787500D02*
X96945000Y-82312500D01*
G75*
G02*
X97182500Y-82075000I237500J0D01*
G01*
X97682500Y-82075000D01*
G75*
G02*
X97920000Y-82312500I0J-237500D01*
G01*
X97920000Y-82787500D01*
G75*
G02*
X97682500Y-83025000I-237500J0D01*
G01*
X97182500Y-83025000D01*
G75*
G02*
X96945000Y-82787500I0J237500D01*
G01*
G37*
%TD*%
%TO.C,R3*%
G36*
G01*
X109303000Y-98060500D02*
X109303000Y-98535500D01*
G75*
G02*
X109065500Y-98773000I-237500J0D01*
G01*
X108565500Y-98773000D01*
G75*
G02*
X108328000Y-98535500I0J237500D01*
G01*
X108328000Y-98060500D01*
G75*
G02*
X108565500Y-97823000I237500J0D01*
G01*
X109065500Y-97823000D01*
G75*
G02*
X109303000Y-98060500I0J-237500D01*
G01*
G37*
G36*
G01*
X111128000Y-98060500D02*
X111128000Y-98535500D01*
G75*
G02*
X110890500Y-98773000I-237500J0D01*
G01*
X110390500Y-98773000D01*
G75*
G02*
X110153000Y-98535500I0J237500D01*
G01*
X110153000Y-98060500D01*
G75*
G02*
X110390500Y-97823000I237500J0D01*
G01*
X110890500Y-97823000D01*
G75*
G02*
X111128000Y-98060500I0J-237500D01*
G01*
G37*
%TD*%
%TO.C,R4*%
G36*
G01*
X111128000Y-92726500D02*
X111128000Y-93201500D01*
G75*
G02*
X110890500Y-93439000I-237500J0D01*
G01*
X110390500Y-93439000D01*
G75*
G02*
X110153000Y-93201500I0J237500D01*
G01*
X110153000Y-92726500D01*
G75*
G02*
X110390500Y-92489000I237500J0D01*
G01*
X110890500Y-92489000D01*
G75*
G02*
X111128000Y-92726500I0J-237500D01*
G01*
G37*
G36*
G01*
X109303000Y-92726500D02*
X109303000Y-93201500D01*
G75*
G02*
X109065500Y-93439000I-237500J0D01*
G01*
X108565500Y-93439000D01*
G75*
G02*
X108328000Y-93201500I0J237500D01*
G01*
X108328000Y-92726500D01*
G75*
G02*
X108565500Y-92489000I237500J0D01*
G01*
X109065500Y-92489000D01*
G75*
G02*
X109303000Y-92726500I0J-237500D01*
G01*
G37*
%TD*%
%TO.C,R5*%
G36*
G01*
X106763000Y-94504500D02*
X106763000Y-94979500D01*
G75*
G02*
X106525500Y-95217000I-237500J0D01*
G01*
X106025500Y-95217000D01*
G75*
G02*
X105788000Y-94979500I0J237500D01*
G01*
X105788000Y-94504500D01*
G75*
G02*
X106025500Y-94267000I237500J0D01*
G01*
X106525500Y-94267000D01*
G75*
G02*
X106763000Y-94504500I0J-237500D01*
G01*
G37*
G36*
G01*
X108588000Y-94504500D02*
X108588000Y-94979500D01*
G75*
G02*
X108350500Y-95217000I-237500J0D01*
G01*
X107850500Y-95217000D01*
G75*
G02*
X107613000Y-94979500I0J237500D01*
G01*
X107613000Y-94504500D01*
G75*
G02*
X107850500Y-94267000I237500J0D01*
G01*
X108350500Y-94267000D01*
G75*
G02*
X108588000Y-94504500I0J-237500D01*
G01*
G37*
%TD*%
%TO.C,R6*%
G36*
G01*
X148352500Y-84198000D02*
X148827500Y-84198000D01*
G75*
G02*
X149065000Y-84435500I0J-237500D01*
G01*
X149065000Y-84935500D01*
G75*
G02*
X148827500Y-85173000I-237500J0D01*
G01*
X148352500Y-85173000D01*
G75*
G02*
X148115000Y-84935500I0J237500D01*
G01*
X148115000Y-84435500D01*
G75*
G02*
X148352500Y-84198000I237500J0D01*
G01*
G37*
G36*
G01*
X148352500Y-86023000D02*
X148827500Y-86023000D01*
G75*
G02*
X149065000Y-86260500I0J-237500D01*
G01*
X149065000Y-86760500D01*
G75*
G02*
X148827500Y-86998000I-237500J0D01*
G01*
X148352500Y-86998000D01*
G75*
G02*
X148115000Y-86760500I0J237500D01*
G01*
X148115000Y-86260500D01*
G75*
G02*
X148352500Y-86023000I237500J0D01*
G01*
G37*
%TD*%
%TO.C,R7*%
G36*
G01*
X146574500Y-86023000D02*
X147049500Y-86023000D01*
G75*
G02*
X147287000Y-86260500I0J-237500D01*
G01*
X147287000Y-86760500D01*
G75*
G02*
X147049500Y-86998000I-237500J0D01*
G01*
X146574500Y-86998000D01*
G75*
G02*
X146337000Y-86760500I0J237500D01*
G01*
X146337000Y-86260500D01*
G75*
G02*
X146574500Y-86023000I237500J0D01*
G01*
G37*
G36*
G01*
X146574500Y-84198000D02*
X147049500Y-84198000D01*
G75*
G02*
X147287000Y-84435500I0J-237500D01*
G01*
X147287000Y-84935500D01*
G75*
G02*
X147049500Y-85173000I-237500J0D01*
G01*
X146574500Y-85173000D01*
G75*
G02*
X146337000Y-84935500I0J237500D01*
G01*
X146337000Y-84435500D01*
G75*
G02*
X146574500Y-84198000I237500J0D01*
G01*
G37*
%TD*%
%TO.C,R8*%
G36*
G01*
X140732500Y-84198000D02*
X141207500Y-84198000D01*
G75*
G02*
X141445000Y-84435500I0J-237500D01*
G01*
X141445000Y-84935500D01*
G75*
G02*
X141207500Y-85173000I-237500J0D01*
G01*
X140732500Y-85173000D01*
G75*
G02*
X140495000Y-84935500I0J237500D01*
G01*
X140495000Y-84435500D01*
G75*
G02*
X140732500Y-84198000I237500J0D01*
G01*
G37*
G36*
G01*
X140732500Y-86023000D02*
X141207500Y-86023000D01*
G75*
G02*
X141445000Y-86260500I0J-237500D01*
G01*
X141445000Y-86760500D01*
G75*
G02*
X141207500Y-86998000I-237500J0D01*
G01*
X140732500Y-86998000D01*
G75*
G02*
X140495000Y-86760500I0J237500D01*
G01*
X140495000Y-86260500D01*
G75*
G02*
X140732500Y-86023000I237500J0D01*
G01*
G37*
%TD*%
%TO.C,R9*%
G36*
G01*
X138954500Y-86023000D02*
X139429500Y-86023000D01*
G75*
G02*
X139667000Y-86260500I0J-237500D01*
G01*
X139667000Y-86760500D01*
G75*
G02*
X139429500Y-86998000I-237500J0D01*
G01*
X138954500Y-86998000D01*
G75*
G02*
X138717000Y-86760500I0J237500D01*
G01*
X138717000Y-86260500D01*
G75*
G02*
X138954500Y-86023000I237500J0D01*
G01*
G37*
G36*
G01*
X138954500Y-84198000D02*
X139429500Y-84198000D01*
G75*
G02*
X139667000Y-84435500I0J-237500D01*
G01*
X139667000Y-84935500D01*
G75*
G02*
X139429500Y-85173000I-237500J0D01*
G01*
X138954500Y-85173000D01*
G75*
G02*
X138717000Y-84935500I0J237500D01*
G01*
X138717000Y-84435500D01*
G75*
G02*
X138954500Y-84198000I237500J0D01*
G01*
G37*
%TD*%
%TO.C,R10*%
G36*
G01*
X137176500Y-84198000D02*
X137651500Y-84198000D01*
G75*
G02*
X137889000Y-84435500I0J-237500D01*
G01*
X137889000Y-84935500D01*
G75*
G02*
X137651500Y-85173000I-237500J0D01*
G01*
X137176500Y-85173000D01*
G75*
G02*
X136939000Y-84935500I0J237500D01*
G01*
X136939000Y-84435500D01*
G75*
G02*
X137176500Y-84198000I237500J0D01*
G01*
G37*
G36*
G01*
X137176500Y-86023000D02*
X137651500Y-86023000D01*
G75*
G02*
X137889000Y-86260500I0J-237500D01*
G01*
X137889000Y-86760500D01*
G75*
G02*
X137651500Y-86998000I-237500J0D01*
G01*
X137176500Y-86998000D01*
G75*
G02*
X136939000Y-86760500I0J237500D01*
G01*
X136939000Y-86260500D01*
G75*
G02*
X137176500Y-86023000I237500J0D01*
G01*
G37*
%TD*%
%TO.C,R11*%
G36*
G01*
X135398500Y-86023000D02*
X135873500Y-86023000D01*
G75*
G02*
X136111000Y-86260500I0J-237500D01*
G01*
X136111000Y-86760500D01*
G75*
G02*
X135873500Y-86998000I-237500J0D01*
G01*
X135398500Y-86998000D01*
G75*
G02*
X135161000Y-86760500I0J237500D01*
G01*
X135161000Y-86260500D01*
G75*
G02*
X135398500Y-86023000I237500J0D01*
G01*
G37*
G36*
G01*
X135398500Y-84198000D02*
X135873500Y-84198000D01*
G75*
G02*
X136111000Y-84435500I0J-237500D01*
G01*
X136111000Y-84935500D01*
G75*
G02*
X135873500Y-85173000I-237500J0D01*
G01*
X135398500Y-85173000D01*
G75*
G02*
X135161000Y-84935500I0J237500D01*
G01*
X135161000Y-84435500D01*
G75*
G02*
X135398500Y-84198000I237500J0D01*
G01*
G37*
%TD*%
%TO.C,R12*%
G36*
G01*
X144034500Y-84198000D02*
X144509500Y-84198000D01*
G75*
G02*
X144747000Y-84435500I0J-237500D01*
G01*
X144747000Y-84935500D01*
G75*
G02*
X144509500Y-85173000I-237500J0D01*
G01*
X144034500Y-85173000D01*
G75*
G02*
X143797000Y-84935500I0J237500D01*
G01*
X143797000Y-84435500D01*
G75*
G02*
X144034500Y-84198000I237500J0D01*
G01*
G37*
G36*
G01*
X144034500Y-86023000D02*
X144509500Y-86023000D01*
G75*
G02*
X144747000Y-86260500I0J-237500D01*
G01*
X144747000Y-86760500D01*
G75*
G02*
X144509500Y-86998000I-237500J0D01*
G01*
X144034500Y-86998000D01*
G75*
G02*
X143797000Y-86760500I0J237500D01*
G01*
X143797000Y-86260500D01*
G75*
G02*
X144034500Y-86023000I237500J0D01*
G01*
G37*
%TD*%
%TO.C,R13*%
G36*
G01*
X142985500Y-85173000D02*
X142510500Y-85173000D01*
G75*
G02*
X142273000Y-84935500I0J237500D01*
G01*
X142273000Y-84435500D01*
G75*
G02*
X142510500Y-84198000I237500J0D01*
G01*
X142985500Y-84198000D01*
G75*
G02*
X143223000Y-84435500I0J-237500D01*
G01*
X143223000Y-84935500D01*
G75*
G02*
X142985500Y-85173000I-237500J0D01*
G01*
G37*
G36*
G01*
X142985500Y-86998000D02*
X142510500Y-86998000D01*
G75*
G02*
X142273000Y-86760500I0J237500D01*
G01*
X142273000Y-86260500D01*
G75*
G02*
X142510500Y-86023000I237500J0D01*
G01*
X142985500Y-86023000D01*
G75*
G02*
X143223000Y-86260500I0J-237500D01*
G01*
X143223000Y-86760500D01*
G75*
G02*
X142985500Y-86998000I-237500J0D01*
G01*
G37*
%TD*%
D16*
%TO.C,S1*%
X113740000Y-79720000D03*
X107240000Y-79720000D03*
X113740000Y-75220000D03*
X107240000Y-75220000D03*
%TD*%
D17*
%TO.C,H1*%
X97790000Y-77470000D03*
%TD*%
%TO.C,H2*%
X172720000Y-77470000D03*
%TD*%
%TO.C,H3*%
X97790000Y-123190000D03*
%TD*%
%TO.C,H4*%
X172720000Y-123190000D03*
%TD*%
D18*
%TO.C,J1*%
X100965000Y-103725000D03*
X96215000Y-111125000D03*
X96215000Y-103725000D03*
X100965000Y-111125000D03*
D19*
X100665000Y-106625000D03*
X101865000Y-107425000D03*
X101865000Y-109025000D03*
X101865000Y-105825000D03*
X100665000Y-108225000D03*
%TD*%
M02*
