%TF.GenerationSoftware,KiCad,Pcbnew,(5.1.9)-1*%
%TF.CreationDate,2021-02-04T20:28:27-06:00*%
%TF.ProjectId,Intel_10M02SCE144_Breakout_Board,496e7465-6c5f-4313-904d-303253434531,rev?*%
%TF.SameCoordinates,Original*%
%TF.FileFunction,Soldermask,Top*%
%TF.FilePolarity,Negative*%
%FSLAX46Y46*%
G04 Gerber Fmt 4.6, Leading zero omitted, Abs format (unit mm)*
G04 Created by KiCad (PCBNEW (5.1.9)-1) date 2021-02-04 20:28:27*
%MOMM*%
%LPD*%
G01*
G04 APERTURE LIST*
%ADD10R,1.475000X0.300000*%
%ADD11R,0.300000X1.475000*%
%ADD12C,1.200000*%
%ADD13R,1.200000X1.200000*%
%ADD14C,1.800000*%
%ADD15R,1.800000X1.800000*%
%ADD16R,1.700000X1.700000*%
%ADD17O,1.700000X1.700000*%
%ADD18R,3.200000X1.900000*%
%ADD19R,0.900000X1.900000*%
%ADD20C,1.500000*%
%ADD21R,1.800000X2.000000*%
%ADD22C,3.200000*%
%ADD23O,2.100000X1.000000*%
%ADD24C,1.100000*%
G04 APERTURE END LIST*
D10*
%TO.C,U1*%
X130232000Y-91580000D03*
X130232000Y-92080000D03*
X130232000Y-92580000D03*
X130232000Y-93080000D03*
X130232000Y-93580000D03*
X130232000Y-94080000D03*
X130232000Y-94580000D03*
X130232000Y-95080000D03*
X130232000Y-95580000D03*
X130232000Y-96080000D03*
X130232000Y-96580000D03*
X130232000Y-97080000D03*
X130232000Y-97580000D03*
X130232000Y-98080000D03*
X130232000Y-98580000D03*
X130232000Y-99080000D03*
X130232000Y-99580000D03*
X130232000Y-100080000D03*
X130232000Y-100580000D03*
X130232000Y-101080000D03*
X130232000Y-101580000D03*
X130232000Y-102080000D03*
X130232000Y-102580000D03*
X130232000Y-103080000D03*
X130232000Y-103580000D03*
X130232000Y-104080000D03*
X130232000Y-104580000D03*
X130232000Y-105080000D03*
X130232000Y-105580000D03*
X130232000Y-106080000D03*
X130232000Y-106580000D03*
X130232000Y-107080000D03*
X130232000Y-107580000D03*
X130232000Y-108080000D03*
X130232000Y-108580000D03*
X130232000Y-109080000D03*
D11*
X132220000Y-111068000D03*
X132720000Y-111068000D03*
X133220000Y-111068000D03*
X133720000Y-111068000D03*
X134220000Y-111068000D03*
X134720000Y-111068000D03*
X135220000Y-111068000D03*
X135720000Y-111068000D03*
X136220000Y-111068000D03*
X136720000Y-111068000D03*
X137220000Y-111068000D03*
X137720000Y-111068000D03*
X138220000Y-111068000D03*
X138720000Y-111068000D03*
X139220000Y-111068000D03*
X139720000Y-111068000D03*
X140220000Y-111068000D03*
X140720000Y-111068000D03*
X141220000Y-111068000D03*
X141720000Y-111068000D03*
X142220000Y-111068000D03*
X142720000Y-111068000D03*
X143220000Y-111068000D03*
X143720000Y-111068000D03*
X144220000Y-111068000D03*
X144720000Y-111068000D03*
X145220000Y-111068000D03*
X145720000Y-111068000D03*
X146220000Y-111068000D03*
X146720000Y-111068000D03*
X147220000Y-111068000D03*
X147720000Y-111068000D03*
X148220000Y-111068000D03*
X148720000Y-111068000D03*
X149220000Y-111068000D03*
X149720000Y-111068000D03*
D10*
X151708000Y-109080000D03*
X151708000Y-108580000D03*
X151708000Y-108080000D03*
X151708000Y-107580000D03*
X151708000Y-107080000D03*
X151708000Y-106580000D03*
X151708000Y-106080000D03*
X151708000Y-105580000D03*
X151708000Y-105080000D03*
X151708000Y-104580000D03*
X151708000Y-104080000D03*
X151708000Y-103580000D03*
X151708000Y-103080000D03*
X151708000Y-102580000D03*
X151708000Y-102080000D03*
X151708000Y-101580000D03*
X151708000Y-101080000D03*
X151708000Y-100580000D03*
X151708000Y-100080000D03*
X151708000Y-99580000D03*
X151708000Y-99080000D03*
X151708000Y-98580000D03*
X151708000Y-98080000D03*
X151708000Y-97580000D03*
X151708000Y-97080000D03*
X151708000Y-96580000D03*
X151708000Y-96080000D03*
X151708000Y-95580000D03*
X151708000Y-95080000D03*
X151708000Y-94580000D03*
X151708000Y-94080000D03*
X151708000Y-93580000D03*
X151708000Y-93080000D03*
X151708000Y-92580000D03*
X151708000Y-92080000D03*
X151708000Y-91580000D03*
D11*
X149720000Y-89592000D03*
X149220000Y-89592000D03*
X148720000Y-89592000D03*
X148220000Y-89592000D03*
X147720000Y-89592000D03*
X147220000Y-89592000D03*
X146720000Y-89592000D03*
X146220000Y-89592000D03*
X145720000Y-89592000D03*
X145220000Y-89592000D03*
X144720000Y-89592000D03*
X144220000Y-89592000D03*
X143720000Y-89592000D03*
X143220000Y-89592000D03*
X142720000Y-89592000D03*
X142220000Y-89592000D03*
X141720000Y-89592000D03*
X141220000Y-89592000D03*
X140720000Y-89592000D03*
X140220000Y-89592000D03*
X139720000Y-89592000D03*
X139220000Y-89592000D03*
X138720000Y-89592000D03*
X138220000Y-89592000D03*
X137720000Y-89592000D03*
X137220000Y-89592000D03*
X136720000Y-89592000D03*
X136220000Y-89592000D03*
X135720000Y-89592000D03*
X135220000Y-89592000D03*
X134720000Y-89592000D03*
X134220000Y-89592000D03*
X133720000Y-89592000D03*
X133220000Y-89592000D03*
X132720000Y-89592000D03*
X132220000Y-89592000D03*
%TD*%
D12*
%TO.C,C1*%
X104870000Y-115570000D03*
D13*
X102870000Y-115570000D03*
%TD*%
%TO.C,C2*%
X108490000Y-115570000D03*
D12*
X110490000Y-115570000D03*
%TD*%
%TO.C,C3*%
G36*
G01*
X117331500Y-103561000D02*
X116856500Y-103561000D01*
G75*
G02*
X116619000Y-103323500I0J237500D01*
G01*
X116619000Y-102723500D01*
G75*
G02*
X116856500Y-102486000I237500J0D01*
G01*
X117331500Y-102486000D01*
G75*
G02*
X117569000Y-102723500I0J-237500D01*
G01*
X117569000Y-103323500D01*
G75*
G02*
X117331500Y-103561000I-237500J0D01*
G01*
G37*
G36*
G01*
X117331500Y-105286000D02*
X116856500Y-105286000D01*
G75*
G02*
X116619000Y-105048500I0J237500D01*
G01*
X116619000Y-104448500D01*
G75*
G02*
X116856500Y-104211000I237500J0D01*
G01*
X117331500Y-104211000D01*
G75*
G02*
X117569000Y-104448500I0J-237500D01*
G01*
X117569000Y-105048500D01*
G75*
G02*
X117331500Y-105286000I-237500J0D01*
G01*
G37*
%TD*%
D14*
%TO.C,D1*%
X99060000Y-115570000D03*
D15*
X96520000Y-115570000D03*
%TD*%
%TO.C,D2*%
X109220000Y-83820000D03*
D14*
X111760000Y-83820000D03*
%TD*%
D16*
%TO.C,J2*%
X107950000Y-124460000D03*
D17*
X107950000Y-121920000D03*
X110490000Y-124460000D03*
X110490000Y-121920000D03*
%TD*%
%TO.C,J3*%
X166370000Y-121920000D03*
X166370000Y-124460000D03*
X163830000Y-121920000D03*
X163830000Y-124460000D03*
X161290000Y-121920000D03*
X161290000Y-124460000D03*
X158750000Y-121920000D03*
X158750000Y-124460000D03*
X156210000Y-121920000D03*
X156210000Y-124460000D03*
X153670000Y-121920000D03*
X153670000Y-124460000D03*
X151130000Y-121920000D03*
X151130000Y-124460000D03*
X148590000Y-121920000D03*
X148590000Y-124460000D03*
X146050000Y-121920000D03*
X146050000Y-124460000D03*
X143510000Y-121920000D03*
X143510000Y-124460000D03*
X140970000Y-121920000D03*
X140970000Y-124460000D03*
X138430000Y-121920000D03*
X138430000Y-124460000D03*
X135890000Y-121920000D03*
X135890000Y-124460000D03*
X133350000Y-121920000D03*
X133350000Y-124460000D03*
X130810000Y-121920000D03*
X130810000Y-124460000D03*
X128270000Y-121920000D03*
X128270000Y-124460000D03*
X125730000Y-121920000D03*
X125730000Y-124460000D03*
X123190000Y-121920000D03*
X123190000Y-124460000D03*
X120650000Y-121920000D03*
X120650000Y-124460000D03*
X118110000Y-121920000D03*
D16*
X118110000Y-124460000D03*
%TD*%
%TO.C,J4*%
X173990000Y-116840000D03*
D17*
X171450000Y-116840000D03*
X173990000Y-114300000D03*
X171450000Y-114300000D03*
X173990000Y-111760000D03*
X171450000Y-111760000D03*
X173990000Y-109220000D03*
X171450000Y-109220000D03*
X173990000Y-106680000D03*
X171450000Y-106680000D03*
X173990000Y-104140000D03*
X171450000Y-104140000D03*
X173990000Y-101600000D03*
X171450000Y-101600000D03*
X173990000Y-99060000D03*
X171450000Y-99060000D03*
X173990000Y-96520000D03*
X171450000Y-96520000D03*
X173990000Y-93980000D03*
X171450000Y-93980000D03*
X173990000Y-91440000D03*
X171450000Y-91440000D03*
X173990000Y-88900000D03*
X171450000Y-88900000D03*
X173990000Y-86360000D03*
X171450000Y-86360000D03*
X173990000Y-83820000D03*
X171450000Y-83820000D03*
%TD*%
D16*
%TO.C,J5*%
X118110000Y-78740000D03*
D17*
X118110000Y-76200000D03*
X120650000Y-78740000D03*
X120650000Y-76200000D03*
X123190000Y-78740000D03*
X123190000Y-76200000D03*
X125730000Y-78740000D03*
X125730000Y-76200000D03*
X128270000Y-78740000D03*
X128270000Y-76200000D03*
X130810000Y-78740000D03*
X130810000Y-76200000D03*
X133350000Y-78740000D03*
X133350000Y-76200000D03*
X135890000Y-78740000D03*
X135890000Y-76200000D03*
X138430000Y-78740000D03*
X138430000Y-76200000D03*
X140970000Y-78740000D03*
X140970000Y-76200000D03*
X143510000Y-78740000D03*
X143510000Y-76200000D03*
X146050000Y-78740000D03*
X146050000Y-76200000D03*
X148590000Y-78740000D03*
X148590000Y-76200000D03*
X151130000Y-78740000D03*
X151130000Y-76200000D03*
X153670000Y-78740000D03*
X153670000Y-76200000D03*
X156210000Y-78740000D03*
X156210000Y-76200000D03*
X158750000Y-78740000D03*
X158750000Y-76200000D03*
X161290000Y-78740000D03*
X161290000Y-76200000D03*
X163830000Y-78740000D03*
X163830000Y-76200000D03*
X166370000Y-78740000D03*
X166370000Y-76200000D03*
%TD*%
D16*
%TO.C,J6*%
X96520000Y-86360000D03*
D17*
X99060000Y-86360000D03*
X96520000Y-88900000D03*
X99060000Y-88900000D03*
X96520000Y-91440000D03*
X99060000Y-91440000D03*
X96520000Y-93980000D03*
X99060000Y-93980000D03*
X96520000Y-96520000D03*
X99060000Y-96520000D03*
%TD*%
D18*
%TO.C,PS1*%
X107315000Y-103757000D03*
D19*
X109615000Y-109857000D03*
X107315000Y-109857000D03*
X105015000Y-109857000D03*
%TD*%
%TO.C,R1*%
G36*
G01*
X101470000Y-120887500D02*
X101470000Y-120412500D01*
G75*
G02*
X101707500Y-120175000I237500J0D01*
G01*
X102207500Y-120175000D01*
G75*
G02*
X102445000Y-120412500I0J-237500D01*
G01*
X102445000Y-120887500D01*
G75*
G02*
X102207500Y-121125000I-237500J0D01*
G01*
X101707500Y-121125000D01*
G75*
G02*
X101470000Y-120887500I0J237500D01*
G01*
G37*
G36*
G01*
X103295000Y-120887500D02*
X103295000Y-120412500D01*
G75*
G02*
X103532500Y-120175000I237500J0D01*
G01*
X104032500Y-120175000D01*
G75*
G02*
X104270000Y-120412500I0J-237500D01*
G01*
X104270000Y-120887500D01*
G75*
G02*
X104032500Y-121125000I-237500J0D01*
G01*
X103532500Y-121125000D01*
G75*
G02*
X103295000Y-120887500I0J237500D01*
G01*
G37*
%TD*%
%TO.C,R14*%
G36*
G01*
X104377500Y-75775000D02*
X103902500Y-75775000D01*
G75*
G02*
X103665000Y-75537500I0J237500D01*
G01*
X103665000Y-75037500D01*
G75*
G02*
X103902500Y-74800000I237500J0D01*
G01*
X104377500Y-74800000D01*
G75*
G02*
X104615000Y-75037500I0J-237500D01*
G01*
X104615000Y-75537500D01*
G75*
G02*
X104377500Y-75775000I-237500J0D01*
G01*
G37*
G36*
G01*
X104377500Y-77600000D02*
X103902500Y-77600000D01*
G75*
G02*
X103665000Y-77362500I0J237500D01*
G01*
X103665000Y-76862500D01*
G75*
G02*
X103902500Y-76625000I237500J0D01*
G01*
X104377500Y-76625000D01*
G75*
G02*
X104615000Y-76862500I0J-237500D01*
G01*
X104615000Y-77362500D01*
G75*
G02*
X104377500Y-77600000I-237500J0D01*
G01*
G37*
%TD*%
%TO.C,R15*%
G36*
G01*
X114170000Y-84057500D02*
X114170000Y-83582500D01*
G75*
G02*
X114407500Y-83345000I237500J0D01*
G01*
X114907500Y-83345000D01*
G75*
G02*
X115145000Y-83582500I0J-237500D01*
G01*
X115145000Y-84057500D01*
G75*
G02*
X114907500Y-84295000I-237500J0D01*
G01*
X114407500Y-84295000D01*
G75*
G02*
X114170000Y-84057500I0J237500D01*
G01*
G37*
G36*
G01*
X115995000Y-84057500D02*
X115995000Y-83582500D01*
G75*
G02*
X116232500Y-83345000I237500J0D01*
G01*
X116732500Y-83345000D01*
G75*
G02*
X116970000Y-83582500I0J-237500D01*
G01*
X116970000Y-84057500D01*
G75*
G02*
X116732500Y-84295000I-237500J0D01*
G01*
X116232500Y-84295000D01*
G75*
G02*
X115995000Y-84057500I0J237500D01*
G01*
G37*
%TD*%
D20*
%TO.C,S1*%
X113740000Y-79720000D03*
X107240000Y-79720000D03*
X113740000Y-75220000D03*
X107240000Y-75220000D03*
%TD*%
D21*
%TO.C,Y1*%
X119634000Y-101786000D03*
X124714000Y-101786000D03*
X124714000Y-105986000D03*
X119634000Y-105986000D03*
%TD*%
D22*
%TO.C,H1*%
X97790000Y-77470000D03*
%TD*%
%TO.C,H2*%
X172720000Y-77470000D03*
%TD*%
%TO.C,H3*%
X97790000Y-123190000D03*
%TD*%
%TO.C,H4*%
X172720000Y-123190000D03*
%TD*%
D23*
%TO.C,J1*%
X100965000Y-103725000D03*
X96215000Y-111125000D03*
X96215000Y-103725000D03*
X100965000Y-111125000D03*
D24*
X100665000Y-106625000D03*
X101865000Y-107425000D03*
X101865000Y-109025000D03*
X101865000Y-105825000D03*
X100665000Y-108225000D03*
%TD*%
M02*
