%TF.GenerationSoftware,KiCad,Pcbnew,(5.1.9)-1*%
%TF.CreationDate,2021-02-04T20:28:27-06:00*%
%TF.ProjectId,Intel_10M02SCE144_Breakout_Board,496e7465-6c5f-4313-904d-303253434531,rev?*%
%TF.SameCoordinates,Original*%
%TF.FileFunction,Copper,L1,Top*%
%TF.FilePolarity,Positive*%
%FSLAX46Y46*%
G04 Gerber Fmt 4.6, Leading zero omitted, Abs format (unit mm)*
G04 Created by KiCad (PCBNEW (5.1.9)-1) date 2021-02-04 20:28:27*
%MOMM*%
%LPD*%
G01*
G04 APERTURE LIST*
%TA.AperFunction,SMDPad,CuDef*%
%ADD10R,1.475000X0.300000*%
%TD*%
%TA.AperFunction,SMDPad,CuDef*%
%ADD11R,0.300000X1.475000*%
%TD*%
%TA.AperFunction,ComponentPad*%
%ADD12C,1.200000*%
%TD*%
%TA.AperFunction,ComponentPad*%
%ADD13R,1.200000X1.200000*%
%TD*%
%TA.AperFunction,ComponentPad*%
%ADD14C,1.800000*%
%TD*%
%TA.AperFunction,ComponentPad*%
%ADD15R,1.800000X1.800000*%
%TD*%
%TA.AperFunction,ComponentPad*%
%ADD16R,1.700000X1.700000*%
%TD*%
%TA.AperFunction,ComponentPad*%
%ADD17O,1.700000X1.700000*%
%TD*%
%TA.AperFunction,SMDPad,CuDef*%
%ADD18R,3.200000X1.900000*%
%TD*%
%TA.AperFunction,SMDPad,CuDef*%
%ADD19R,0.900000X1.900000*%
%TD*%
%TA.AperFunction,ComponentPad*%
%ADD20C,1.500000*%
%TD*%
%TA.AperFunction,SMDPad,CuDef*%
%ADD21R,1.800000X2.000000*%
%TD*%
%TA.AperFunction,ComponentPad*%
%ADD22O,2.100000X1.000000*%
%TD*%
%TA.AperFunction,ComponentPad*%
%ADD23C,1.100000*%
%TD*%
%TA.AperFunction,ViaPad*%
%ADD24C,0.800000*%
%TD*%
%TA.AperFunction,Conductor*%
%ADD25C,0.300000*%
%TD*%
%TA.AperFunction,Conductor*%
%ADD26C,0.250000*%
%TD*%
%TA.AperFunction,Conductor*%
%ADD27C,0.700000*%
%TD*%
%TA.AperFunction,Conductor*%
%ADD28C,1.000000*%
%TD*%
%TA.AperFunction,Conductor*%
%ADD29C,0.254000*%
%TD*%
%TA.AperFunction,Conductor*%
%ADD30C,0.100000*%
%TD*%
G04 APERTURE END LIST*
D10*
%TO.P,U1,1*%
%TO.N,H_VCC*%
X130232000Y-91580000D03*
%TO.P,U1,2*%
X130232000Y-92080000D03*
%TO.P,U1,3*%
%TO.N,IO_3*%
X130232000Y-92580000D03*
%TO.P,U1,4*%
%TO.N,IO_4*%
X130232000Y-93080000D03*
%TO.P,U1,5*%
%TO.N,IO_5*%
X130232000Y-93580000D03*
%TO.P,U1,6*%
%TO.N,IO_6*%
X130232000Y-94080000D03*
%TO.P,U1,7*%
%TO.N,IO_7*%
X130232000Y-94580000D03*
%TO.P,U1,8*%
%TO.N,IO_8*%
X130232000Y-95080000D03*
%TO.P,U1,9*%
%TO.N,~RESET*%
X130232000Y-95580000D03*
%TO.P,U1,10*%
%TO.N,USER_LED*%
X130232000Y-96080000D03*
%TO.P,U1,11*%
%TO.N,H_GND*%
X130232000Y-96580000D03*
%TO.P,U1,12*%
%TO.N,H_VCC*%
X130232000Y-97080000D03*
%TO.P,U1,13*%
%TO.N,JEN*%
X130232000Y-97580000D03*
%TO.P,U1,14*%
%TO.N,Net-(U1-Pad14)*%
X130232000Y-98080000D03*
%TO.P,U1,15*%
%TO.N,TMS*%
X130232000Y-98580000D03*
%TO.P,U1,16*%
%TO.N,TCK*%
X130232000Y-99080000D03*
%TO.P,U1,17*%
%TO.N,TDI*%
X130232000Y-99580000D03*
%TO.P,U1,18*%
%TO.N,TDO*%
X130232000Y-100080000D03*
%TO.P,U1,19*%
%TO.N,Net-(U1-Pad19)*%
X130232000Y-100580000D03*
%TO.P,U1,20*%
%TO.N,H_GND*%
X130232000Y-101080000D03*
%TO.P,U1,21*%
%TO.N,Net-(U1-Pad21)*%
X130232000Y-101580000D03*
%TO.P,U1,22*%
%TO.N,H_VCC*%
X130232000Y-102080000D03*
%TO.P,U1,23*%
%TO.N,Net-(U1-Pad23)*%
X130232000Y-102580000D03*
%TO.P,U1,24*%
%TO.N,Net-(U1-Pad24)*%
X130232000Y-103080000D03*
%TO.P,U1,25*%
%TO.N,Net-(U1-Pad25)*%
X130232000Y-103580000D03*
%TO.P,U1,26*%
%TO.N,50MHz_CLK*%
X130232000Y-104080000D03*
%TO.P,U1,27*%
%TO.N,IO_27*%
X130232000Y-104580000D03*
%TO.P,U1,28*%
%TO.N,IO_28*%
X130232000Y-105080000D03*
%TO.P,U1,29*%
%TO.N,H_VCC*%
X130232000Y-105580000D03*
%TO.P,U1,30*%
%TO.N,H_GND*%
X130232000Y-106080000D03*
%TO.P,U1,31*%
%TO.N,IO_31*%
X130232000Y-106580000D03*
%TO.P,U1,32*%
%TO.N,IO_32*%
X130232000Y-107080000D03*
%TO.P,U1,33*%
%TO.N,IO_33*%
X130232000Y-107580000D03*
%TO.P,U1,34*%
%TO.N,H_VCC*%
X130232000Y-108080000D03*
%TO.P,U1,35*%
X130232000Y-108580000D03*
%TO.P,U1,36*%
X130232000Y-109080000D03*
D11*
%TO.P,U1,37*%
X132220000Y-111068000D03*
%TO.P,U1,38*%
%TO.N,H_GND*%
X132720000Y-111068000D03*
%TO.P,U1,39*%
%TO.N,IO_39*%
X133220000Y-111068000D03*
%TO.P,U1,40*%
%TO.N,IO_40*%
X133720000Y-111068000D03*
%TO.P,U1,41*%
%TO.N,IO_41*%
X134220000Y-111068000D03*
%TO.P,U1,42*%
%TO.N,IO_42*%
X134720000Y-111068000D03*
%TO.P,U1,43*%
%TO.N,H_VCC*%
X135220000Y-111068000D03*
%TO.P,U1,44*%
%TO.N,IO_44*%
X135720000Y-111068000D03*
%TO.P,U1,45*%
%TO.N,H_GND*%
X136220000Y-111068000D03*
%TO.P,U1,46*%
%TO.N,IO_46*%
X136720000Y-111068000D03*
%TO.P,U1,47*%
%TO.N,IO_47*%
X137220000Y-111068000D03*
%TO.P,U1,48*%
%TO.N,IO_48*%
X137720000Y-111068000D03*
%TO.P,U1,49*%
%TO.N,IO_49*%
X138220000Y-111068000D03*
%TO.P,U1,50*%
%TO.N,IO_50*%
X138720000Y-111068000D03*
%TO.P,U1,51*%
%TO.N,IO_51*%
X139220000Y-111068000D03*
%TO.P,U1,52*%
%TO.N,IO_52*%
X139720000Y-111068000D03*
%TO.P,U1,53*%
%TO.N,IO_53*%
X140220000Y-111068000D03*
%TO.P,U1,54*%
%TO.N,IO_54*%
X140720000Y-111068000D03*
%TO.P,U1,55*%
%TO.N,IO_55*%
X141220000Y-111068000D03*
%TO.P,U1,56*%
%TO.N,H_VCC*%
X141720000Y-111068000D03*
%TO.P,U1,57*%
%TO.N,H_GND*%
X142220000Y-111068000D03*
%TO.P,U1,58*%
%TO.N,H_VCC*%
X142720000Y-111068000D03*
%TO.P,U1,59*%
%TO.N,IO_59*%
X143220000Y-111068000D03*
%TO.P,U1,60*%
%TO.N,IO_60*%
X143720000Y-111068000D03*
%TO.P,U1,61*%
%TO.N,IO_61*%
X144220000Y-111068000D03*
%TO.P,U1,62*%
%TO.N,IO_62*%
X144720000Y-111068000D03*
%TO.P,U1,63*%
%TO.N,IO_63*%
X145220000Y-111068000D03*
%TO.P,U1,64*%
%TO.N,H_VCC*%
X145720000Y-111068000D03*
%TO.P,U1,65*%
%TO.N,IO_65*%
X146220000Y-111068000D03*
%TO.P,U1,66*%
%TO.N,H_GND*%
X146720000Y-111068000D03*
%TO.P,U1,67*%
%TO.N,IO_67*%
X147220000Y-111068000D03*
%TO.P,U1,68*%
%TO.N,IO_68*%
X147720000Y-111068000D03*
%TO.P,U1,69*%
%TO.N,IO_69*%
X148220000Y-111068000D03*
%TO.P,U1,70*%
%TO.N,IO_70*%
X148720000Y-111068000D03*
%TO.P,U1,71*%
%TO.N,H_VCC*%
X149220000Y-111068000D03*
%TO.P,U1,72*%
X149720000Y-111068000D03*
D10*
%TO.P,U1,73*%
X151708000Y-109080000D03*
%TO.P,U1,74*%
%TO.N,IO_74*%
X151708000Y-108580000D03*
%TO.P,U1,75*%
%TO.N,IO_75*%
X151708000Y-108080000D03*
%TO.P,U1,76*%
%TO.N,IO_76*%
X151708000Y-107580000D03*
%TO.P,U1,77*%
%TO.N,IO_77*%
X151708000Y-107080000D03*
%TO.P,U1,78*%
%TO.N,IO_78*%
X151708000Y-106580000D03*
%TO.P,U1,79*%
%TO.N,IO_79*%
X151708000Y-106080000D03*
%TO.P,U1,80*%
%TO.N,IO_80*%
X151708000Y-105580000D03*
%TO.P,U1,81*%
%TO.N,IO_81*%
X151708000Y-105080000D03*
%TO.P,U1,82*%
%TO.N,H_VCC*%
X151708000Y-104580000D03*
%TO.P,U1,83*%
%TO.N,H_GND*%
X151708000Y-104080000D03*
%TO.P,U1,84*%
%TO.N,IO_84*%
X151708000Y-103580000D03*
%TO.P,U1,85*%
%TO.N,IO_85*%
X151708000Y-103080000D03*
%TO.P,U1,86*%
%TO.N,IO_86*%
X151708000Y-102580000D03*
%TO.P,U1,87*%
%TO.N,IO_87*%
X151708000Y-102080000D03*
%TO.P,U1,88*%
%TO.N,IO_88*%
X151708000Y-101580000D03*
%TO.P,U1,89*%
%TO.N,IO_89*%
X151708000Y-101080000D03*
%TO.P,U1,90*%
%TO.N,IO_90*%
X151708000Y-100580000D03*
%TO.P,U1,91*%
%TO.N,IO_91*%
X151708000Y-100080000D03*
%TO.P,U1,92*%
%TO.N,IO_92*%
X151708000Y-99580000D03*
%TO.P,U1,93*%
%TO.N,H_VCC*%
X151708000Y-99080000D03*
%TO.P,U1,94*%
%TO.N,IO_94*%
X151708000Y-98580000D03*
%TO.P,U1,95*%
%TO.N,IO_95*%
X151708000Y-98080000D03*
%TO.P,U1,96*%
%TO.N,H_GND*%
X151708000Y-97580000D03*
%TO.P,U1,97*%
%TO.N,IO_97*%
X151708000Y-97080000D03*
%TO.P,U1,98*%
%TO.N,IO_98*%
X151708000Y-96580000D03*
%TO.P,U1,99*%
%TO.N,IO_99*%
X151708000Y-96080000D03*
%TO.P,U1,100*%
%TO.N,IO_100*%
X151708000Y-95580000D03*
%TO.P,U1,101*%
%TO.N,IO_101*%
X151708000Y-95080000D03*
%TO.P,U1,102*%
%TO.N,H_VCC*%
X151708000Y-94580000D03*
%TO.P,U1,103*%
%TO.N,IO_103*%
X151708000Y-94080000D03*
%TO.P,U1,104*%
%TO.N,H_GND*%
X151708000Y-93580000D03*
%TO.P,U1,105*%
%TO.N,IO_105*%
X151708000Y-93080000D03*
%TO.P,U1,106*%
%TO.N,IO_106*%
X151708000Y-92580000D03*
%TO.P,U1,107*%
%TO.N,H_VCC*%
X151708000Y-92080000D03*
%TO.P,U1,108*%
X151708000Y-91580000D03*
D11*
%TO.P,U1,109*%
X149720000Y-89592000D03*
%TO.P,U1,110*%
%TO.N,H_GND*%
X149220000Y-89592000D03*
%TO.P,U1,111*%
%TO.N,H_VCC*%
X148720000Y-89592000D03*
%TO.P,U1,112*%
%TO.N,IO_112*%
X148220000Y-89592000D03*
%TO.P,U1,113*%
%TO.N,Net-(R6-Pad2)*%
X147720000Y-89592000D03*
%TO.P,U1,114*%
%TO.N,IO_114*%
X147220000Y-89592000D03*
%TO.P,U1,115*%
%TO.N,Net-(R7-Pad2)*%
X146720000Y-89592000D03*
%TO.P,U1,116*%
%TO.N,IO_116*%
X146220000Y-89592000D03*
%TO.P,U1,117*%
%TO.N,IO_117*%
X145720000Y-89592000D03*
%TO.P,U1,118*%
%TO.N,H_VCC*%
X145220000Y-89592000D03*
%TO.P,U1,119*%
%TO.N,H_GND*%
X144720000Y-89592000D03*
%TO.P,U1,120*%
%TO.N,Net-(R12-Pad2)*%
X144220000Y-89592000D03*
%TO.P,U1,121*%
%TO.N,H_VCC*%
X143720000Y-89592000D03*
%TO.P,U1,122*%
%TO.N,Net-(R8-Pad2)*%
X143220000Y-89592000D03*
%TO.P,U1,123*%
%TO.N,IO_123*%
X142720000Y-89592000D03*
%TO.P,U1,124*%
%TO.N,IO_124*%
X142220000Y-89592000D03*
%TO.P,U1,125*%
%TO.N,IO_125*%
X141720000Y-89592000D03*
%TO.P,U1,126*%
%TO.N,IO_126*%
X141220000Y-89592000D03*
%TO.P,U1,127*%
%TO.N,IO_127*%
X140720000Y-89592000D03*
%TO.P,U1,128*%
%TO.N,IO_128*%
X140220000Y-89592000D03*
%TO.P,U1,129*%
%TO.N,IO_129*%
X139720000Y-89592000D03*
%TO.P,U1,130*%
%TO.N,Net-(R9-Pad2)*%
X139220000Y-89592000D03*
%TO.P,U1,131*%
%TO.N,Net-(R10-Pad2)*%
X138720000Y-89592000D03*
%TO.P,U1,132*%
%TO.N,H_VCC*%
X138220000Y-89592000D03*
%TO.P,U1,133*%
%TO.N,H_GND*%
X137720000Y-89592000D03*
%TO.P,U1,134*%
%TO.N,IO_134*%
X137220000Y-89592000D03*
%TO.P,U1,135*%
%TO.N,Net-(R11-Pad2)*%
X136720000Y-89592000D03*
%TO.P,U1,136*%
%TO.N,H_VCC*%
X136220000Y-89592000D03*
%TO.P,U1,137*%
%TO.N,IO_137*%
X135720000Y-89592000D03*
%TO.P,U1,138*%
%TO.N,IO_138*%
X135220000Y-89592000D03*
%TO.P,U1,139*%
%TO.N,IO_139*%
X134720000Y-89592000D03*
%TO.P,U1,140*%
%TO.N,IO_140*%
X134220000Y-89592000D03*
%TO.P,U1,141*%
%TO.N,IO_141*%
X133720000Y-89592000D03*
%TO.P,U1,142*%
%TO.N,H_VCC*%
X133220000Y-89592000D03*
%TO.P,U1,143*%
%TO.N,H_GND*%
X132720000Y-89592000D03*
%TO.P,U1,144*%
%TO.N,H_VCC*%
X132220000Y-89592000D03*
%TD*%
D12*
%TO.P,C1,2*%
%TO.N,H_GND*%
X104870000Y-115570000D03*
D13*
%TO.P,C1,1*%
%TO.N,+5V*%
X102870000Y-115570000D03*
%TD*%
%TO.P,C2,1*%
%TO.N,H_VCC*%
X108490000Y-115570000D03*
D12*
%TO.P,C2,2*%
%TO.N,H_GND*%
X110490000Y-115570000D03*
%TD*%
%TO.P,C3,2*%
%TO.N,H_VCC*%
%TA.AperFunction,SMDPad,CuDef*%
G36*
G01*
X117331500Y-103561000D02*
X116856500Y-103561000D01*
G75*
G02*
X116619000Y-103323500I0J237500D01*
G01*
X116619000Y-102723500D01*
G75*
G02*
X116856500Y-102486000I237500J0D01*
G01*
X117331500Y-102486000D01*
G75*
G02*
X117569000Y-102723500I0J-237500D01*
G01*
X117569000Y-103323500D01*
G75*
G02*
X117331500Y-103561000I-237500J0D01*
G01*
G37*
%TD.AperFunction*%
%TO.P,C3,1*%
%TO.N,H_GND*%
%TA.AperFunction,SMDPad,CuDef*%
G36*
G01*
X117331500Y-105286000D02*
X116856500Y-105286000D01*
G75*
G02*
X116619000Y-105048500I0J237500D01*
G01*
X116619000Y-104448500D01*
G75*
G02*
X116856500Y-104211000I237500J0D01*
G01*
X117331500Y-104211000D01*
G75*
G02*
X117569000Y-104448500I0J-237500D01*
G01*
X117569000Y-105048500D01*
G75*
G02*
X117331500Y-105286000I-237500J0D01*
G01*
G37*
%TD.AperFunction*%
%TD*%
D14*
%TO.P,D1,2*%
%TO.N,Net-(D1-Pad2)*%
X99060000Y-115570000D03*
D15*
%TO.P,D1,1*%
%TO.N,H_GND*%
X96520000Y-115570000D03*
%TD*%
%TO.P,D2,1*%
%TO.N,H_GND*%
X109220000Y-83820000D03*
D14*
%TO.P,D2,2*%
%TO.N,Net-(D2-Pad2)*%
X111760000Y-83820000D03*
%TD*%
D16*
%TO.P,J2,1*%
%TO.N,+5V*%
X107950000Y-124460000D03*
D17*
%TO.P,J2,2*%
X107950000Y-121920000D03*
%TO.P,J2,3*%
%TO.N,H_GND*%
X110490000Y-124460000D03*
%TO.P,J2,4*%
X110490000Y-121920000D03*
%TD*%
%TO.P,J3,40*%
%TO.N,H_GND*%
X166370000Y-121920000D03*
%TO.P,J3,39*%
X166370000Y-124460000D03*
%TO.P,J3,38*%
%TO.N,IO_70*%
X163830000Y-121920000D03*
%TO.P,J3,37*%
%TO.N,IO_69*%
X163830000Y-124460000D03*
%TO.P,J3,36*%
%TO.N,IO_68*%
X161290000Y-121920000D03*
%TO.P,J3,35*%
%TO.N,IO_67*%
X161290000Y-124460000D03*
%TO.P,J3,34*%
%TO.N,IO_65*%
X158750000Y-121920000D03*
%TO.P,J3,33*%
%TO.N,IO_63*%
X158750000Y-124460000D03*
%TO.P,J3,32*%
%TO.N,IO_62*%
X156210000Y-121920000D03*
%TO.P,J3,31*%
%TO.N,IO_61*%
X156210000Y-124460000D03*
%TO.P,J3,30*%
%TO.N,IO_60*%
X153670000Y-121920000D03*
%TO.P,J3,29*%
%TO.N,IO_59*%
X153670000Y-124460000D03*
%TO.P,J3,28*%
%TO.N,IO_55*%
X151130000Y-121920000D03*
%TO.P,J3,27*%
%TO.N,IO_54*%
X151130000Y-124460000D03*
%TO.P,J3,26*%
%TO.N,IO_53*%
X148590000Y-121920000D03*
%TO.P,J3,25*%
%TO.N,IO_52*%
X148590000Y-124460000D03*
%TO.P,J3,24*%
%TO.N,IO_51*%
X146050000Y-121920000D03*
%TO.P,J3,23*%
%TO.N,IO_50*%
X146050000Y-124460000D03*
%TO.P,J3,22*%
%TO.N,H_VCC*%
X143510000Y-121920000D03*
%TO.P,J3,21*%
X143510000Y-124460000D03*
%TO.P,J3,20*%
%TO.N,H_GND*%
X140970000Y-121920000D03*
%TO.P,J3,19*%
X140970000Y-124460000D03*
%TO.P,J3,18*%
%TO.N,IO_49*%
X138430000Y-121920000D03*
%TO.P,J3,17*%
%TO.N,IO_48*%
X138430000Y-124460000D03*
%TO.P,J3,16*%
%TO.N,IO_47*%
X135890000Y-121920000D03*
%TO.P,J3,15*%
%TO.N,IO_46*%
X135890000Y-124460000D03*
%TO.P,J3,14*%
%TO.N,IO_44*%
X133350000Y-121920000D03*
%TO.P,J3,13*%
%TO.N,IO_42*%
X133350000Y-124460000D03*
%TO.P,J3,12*%
%TO.N,IO_41*%
X130810000Y-121920000D03*
%TO.P,J3,11*%
%TO.N,IO_40*%
X130810000Y-124460000D03*
%TO.P,J3,10*%
%TO.N,IO_39*%
X128270000Y-121920000D03*
%TO.P,J3,9*%
%TO.N,IO_33*%
X128270000Y-124460000D03*
%TO.P,J3,8*%
%TO.N,IO_32*%
X125730000Y-121920000D03*
%TO.P,J3,7*%
%TO.N,IO_31*%
X125730000Y-124460000D03*
%TO.P,J3,6*%
%TO.N,IO_28*%
X123190000Y-121920000D03*
%TO.P,J3,5*%
%TO.N,IO_27*%
X123190000Y-124460000D03*
%TO.P,J3,4*%
%TO.N,H_VCC*%
X120650000Y-121920000D03*
%TO.P,J3,3*%
X120650000Y-124460000D03*
%TO.P,J3,2*%
%TO.N,H_GND*%
X118110000Y-121920000D03*
D16*
%TO.P,J3,1*%
X118110000Y-124460000D03*
%TD*%
%TO.P,J4,1*%
%TO.N,H_GND*%
X173990000Y-116840000D03*
D17*
%TO.P,J4,2*%
X171450000Y-116840000D03*
%TO.P,J4,3*%
%TO.N,H_VCC*%
X173990000Y-114300000D03*
%TO.P,J4,4*%
X171450000Y-114300000D03*
%TO.P,J4,5*%
%TO.N,IO_74*%
X173990000Y-111760000D03*
%TO.P,J4,6*%
%TO.N,IO_75*%
X171450000Y-111760000D03*
%TO.P,J4,7*%
%TO.N,IO_76*%
X173990000Y-109220000D03*
%TO.P,J4,8*%
%TO.N,IO_77*%
X171450000Y-109220000D03*
%TO.P,J4,9*%
%TO.N,IO_78*%
X173990000Y-106680000D03*
%TO.P,J4,10*%
%TO.N,IO_79*%
X171450000Y-106680000D03*
%TO.P,J4,11*%
%TO.N,IO_80*%
X173990000Y-104140000D03*
%TO.P,J4,12*%
%TO.N,IO_81*%
X171450000Y-104140000D03*
%TO.P,J4,13*%
%TO.N,IO_84*%
X173990000Y-101600000D03*
%TO.P,J4,14*%
%TO.N,IO_85*%
X171450000Y-101600000D03*
%TO.P,J4,15*%
%TO.N,IO_86*%
X173990000Y-99060000D03*
%TO.P,J4,16*%
%TO.N,IO_87*%
X171450000Y-99060000D03*
%TO.P,J4,17*%
%TO.N,IO_88*%
X173990000Y-96520000D03*
%TO.P,J4,18*%
%TO.N,IO_89*%
X171450000Y-96520000D03*
%TO.P,J4,19*%
%TO.N,IO_90*%
X173990000Y-93980000D03*
%TO.P,J4,20*%
%TO.N,IO_91*%
X171450000Y-93980000D03*
%TO.P,J4,21*%
%TO.N,IO_92*%
X173990000Y-91440000D03*
%TO.P,J4,22*%
%TO.N,IO_94*%
X171450000Y-91440000D03*
%TO.P,J4,23*%
%TO.N,IO_95*%
X173990000Y-88900000D03*
%TO.P,J4,24*%
%TO.N,IO_97*%
X171450000Y-88900000D03*
%TO.P,J4,25*%
%TO.N,H_VCC*%
X173990000Y-86360000D03*
%TO.P,J4,26*%
X171450000Y-86360000D03*
%TO.P,J4,27*%
%TO.N,H_GND*%
X173990000Y-83820000D03*
%TO.P,J4,28*%
X171450000Y-83820000D03*
%TD*%
D16*
%TO.P,J5,1*%
%TO.N,H_GND*%
X118110000Y-78740000D03*
D17*
%TO.P,J5,2*%
X118110000Y-76200000D03*
%TO.P,J5,3*%
%TO.N,H_VCC*%
X120650000Y-78740000D03*
%TO.P,J5,4*%
X120650000Y-76200000D03*
%TO.P,J5,5*%
%TO.N,IO_7*%
X123190000Y-78740000D03*
%TO.P,J5,6*%
%TO.N,IO_8*%
X123190000Y-76200000D03*
%TO.P,J5,7*%
%TO.N,IO_5*%
X125730000Y-78740000D03*
%TO.P,J5,8*%
%TO.N,IO_6*%
X125730000Y-76200000D03*
%TO.P,J5,9*%
%TO.N,IO_3*%
X128270000Y-78740000D03*
%TO.P,J5,10*%
%TO.N,IO_4*%
X128270000Y-76200000D03*
%TO.P,J5,11*%
%TO.N,IO_141*%
X130810000Y-78740000D03*
%TO.P,J5,12*%
%TO.N,IO_140*%
X130810000Y-76200000D03*
%TO.P,J5,13*%
%TO.N,IO_139*%
X133350000Y-78740000D03*
%TO.P,J5,14*%
%TO.N,IO_138*%
X133350000Y-76200000D03*
%TO.P,J5,15*%
%TO.N,IO_137*%
X135890000Y-78740000D03*
%TO.P,J5,16*%
%TO.N,IO_134*%
X135890000Y-76200000D03*
%TO.P,J5,17*%
%TO.N,IO_129*%
X138430000Y-78740000D03*
%TO.P,J5,18*%
%TO.N,IO_128*%
X138430000Y-76200000D03*
%TO.P,J5,19*%
%TO.N,H_GND*%
X140970000Y-78740000D03*
%TO.P,J5,20*%
X140970000Y-76200000D03*
%TO.P,J5,21*%
%TO.N,H_VCC*%
X143510000Y-78740000D03*
%TO.P,J5,22*%
X143510000Y-76200000D03*
%TO.P,J5,23*%
%TO.N,IO_127*%
X146050000Y-78740000D03*
%TO.P,J5,24*%
%TO.N,IO_126*%
X146050000Y-76200000D03*
%TO.P,J5,25*%
%TO.N,IO_125*%
X148590000Y-78740000D03*
%TO.P,J5,26*%
%TO.N,IO_124*%
X148590000Y-76200000D03*
%TO.P,J5,27*%
%TO.N,IO_123*%
X151130000Y-78740000D03*
%TO.P,J5,28*%
%TO.N,IO_117*%
X151130000Y-76200000D03*
%TO.P,J5,29*%
%TO.N,IO_116*%
X153670000Y-78740000D03*
%TO.P,J5,30*%
%TO.N,IO_114*%
X153670000Y-76200000D03*
%TO.P,J5,31*%
%TO.N,IO_112*%
X156210000Y-78740000D03*
%TO.P,J5,32*%
%TO.N,IO_106*%
X156210000Y-76200000D03*
%TO.P,J5,33*%
%TO.N,IO_105*%
X158750000Y-78740000D03*
%TO.P,J5,34*%
%TO.N,IO_103*%
X158750000Y-76200000D03*
%TO.P,J5,35*%
%TO.N,IO_101*%
X161290000Y-78740000D03*
%TO.P,J5,36*%
%TO.N,IO_100*%
X161290000Y-76200000D03*
%TO.P,J5,37*%
%TO.N,IO_99*%
X163830000Y-78740000D03*
%TO.P,J5,38*%
%TO.N,IO_98*%
X163830000Y-76200000D03*
%TO.P,J5,39*%
%TO.N,H_GND*%
X166370000Y-78740000D03*
%TO.P,J5,40*%
X166370000Y-76200000D03*
%TD*%
D16*
%TO.P,J6,1*%
%TO.N,TCK*%
X96520000Y-86360000D03*
D17*
%TO.P,J6,2*%
%TO.N,H_GND*%
X99060000Y-86360000D03*
%TO.P,J6,3*%
%TO.N,TDO*%
X96520000Y-88900000D03*
%TO.P,J6,4*%
%TO.N,H_VCC*%
X99060000Y-88900000D03*
%TO.P,J6,5*%
%TO.N,TMS*%
X96520000Y-91440000D03*
%TO.P,J6,6*%
%TO.N,Net-(J6-Pad6)*%
X99060000Y-91440000D03*
%TO.P,J6,7*%
%TO.N,Net-(J6-Pad7)*%
X96520000Y-93980000D03*
%TO.P,J6,8*%
%TO.N,JEN*%
X99060000Y-93980000D03*
%TO.P,J6,9*%
%TO.N,TDI*%
X96520000Y-96520000D03*
%TO.P,J6,10*%
%TO.N,H_GND*%
X99060000Y-96520000D03*
%TD*%
D18*
%TO.P,PS1,4*%
%TO.N,H_GND*%
X107315000Y-103757000D03*
D19*
%TO.P,PS1,3*%
%TO.N,H_VCC*%
X109615000Y-109857000D03*
%TO.P,PS1,2*%
%TO.N,H_GND*%
X107315000Y-109857000D03*
%TO.P,PS1,1*%
%TO.N,+5V*%
X105015000Y-109857000D03*
%TD*%
%TO.P,R1,1*%
%TO.N,Net-(D1-Pad2)*%
%TA.AperFunction,SMDPad,CuDef*%
G36*
G01*
X101470000Y-120887500D02*
X101470000Y-120412500D01*
G75*
G02*
X101707500Y-120175000I237500J0D01*
G01*
X102207500Y-120175000D01*
G75*
G02*
X102445000Y-120412500I0J-237500D01*
G01*
X102445000Y-120887500D01*
G75*
G02*
X102207500Y-121125000I-237500J0D01*
G01*
X101707500Y-121125000D01*
G75*
G02*
X101470000Y-120887500I0J237500D01*
G01*
G37*
%TD.AperFunction*%
%TO.P,R1,2*%
%TO.N,H_VCC*%
%TA.AperFunction,SMDPad,CuDef*%
G36*
G01*
X103295000Y-120887500D02*
X103295000Y-120412500D01*
G75*
G02*
X103532500Y-120175000I237500J0D01*
G01*
X104032500Y-120175000D01*
G75*
G02*
X104270000Y-120412500I0J-237500D01*
G01*
X104270000Y-120887500D01*
G75*
G02*
X104032500Y-121125000I-237500J0D01*
G01*
X103532500Y-121125000D01*
G75*
G02*
X103295000Y-120887500I0J237500D01*
G01*
G37*
%TD.AperFunction*%
%TD*%
%TO.P,R14,2*%
%TO.N,~RESET*%
%TA.AperFunction,SMDPad,CuDef*%
G36*
G01*
X104377500Y-75775000D02*
X103902500Y-75775000D01*
G75*
G02*
X103665000Y-75537500I0J237500D01*
G01*
X103665000Y-75037500D01*
G75*
G02*
X103902500Y-74800000I237500J0D01*
G01*
X104377500Y-74800000D01*
G75*
G02*
X104615000Y-75037500I0J-237500D01*
G01*
X104615000Y-75537500D01*
G75*
G02*
X104377500Y-75775000I-237500J0D01*
G01*
G37*
%TD.AperFunction*%
%TO.P,R14,1*%
%TO.N,H_VCC*%
%TA.AperFunction,SMDPad,CuDef*%
G36*
G01*
X104377500Y-77600000D02*
X103902500Y-77600000D01*
G75*
G02*
X103665000Y-77362500I0J237500D01*
G01*
X103665000Y-76862500D01*
G75*
G02*
X103902500Y-76625000I237500J0D01*
G01*
X104377500Y-76625000D01*
G75*
G02*
X104615000Y-76862500I0J-237500D01*
G01*
X104615000Y-77362500D01*
G75*
G02*
X104377500Y-77600000I-237500J0D01*
G01*
G37*
%TD.AperFunction*%
%TD*%
%TO.P,R15,1*%
%TO.N,Net-(D2-Pad2)*%
%TA.AperFunction,SMDPad,CuDef*%
G36*
G01*
X114170000Y-84057500D02*
X114170000Y-83582500D01*
G75*
G02*
X114407500Y-83345000I237500J0D01*
G01*
X114907500Y-83345000D01*
G75*
G02*
X115145000Y-83582500I0J-237500D01*
G01*
X115145000Y-84057500D01*
G75*
G02*
X114907500Y-84295000I-237500J0D01*
G01*
X114407500Y-84295000D01*
G75*
G02*
X114170000Y-84057500I0J237500D01*
G01*
G37*
%TD.AperFunction*%
%TO.P,R15,2*%
%TO.N,USER_LED*%
%TA.AperFunction,SMDPad,CuDef*%
G36*
G01*
X115995000Y-84057500D02*
X115995000Y-83582500D01*
G75*
G02*
X116232500Y-83345000I237500J0D01*
G01*
X116732500Y-83345000D01*
G75*
G02*
X116970000Y-83582500I0J-237500D01*
G01*
X116970000Y-84057500D01*
G75*
G02*
X116732500Y-84295000I-237500J0D01*
G01*
X116232500Y-84295000D01*
G75*
G02*
X115995000Y-84057500I0J237500D01*
G01*
G37*
%TD.AperFunction*%
%TD*%
D20*
%TO.P,S1,4*%
%TO.N,H_GND*%
X113740000Y-79720000D03*
%TO.P,S1,3*%
%TO.N,Net-(S1-Pad3)*%
X107240000Y-79720000D03*
%TO.P,S1,2*%
%TO.N,Net-(S1-Pad2)*%
X113740000Y-75220000D03*
%TO.P,S1,1*%
%TO.N,~RESET*%
X107240000Y-75220000D03*
%TD*%
D21*
%TO.P,Y1,4*%
%TO.N,H_VCC*%
X119634000Y-101786000D03*
%TO.P,Y1,3*%
%TO.N,50MHz_CLK*%
X124714000Y-101786000D03*
%TO.P,Y1,2*%
%TO.N,H_GND*%
X124714000Y-105986000D03*
%TO.P,Y1,1*%
%TO.N,Net-(Y1-Pad1)*%
X119634000Y-105986000D03*
%TD*%
D22*
%TO.P,J1,6*%
%TO.N,Net-(J1-Pad6)*%
X100965000Y-103725000D03*
X96215000Y-111125000D03*
X96215000Y-103725000D03*
X100965000Y-111125000D03*
D23*
%TO.P,J1,2*%
%TO.N,Net-(J1-Pad2)*%
X100665000Y-106625000D03*
%TO.P,J1,3*%
%TO.N,Net-(J1-Pad3)*%
X101865000Y-107425000D03*
%TO.P,J1,5*%
%TO.N,H_GND*%
X101865000Y-109025000D03*
%TO.P,J1,1*%
%TO.N,+5V*%
X101865000Y-105825000D03*
%TO.P,J1,4*%
%TO.N,Net-(J1-Pad4)*%
X100665000Y-108225000D03*
%TD*%
D24*
%TO.N,H_GND*%
X136144000Y-109474000D03*
X142240000Y-112522000D03*
X146812000Y-109728000D03*
X150114000Y-103378000D03*
X148082000Y-97536000D03*
X150114000Y-87884000D03*
X144780000Y-87884000D03*
X138430000Y-85598000D03*
X131826000Y-87884000D03*
X126746000Y-97028000D03*
X128778000Y-101092000D03*
X131572000Y-106426000D03*
X136398000Y-107188000D03*
X136398000Y-105156000D03*
X136398000Y-103378000D03*
X136398000Y-101346000D03*
X136398000Y-99314000D03*
X136398000Y-97536000D03*
X136398000Y-95758000D03*
X137922000Y-95250000D03*
X139954000Y-95250000D03*
X141986000Y-95250000D03*
X143764000Y-95250000D03*
X146050000Y-94488000D03*
X146050000Y-96520000D03*
X146050000Y-98298000D03*
X146050000Y-100330000D03*
X146050000Y-102108000D03*
X146050000Y-104140000D03*
X146050000Y-105918000D03*
X143764000Y-105410000D03*
X141732000Y-105410000D03*
X139954000Y-105410000D03*
X138430000Y-105410000D03*
X136398000Y-93726000D03*
X142748000Y-83058000D03*
X131318000Y-112776000D03*
X149860000Y-93218000D03*
X107696000Y-82042000D03*
X101600000Y-98298000D03*
X101600000Y-89408000D03*
X99314000Y-83820000D03*
X123190000Y-105918000D03*
X124714000Y-104394000D03*
X117094000Y-105918000D03*
X107315000Y-101981000D03*
X108331000Y-101981000D03*
X109347000Y-101981000D03*
X110363000Y-101981000D03*
X111379000Y-101981000D03*
X106299000Y-101981000D03*
X105283000Y-101981000D03*
X104267000Y-101981000D03*
X103251000Y-101981000D03*
X109855000Y-102997000D03*
X110871000Y-102997000D03*
X109855000Y-104013000D03*
X110871000Y-104013000D03*
X104775000Y-102997000D03*
X103759000Y-102997000D03*
X103759000Y-104013000D03*
X104775000Y-104013000D03*
X106553000Y-112395000D03*
X106553000Y-111379000D03*
X108077000Y-111379000D03*
X108077000Y-112395000D03*
X107315000Y-111887000D03*
X102870000Y-93726000D03*
%TO.N,H_VCC*%
X110744000Y-99822000D03*
X121158000Y-101854000D03*
X119634000Y-103378000D03*
X117094000Y-101854000D03*
X105156000Y-120650000D03*
X105410000Y-78486000D03*
X151384000Y-86868000D03*
X152400000Y-86106000D03*
X144272000Y-83058000D03*
X132334000Y-93726000D03*
X133350000Y-92710000D03*
X132334000Y-95758000D03*
X132334000Y-97536000D03*
X132334000Y-99314000D03*
X132334000Y-101346000D03*
X132334000Y-105156000D03*
X138176000Y-109474000D03*
X132334000Y-102870000D03*
X132334000Y-107188000D03*
X132334000Y-91440000D03*
X132334000Y-92456000D03*
X132334000Y-108458000D03*
X132334000Y-109474000D03*
X133350000Y-109474000D03*
X133350000Y-108458000D03*
X139954000Y-109474000D03*
X141986000Y-109474000D03*
X143764000Y-109474000D03*
X145796000Y-109474000D03*
X144780000Y-109474000D03*
X150114000Y-105918000D03*
X150114000Y-104902000D03*
X150114000Y-102362000D03*
X150114000Y-100330000D03*
X150114000Y-98552000D03*
X150114000Y-96520000D03*
X150114000Y-94742000D03*
X144526000Y-90932000D03*
X141732000Y-90932000D03*
X139954000Y-90932000D03*
X137668000Y-90932000D03*
X149860000Y-91186000D03*
X149860000Y-92202000D03*
X150622000Y-111506000D03*
X150622000Y-110490000D03*
X148590000Y-92202000D03*
X111760000Y-96520000D03*
X111760000Y-94742000D03*
X111760000Y-91186000D03*
X107950000Y-87884000D03*
X114046000Y-92964000D03*
X111633000Y-107569000D03*
X112649000Y-107569000D03*
X113665000Y-107569000D03*
X114681000Y-107569000D03*
X115697000Y-107569000D03*
X111633000Y-108585000D03*
X112649000Y-108585000D03*
X113665000Y-108585000D03*
X114681000Y-108585000D03*
X115697000Y-108585000D03*
X111633000Y-109601000D03*
X112649000Y-109601000D03*
X113665000Y-109601000D03*
X114681000Y-109601000D03*
X115697000Y-109601000D03*
X111633000Y-110617000D03*
X112649000Y-110617000D03*
X113665000Y-110617000D03*
X114681000Y-110617000D03*
X115697000Y-110617000D03*
%TO.N,TDO*%
X96520000Y-99060000D03*
%TO.N,JEN*%
X127762000Y-97536000D03*
%TO.N,Net-(R6-Pad2)*%
X147828000Y-91186000D03*
%TO.N,Net-(R7-Pad2)*%
X146812000Y-91186000D03*
%TO.N,Net-(R8-Pad2)*%
X142748000Y-90932000D03*
%TO.N,Net-(R9-Pad2)*%
X138938000Y-87884000D03*
%TO.N,Net-(R10-Pad2)*%
X138938000Y-91186000D03*
%TO.N,Net-(R11-Pad2)*%
X136398000Y-83566000D03*
%TO.N,Net-(R12-Pad2)*%
X143510000Y-87884000D03*
%TD*%
D25*
%TO.N,H_GND*%
X136220000Y-109550000D02*
X136220000Y-111068000D01*
X136144000Y-109474000D02*
X136220000Y-109550000D01*
X131226000Y-106080000D02*
X131572000Y-106426000D01*
X130232000Y-106080000D02*
X131226000Y-106080000D01*
X142220000Y-112502000D02*
X142240000Y-112522000D01*
X142220000Y-111068000D02*
X142220000Y-112502000D01*
X146720000Y-109820000D02*
X146812000Y-109728000D01*
X146720000Y-111068000D02*
X146720000Y-109820000D01*
X132049500Y-87884000D02*
X131826000Y-87884000D01*
X132720000Y-88554500D02*
X132049500Y-87884000D01*
X132720000Y-89592000D02*
X132720000Y-88554500D01*
X128790000Y-101080000D02*
X128778000Y-101092000D01*
X130232000Y-101080000D02*
X128790000Y-101080000D01*
X144720000Y-87944000D02*
X144780000Y-87884000D01*
X144720000Y-89592000D02*
X144720000Y-87944000D01*
X132049500Y-112776000D02*
X131318000Y-112776000D01*
X132720000Y-112105500D02*
X132049500Y-112776000D01*
X132720000Y-111068000D02*
X132720000Y-112105500D01*
D26*
X150222000Y-93580000D02*
X149860000Y-93218000D01*
X151708000Y-93580000D02*
X150222000Y-93580000D01*
D25*
X117094000Y-105918000D02*
X117094000Y-104748500D01*
X124646000Y-105918000D02*
X124714000Y-105986000D01*
X123190000Y-105918000D02*
X124646000Y-105918000D01*
X124714000Y-104394000D02*
X124714000Y-105986000D01*
X150816000Y-104080000D02*
X150114000Y-103378000D01*
X151708000Y-104080000D02*
X150816000Y-104080000D01*
X149890500Y-87884000D02*
X150114000Y-87884000D01*
X149220000Y-88554500D02*
X149890500Y-87884000D01*
X149220000Y-89592000D02*
X149220000Y-88554500D01*
X127194000Y-96580000D02*
X126746000Y-97028000D01*
X130232000Y-96580000D02*
X127194000Y-96580000D01*
D26*
X137720000Y-89592000D02*
X137720000Y-87832000D01*
X138430000Y-87122000D02*
X138430000Y-85598000D01*
X137720000Y-87832000D02*
X138430000Y-87122000D01*
D25*
X148126000Y-97580000D02*
X148082000Y-97536000D01*
X151708000Y-97580000D02*
X148126000Y-97580000D01*
D27*
%TO.N,+5V*%
X103110000Y-115330000D02*
X102870000Y-115570000D01*
X102870000Y-115570000D02*
X102870000Y-116586000D01*
X102870000Y-116586000D02*
X105410000Y-119126000D01*
X105410000Y-119126000D02*
X106934000Y-119126000D01*
X107950000Y-120142000D02*
X107950000Y-121920000D01*
X106934000Y-119126000D02*
X107950000Y-120142000D01*
X107950000Y-121920000D02*
X107950000Y-124460000D01*
D28*
X105015000Y-108197183D02*
X105015000Y-109857000D01*
X102642817Y-105825000D02*
X105015000Y-108197183D01*
X101865000Y-105825000D02*
X102642817Y-105825000D01*
X102870000Y-115570000D02*
X102870000Y-114046000D01*
X105015000Y-111901000D02*
X105015000Y-109857000D01*
X102870000Y-114046000D02*
X105015000Y-111901000D01*
D25*
%TO.N,H_VCC*%
X130372000Y-91440000D02*
X130232000Y-91580000D01*
X132334000Y-91440000D02*
X130372000Y-91440000D01*
X132219999Y-91325999D02*
X132219999Y-89592000D01*
X132334000Y-91440000D02*
X132219999Y-91325999D01*
X133220000Y-90554000D02*
X132334000Y-91440000D01*
X133220000Y-89592000D02*
X133220000Y-90554000D01*
X131958000Y-92080000D02*
X132334000Y-92456000D01*
X130232000Y-92080000D02*
X131958000Y-92080000D01*
X132334000Y-91440000D02*
X132334000Y-92456000D01*
X133096000Y-92456000D02*
X133350000Y-92710000D01*
X132334000Y-92456000D02*
X133096000Y-92456000D01*
X132334000Y-93726000D02*
X132334000Y-92456000D01*
X132334000Y-95758000D02*
X132334000Y-93726000D01*
X132334000Y-95758000D02*
X132334000Y-97536000D01*
X131878000Y-97080000D02*
X130232000Y-97080000D01*
X132334000Y-97536000D02*
X131878000Y-97080000D01*
X132334000Y-99314000D02*
X132334000Y-97536000D01*
X132334000Y-99314000D02*
X132334000Y-101346000D01*
X132334000Y-101346000D02*
X132334000Y-102870000D01*
X131544000Y-102080000D02*
X132334000Y-102870000D01*
X130232000Y-102080000D02*
X131544000Y-102080000D01*
X132334000Y-105156000D02*
X132334000Y-102870000D01*
X131910000Y-105580000D02*
X132334000Y-105156000D01*
X130232000Y-105580000D02*
X131910000Y-105580000D01*
X132334000Y-107188000D02*
X132334000Y-105156000D01*
X132334000Y-107188000D02*
X132334000Y-108458000D01*
X132334000Y-108458000D02*
X133350000Y-108458000D01*
X133350000Y-108458000D02*
X133350000Y-109474000D01*
X132334000Y-109474000D02*
X133350000Y-109474000D01*
X132334000Y-109474000D02*
X132334000Y-108458000D01*
X130354000Y-108458000D02*
X130232000Y-108580000D01*
X132334000Y-108458000D02*
X130354000Y-108458000D01*
X131441999Y-108080001D02*
X130232000Y-108080001D01*
X132334000Y-107188000D02*
X131441999Y-108080001D01*
X130626000Y-109474000D02*
X130232000Y-109080000D01*
X132334000Y-109474000D02*
X130626000Y-109474000D01*
X132219999Y-109588001D02*
X132219999Y-111068000D01*
X132334000Y-109474000D02*
X132219999Y-109588001D01*
X138176000Y-109474000D02*
X139954000Y-109474000D01*
X139954000Y-109474000D02*
X141986000Y-109474000D01*
X141720000Y-109740000D02*
X141720000Y-111068000D01*
X141986000Y-109474000D02*
X141720000Y-109740000D01*
X142720000Y-109642315D02*
X142720000Y-111068000D01*
X142551685Y-109474000D02*
X142720000Y-109642315D01*
X141986000Y-109474000D02*
X142551685Y-109474000D01*
X143764000Y-109474000D02*
X141986000Y-109474000D01*
X143764000Y-109474000D02*
X144780000Y-109474000D01*
X142720000Y-109952315D02*
X142720000Y-111068000D01*
X143198315Y-109474000D02*
X142720000Y-109952315D01*
X143764000Y-109474000D02*
X143198315Y-109474000D01*
X144780000Y-109474000D02*
X145796000Y-109474000D01*
X145720000Y-109550000D02*
X145720000Y-111068000D01*
X145796000Y-109474000D02*
X145720000Y-109550000D01*
X150158000Y-111506000D02*
X149720000Y-111068000D01*
X150622000Y-111506000D02*
X150158000Y-111506000D01*
X149220000Y-111068000D02*
X149720000Y-111068000D01*
X150298000Y-110490000D02*
X149720000Y-111068000D01*
X150622000Y-110490000D02*
X150298000Y-110490000D01*
X150114000Y-102362000D02*
X150114000Y-100330000D01*
X150114000Y-100330000D02*
X150114000Y-98552000D01*
X150642000Y-99080000D02*
X150690498Y-99080000D01*
X150114000Y-98552000D02*
X150642000Y-99080000D01*
X151708000Y-99080000D02*
X150642000Y-99080000D01*
X150114000Y-96520000D02*
X150114000Y-94742000D01*
X150276000Y-94580000D02*
X151708000Y-94580000D01*
X150114000Y-94742000D02*
X150276000Y-94580000D01*
X149860000Y-92202000D02*
X149860000Y-91186000D01*
X149982001Y-92079999D02*
X151708000Y-92079999D01*
X149860000Y-92202000D02*
X149982001Y-92079999D01*
X151314000Y-91186000D02*
X151708000Y-91580000D01*
X149860000Y-91186000D02*
X151314000Y-91186000D01*
X149860000Y-89732000D02*
X149720000Y-89592000D01*
X149860000Y-91186000D02*
X149860000Y-89732000D01*
X149296498Y-91186000D02*
X148720000Y-90609502D01*
X149860000Y-91186000D02*
X149296498Y-91186000D01*
X148720000Y-89592000D02*
X148720000Y-90609502D01*
X149606000Y-90932000D02*
X149860000Y-91186000D01*
X145220000Y-90609502D02*
X145220000Y-89592000D01*
X141732000Y-90932000D02*
X139954000Y-90932000D01*
X132842000Y-90932000D02*
X132334000Y-91440000D01*
X136522500Y-90932000D02*
X136906000Y-90932000D01*
X136220000Y-90629500D02*
X136522500Y-90932000D01*
X136220000Y-89592000D02*
X136220000Y-90629500D01*
X136906000Y-90932000D02*
X132842000Y-90932000D01*
X135220000Y-110050498D02*
X135220000Y-111068000D01*
X134643502Y-109474000D02*
X135220000Y-110050498D01*
X133350000Y-109474000D02*
X134643502Y-109474000D01*
X144897502Y-90932000D02*
X145220000Y-90609502D01*
X144526000Y-90932000D02*
X144897502Y-90932000D01*
X143720000Y-90691685D02*
X143720000Y-89592000D01*
X143960315Y-90932000D02*
X143720000Y-90691685D01*
X144526000Y-90932000D02*
X143960315Y-90932000D01*
X137668000Y-90932000D02*
X136906000Y-90932000D01*
X138220000Y-90609502D02*
X138220000Y-89592000D01*
X137897502Y-90932000D02*
X138220000Y-90609502D01*
X137668000Y-90932000D02*
X137897502Y-90932000D01*
X104140000Y-77216000D02*
X105410000Y-78486000D01*
X104140000Y-77112500D02*
X104140000Y-77216000D01*
D26*
X103782500Y-120650000D02*
X105156000Y-120650000D01*
D25*
X119702000Y-101854000D02*
X119634000Y-101786000D01*
X121158000Y-101854000D02*
X119702000Y-101854000D01*
X119634000Y-103378000D02*
X119634000Y-101786000D01*
X117094000Y-101854000D02*
X117094000Y-103023500D01*
X149212001Y-109080001D02*
X151708000Y-109080001D01*
X148590000Y-108458000D02*
X149212001Y-109080001D01*
X146812000Y-108458000D02*
X148590000Y-108458000D01*
X145796000Y-109474000D02*
X146812000Y-108458000D01*
X150436000Y-104580000D02*
X150114000Y-104902000D01*
X151708000Y-104580000D02*
X150436000Y-104580000D01*
D26*
%TO.N,TDO*%
X111092001Y-100547001D02*
X101055001Y-100547001D01*
X111559002Y-100080000D02*
X111092001Y-100547001D01*
X130232000Y-100080000D02*
X111559002Y-100080000D01*
X101055001Y-100547001D02*
X100076000Y-99568000D01*
X97028000Y-99568000D02*
X96520000Y-99060000D01*
X100076000Y-99568000D02*
X97028000Y-99568000D01*
%TO.N,TDI*%
X99023001Y-99023001D02*
X96520000Y-96520000D01*
X111018003Y-99023001D02*
X99023001Y-99023001D01*
X111575002Y-99580000D02*
X111018003Y-99023001D01*
X130232000Y-99580000D02*
X111575002Y-99580000D01*
%TO.N,TCK*%
X130232000Y-99080000D02*
X117876000Y-99080000D01*
X117876000Y-99080000D02*
X111506000Y-92710000D01*
X96050998Y-92710000D02*
X94996000Y-91655002D01*
X111506000Y-92710000D02*
X96050998Y-92710000D01*
X94996000Y-87884000D02*
X96520000Y-86360000D01*
X94996000Y-91655002D02*
X94996000Y-87884000D01*
%TO.N,TMS*%
X130232000Y-98580000D02*
X124742000Y-98580000D01*
X118400999Y-92238999D02*
X102398999Y-92238999D01*
X124742000Y-98580000D02*
X118400999Y-92238999D01*
X97695001Y-90264999D02*
X96520000Y-91440000D01*
X100424999Y-90264999D02*
X97695001Y-90264999D01*
X102398999Y-92238999D02*
X100424999Y-90264999D01*
%TO.N,Net-(D1-Pad2)*%
X101957500Y-118467500D02*
X99060000Y-115570000D01*
X101957500Y-120650000D02*
X101957500Y-118467500D01*
D25*
%TO.N,Net-(D2-Pad2)*%
X114657500Y-83820000D02*
X111760000Y-83820000D01*
D26*
%TO.N,IO_70*%
X163830000Y-120650000D02*
X163830000Y-121920000D01*
X152735001Y-109555001D02*
X163830000Y-120650000D01*
X148971000Y-109855000D02*
X149270999Y-109555001D01*
X149270999Y-109555001D02*
X152735001Y-109555001D01*
X148960498Y-109855000D02*
X148971000Y-109855000D01*
X148720000Y-110095498D02*
X148960498Y-109855000D01*
X148720000Y-111068000D02*
X148720000Y-110095498D01*
%TO.N,IO_69*%
X163830000Y-124460000D02*
X162560000Y-123190000D01*
X162560000Y-123190000D02*
X162560000Y-120650000D01*
X148220000Y-112025000D02*
X148220000Y-111068000D01*
X148774285Y-112579285D02*
X148220000Y-112025000D01*
X154489285Y-112579285D02*
X148774285Y-112579285D01*
X162560000Y-120650000D02*
X154489285Y-112579285D01*
%TO.N,IO_68*%
X161290000Y-121920000D02*
X161290000Y-120650000D01*
X161290000Y-120650000D02*
X153669295Y-113029295D01*
X147720000Y-112793590D02*
X147720000Y-111068000D01*
X147955705Y-113029295D02*
X147720000Y-112793590D01*
X153669295Y-113029295D02*
X147955705Y-113029295D01*
%TO.N,IO_67*%
X147220000Y-112930000D02*
X147220000Y-111068000D01*
X147955000Y-113665000D02*
X147220000Y-112930000D01*
X153035000Y-113665000D02*
X147955000Y-113665000D01*
X160020000Y-120650000D02*
X153035000Y-113665000D01*
X160020000Y-123190000D02*
X160020000Y-120650000D01*
X161290000Y-124460000D02*
X160020000Y-123190000D01*
%TO.N,IO_65*%
X146220000Y-111068000D02*
X146220000Y-113119970D01*
X158750000Y-120717919D02*
X158750000Y-121920000D01*
X152252052Y-114219971D02*
X158750000Y-120717919D01*
X147320000Y-114219970D02*
X152252052Y-114219971D01*
X146220000Y-113119970D02*
X147320000Y-114219970D01*
%TO.N,IO_63*%
X145220000Y-111068000D02*
X145220000Y-113470000D01*
X146419980Y-114669980D02*
X151499980Y-114669980D01*
X145220000Y-113470000D02*
X146419980Y-114669980D01*
X151499980Y-114669980D02*
X157480000Y-120650000D01*
X157480000Y-123190000D02*
X158750000Y-124460000D01*
X157480000Y-120650000D02*
X157480000Y-123190000D01*
%TO.N,IO_62*%
X144720000Y-111068000D02*
X144720000Y-113789990D01*
X146050000Y-115119990D02*
X150679990Y-115119990D01*
X144720000Y-113789990D02*
X146050000Y-115119990D01*
X156210000Y-120650000D02*
X156210000Y-121920000D01*
X150679990Y-115119990D02*
X156210000Y-120650000D01*
%TO.N,IO_61*%
X144220000Y-111068000D02*
X144220000Y-115007180D01*
X144220000Y-115007180D02*
X144782820Y-115570000D01*
X144782820Y-115570000D02*
X149860000Y-115570000D01*
X149860000Y-115570000D02*
X154940000Y-120650000D01*
X154940000Y-123190000D02*
X156210000Y-124460000D01*
X154940000Y-120650000D02*
X154940000Y-123190000D01*
%TO.N,IO_60*%
X149249930Y-116229930D02*
X153670000Y-120650000D01*
X153670000Y-120650000D02*
X153670000Y-121920000D01*
X144806340Y-116229930D02*
X149249930Y-116229930D01*
X143695001Y-115118591D02*
X144806340Y-116229930D01*
X143695001Y-111574999D02*
X143695001Y-115118591D01*
X143720000Y-111550000D02*
X143695001Y-111574999D01*
X143720000Y-111068000D02*
X143720000Y-111550000D01*
%TO.N,IO_59*%
X152400000Y-123190000D02*
X153670000Y-124460000D01*
X152400000Y-120650000D02*
X152400000Y-123190000D01*
X148429940Y-116679940D02*
X152400000Y-120650000D01*
X144619940Y-116679940D02*
X148429940Y-116679940D01*
X143220000Y-115280000D02*
X144619940Y-116679940D01*
X143220000Y-111068000D02*
X143220000Y-115280000D01*
%TO.N,IO_55*%
X141220000Y-111068000D02*
X141220000Y-114547180D01*
X143802770Y-117129950D02*
X147609950Y-117129950D01*
X141220000Y-114547180D02*
X143802770Y-117129950D01*
X151130000Y-120650000D02*
X151130000Y-121920000D01*
X147609950Y-117129950D02*
X151130000Y-120650000D01*
%TO.N,IO_54*%
X140720000Y-111068000D02*
X140720000Y-114683590D01*
X143616370Y-117579960D02*
X146789960Y-117579960D01*
X140720000Y-114683590D02*
X143616370Y-117579960D01*
X146789960Y-117579960D02*
X149860000Y-120650000D01*
X149860000Y-123190000D02*
X151130000Y-124460000D01*
X149860000Y-120650000D02*
X149860000Y-123190000D01*
%TO.N,IO_53*%
X140220000Y-111068000D02*
X140220000Y-114820000D01*
X140220000Y-114820000D02*
X143429970Y-118029970D01*
X143429970Y-118029970D02*
X145969970Y-118029970D01*
X148590000Y-120650000D02*
X148590000Y-121920000D01*
X145969970Y-118029970D02*
X148590000Y-120650000D01*
%TO.N,IO_52*%
X139720000Y-111068000D02*
X139720000Y-115587180D01*
X142612800Y-118479980D02*
X145149980Y-118479980D01*
X139720000Y-115587180D02*
X142612800Y-118479980D01*
X145149980Y-118479980D02*
X147320000Y-120650000D01*
X147320000Y-123190000D02*
X148590000Y-124460000D01*
X147320000Y-120650000D02*
X147320000Y-123190000D01*
%TO.N,IO_51*%
X146050000Y-120650000D02*
X146050000Y-121920000D01*
X144329990Y-118929990D02*
X146050000Y-120650000D01*
X142426400Y-118929990D02*
X144329990Y-118929990D01*
X139220000Y-115723590D02*
X142426400Y-118929990D01*
X139220000Y-111068000D02*
X139220000Y-115723590D01*
%TO.N,IO_50*%
X138720000Y-111068000D02*
X138720000Y-115860000D01*
X138720000Y-115860000D02*
X142240000Y-119380000D01*
X142240000Y-119380000D02*
X143510000Y-119380000D01*
X143510000Y-119380000D02*
X144780000Y-120650000D01*
X144780000Y-123190000D02*
X146050000Y-124460000D01*
X144780000Y-120650000D02*
X144780000Y-123190000D01*
%TO.N,IO_49*%
X138220000Y-111068000D02*
X138220000Y-119170000D01*
X138430000Y-119380000D02*
X138430000Y-121920000D01*
X138220000Y-119170000D02*
X138430000Y-119380000D01*
%TO.N,IO_48*%
X137720000Y-111068000D02*
X137720000Y-116280000D01*
X137720000Y-116280000D02*
X137160000Y-116840000D01*
X137160000Y-123190000D02*
X138430000Y-124460000D01*
X137160000Y-116840000D02*
X137160000Y-123190000D01*
%TO.N,IO_47*%
X137220000Y-111068000D02*
X137220000Y-115510000D01*
X135890000Y-116840000D02*
X135890000Y-121920000D01*
X137220000Y-115510000D02*
X135890000Y-116840000D01*
%TO.N,IO_46*%
X136720000Y-111068000D02*
X136720000Y-114740000D01*
X136720000Y-114740000D02*
X134620000Y-116840000D01*
X134620000Y-123190000D02*
X135890000Y-124460000D01*
X134620000Y-116840000D02*
X134620000Y-123190000D01*
%TO.N,IO_44*%
X135720000Y-111068000D02*
X135720000Y-114470000D01*
X133350000Y-116840000D02*
X133350000Y-121920000D01*
X135720000Y-114470000D02*
X133350000Y-116840000D01*
%TO.N,IO_42*%
X134720000Y-111068000D02*
X134720000Y-114200000D01*
X134720000Y-114200000D02*
X132080000Y-116840000D01*
X132080000Y-123190000D02*
X133350000Y-124460000D01*
X132080000Y-116840000D02*
X132080000Y-123190000D01*
%TO.N,IO_41*%
X134170010Y-112105490D02*
X134170010Y-113479990D01*
X134220000Y-112055500D02*
X134170010Y-112105490D01*
X134220000Y-111068000D02*
X134220000Y-112055500D01*
X130810000Y-116840000D02*
X130810000Y-121920000D01*
X134170010Y-113479990D02*
X130810000Y-116840000D01*
%TO.N,IO_40*%
X133720000Y-111068000D02*
X133720000Y-112660000D01*
X133720000Y-112660000D02*
X129540000Y-116840000D01*
X129540000Y-123190000D02*
X130810000Y-124460000D01*
X129540000Y-116840000D02*
X129540000Y-123190000D01*
%TO.N,IO_39*%
X133220000Y-111068000D02*
X133220000Y-112040502D01*
X128270000Y-115570000D02*
X128270000Y-121920000D01*
X133220000Y-112277264D02*
X130435264Y-115062000D01*
X133220000Y-111068000D02*
X133220000Y-112277264D01*
X128778000Y-115062000D02*
X128270000Y-115570000D01*
X130435264Y-115062000D02*
X128778000Y-115062000D01*
%TO.N,IO_33*%
X129259498Y-107580000D02*
X127000000Y-109839498D01*
X130232000Y-107580000D02*
X129259498Y-107580000D01*
X127000000Y-123190000D02*
X128270000Y-124460000D01*
X127000000Y-109839498D02*
X127000000Y-123190000D01*
%TO.N,IO_32*%
X125730000Y-110473088D02*
X125730000Y-121920000D01*
X129123088Y-107080000D02*
X125730000Y-110473088D01*
X130232000Y-107080000D02*
X129123088Y-107080000D01*
%TO.N,IO_31*%
X128986678Y-106580000D02*
X124460000Y-111106678D01*
X130232000Y-106580000D02*
X128986678Y-106580000D01*
X124460000Y-123190000D02*
X125730000Y-124460000D01*
X124460000Y-111106678D02*
X124460000Y-123190000D01*
%TO.N,IO_28*%
X123190000Y-111134500D02*
X123190000Y-121920000D01*
X129244500Y-105080000D02*
X123190000Y-111134500D01*
X130232000Y-105080000D02*
X129244500Y-105080000D01*
%TO.N,IO_27*%
X121920000Y-123190000D02*
X123190000Y-124460000D01*
X121920000Y-111768090D02*
X121920000Y-123190000D01*
X129108090Y-104580000D02*
X121920000Y-111768090D01*
X130232000Y-104580000D02*
X129108090Y-104580000D01*
%TO.N,IO_74*%
X151708000Y-108580000D02*
X155570000Y-108580000D01*
X155570000Y-108580000D02*
X160020000Y-113030000D01*
X172720000Y-113030000D02*
X173990000Y-111760000D01*
X160020000Y-113030000D02*
X172720000Y-113030000D01*
%TO.N,IO_75*%
X151708000Y-108080000D02*
X156340000Y-108080000D01*
X160020000Y-111760000D02*
X171450000Y-111760000D01*
X156340000Y-108080000D02*
X160020000Y-111760000D01*
%TO.N,IO_76*%
X151708000Y-107580000D02*
X157110000Y-107580000D01*
X157110000Y-107580000D02*
X160020000Y-110490000D01*
X172720000Y-110490000D02*
X173990000Y-109220000D01*
X160020000Y-110490000D02*
X172720000Y-110490000D01*
%TO.N,IO_77*%
X151708000Y-107080000D02*
X157880000Y-107080000D01*
X160020000Y-109220000D02*
X171450000Y-109220000D01*
X157880000Y-107080000D02*
X160020000Y-109220000D01*
%TO.N,IO_78*%
X172720000Y-107950000D02*
X173990000Y-106680000D01*
X160020000Y-107950000D02*
X172720000Y-107950000D01*
X158650000Y-106580000D02*
X160020000Y-107950000D01*
X151708000Y-106580000D02*
X158650000Y-106580000D01*
%TO.N,IO_79*%
X151708000Y-106080000D02*
X159420000Y-106080000D01*
X160020000Y-106680000D02*
X171450000Y-106680000D01*
X159420000Y-106080000D02*
X160020000Y-106680000D01*
%TO.N,IO_80*%
X161756410Y-105580000D02*
X161926410Y-105410000D01*
X151708000Y-105580000D02*
X161756410Y-105580000D01*
X172720000Y-105410000D02*
X173990000Y-104140000D01*
X161926410Y-105410000D02*
X172720000Y-105410000D01*
%TO.N,IO_81*%
X151708000Y-105080000D02*
X161620000Y-105080000D01*
X162560000Y-104140000D02*
X171450000Y-104140000D01*
X161620000Y-105080000D02*
X162560000Y-104140000D01*
%TO.N,IO_84*%
X151708000Y-103580000D02*
X161850000Y-103580000D01*
X161850000Y-103580000D02*
X162560000Y-102870000D01*
X172720000Y-102870000D02*
X173990000Y-101600000D01*
X162560000Y-102870000D02*
X172720000Y-102870000D01*
%TO.N,IO_85*%
X151708000Y-103080000D02*
X161080000Y-103080000D01*
X162560000Y-101600000D02*
X171450000Y-101600000D01*
X161080000Y-103080000D02*
X162560000Y-101600000D01*
%TO.N,IO_86*%
X151708000Y-102580000D02*
X160310000Y-102580000D01*
X160310000Y-102580000D02*
X162560000Y-100330000D01*
X172720000Y-100330000D02*
X173990000Y-99060000D01*
X162560000Y-100330000D02*
X172720000Y-100330000D01*
%TO.N,IO_87*%
X151708000Y-102080000D02*
X159540000Y-102080000D01*
X162560000Y-99060000D02*
X171450000Y-99060000D01*
X159540000Y-102080000D02*
X162560000Y-99060000D01*
%TO.N,IO_88*%
X151708000Y-101580000D02*
X158770000Y-101580000D01*
X158770000Y-101580000D02*
X162560000Y-97790000D01*
X172720000Y-97790000D02*
X173990000Y-96520000D01*
X162560000Y-97790000D02*
X172720000Y-97790000D01*
%TO.N,IO_89*%
X151708000Y-101080000D02*
X158000000Y-101080000D01*
X162560000Y-96520000D02*
X171450000Y-96520000D01*
X158000000Y-101080000D02*
X162560000Y-96520000D01*
%TO.N,IO_90*%
X151708000Y-100580000D02*
X157230000Y-100580000D01*
X157230000Y-100580000D02*
X162560000Y-95250000D01*
X172720000Y-95250000D02*
X173990000Y-93980000D01*
X162560000Y-95250000D02*
X172720000Y-95250000D01*
%TO.N,IO_91*%
X151708000Y-100080000D02*
X156460000Y-100080000D01*
X162560000Y-93980000D02*
X171450000Y-93980000D01*
X156460000Y-100080000D02*
X162560000Y-93980000D01*
%TO.N,IO_92*%
X151708000Y-99580000D02*
X155690000Y-99580000D01*
X155690000Y-99580000D02*
X162560000Y-92710000D01*
X172720000Y-92710000D02*
X173990000Y-91440000D01*
X162560000Y-92710000D02*
X172720000Y-92710000D01*
%TO.N,IO_94*%
X151708000Y-98580000D02*
X155420000Y-98580000D01*
X162560000Y-91440000D02*
X171450000Y-91440000D01*
X155420000Y-98580000D02*
X162560000Y-91440000D01*
%TO.N,IO_95*%
X151708000Y-98080000D02*
X154650000Y-98080000D01*
X154650000Y-98080000D02*
X162560000Y-90170000D01*
X172720000Y-90170000D02*
X173990000Y-88900000D01*
X162560000Y-90170000D02*
X172720000Y-90170000D01*
%TO.N,IO_97*%
X162560000Y-88900000D02*
X171450000Y-88900000D01*
X161740998Y-88900000D02*
X162560000Y-88900000D01*
X153560998Y-97080000D02*
X161740998Y-88900000D01*
X151708000Y-97080000D02*
X153560998Y-97080000D01*
%TO.N,IO_7*%
X123190000Y-92710000D02*
X123190000Y-78740000D01*
X125035001Y-94555001D02*
X123190000Y-92710000D01*
X130185001Y-94555001D02*
X125035001Y-94555001D01*
X130210000Y-94580000D02*
X130185001Y-94555001D01*
X130232000Y-94580000D02*
X130210000Y-94580000D01*
%TO.N,IO_8*%
X130232000Y-95080000D02*
X124290000Y-95080000D01*
X124290000Y-95080000D02*
X121920000Y-92710000D01*
X121920000Y-77470000D02*
X123190000Y-76200000D01*
X121920000Y-92710000D02*
X121920000Y-77470000D01*
%TO.N,IO_5*%
X130232000Y-93580000D02*
X126600000Y-93580000D01*
X125730000Y-92710000D02*
X125730000Y-78740000D01*
X126600000Y-93580000D02*
X125730000Y-92710000D01*
%TO.N,IO_6*%
X130232000Y-94080000D02*
X125830000Y-94080000D01*
X125830000Y-94080000D02*
X124460000Y-92710000D01*
X124460000Y-77470000D02*
X125730000Y-76200000D01*
X124460000Y-92710000D02*
X124460000Y-77470000D01*
%TO.N,IO_3*%
X129259498Y-92580000D02*
X128270000Y-91590502D01*
X130232000Y-92580000D02*
X129259498Y-92580000D01*
X128270000Y-91590502D02*
X128270000Y-78740000D01*
%TO.N,IO_4*%
X127000000Y-77470000D02*
X128270000Y-76200000D01*
X127000000Y-92710000D02*
X127000000Y-77470000D01*
X127370000Y-93080000D02*
X127000000Y-92710000D01*
X130232000Y-93080000D02*
X127370000Y-93080000D01*
%TO.N,IO_141*%
X133720000Y-88604500D02*
X130810000Y-85694500D01*
X133720000Y-89592000D02*
X133720000Y-88604500D01*
X130810000Y-85694500D02*
X130810000Y-78740000D01*
%TO.N,IO_140*%
X132080000Y-85090000D02*
X132080000Y-77470000D01*
X134170010Y-87180010D02*
X132080000Y-85090000D01*
X134170010Y-88554510D02*
X134170010Y-87180010D01*
X132080000Y-77470000D02*
X130810000Y-76200000D01*
X134220000Y-88604500D02*
X134170010Y-88554510D01*
X134220000Y-89592000D02*
X134220000Y-88604500D01*
%TO.N,IO_139*%
X134720000Y-89592000D02*
X134720000Y-86460000D01*
X133350000Y-85090000D02*
X133350000Y-78740000D01*
X134720000Y-86460000D02*
X133350000Y-85090000D01*
%TO.N,IO_138*%
X134620000Y-77470000D02*
X133350000Y-76200000D01*
X134620000Y-85090000D02*
X134620000Y-77470000D01*
X135220000Y-85690000D02*
X134620000Y-85090000D01*
X135220000Y-89592000D02*
X135220000Y-85690000D01*
%TO.N,IO_137*%
X135720000Y-89592000D02*
X135720000Y-85428000D01*
X135720000Y-85428000D02*
X135382000Y-85090000D01*
X135382000Y-85090000D02*
X135382000Y-80518000D01*
X135890000Y-80010000D02*
X135890000Y-78740000D01*
X135382000Y-80518000D02*
X135890000Y-80010000D01*
%TO.N,IO_134*%
X137220000Y-89592000D02*
X137220000Y-77530000D01*
X137220000Y-77530000D02*
X135890000Y-76200000D01*
%TO.N,IO_129*%
X139720000Y-89592000D02*
X139720000Y-83840000D01*
X138430000Y-82550000D02*
X138430000Y-78740000D01*
X139720000Y-83840000D02*
X138430000Y-82550000D01*
%TO.N,IO_128*%
X140220000Y-89592000D02*
X140220000Y-81800000D01*
X140220000Y-81800000D02*
X139700000Y-81280000D01*
X139700000Y-77470000D02*
X138430000Y-76200000D01*
X139700000Y-81280000D02*
X139700000Y-77470000D01*
%TO.N,IO_127*%
X140720000Y-89592000D02*
X140720000Y-82800000D01*
X140720000Y-82800000D02*
X142240000Y-81280000D01*
X142240000Y-81280000D02*
X144780000Y-81280000D01*
X146050000Y-80010000D02*
X146050000Y-78740000D01*
X144780000Y-81280000D02*
X146050000Y-80010000D01*
%TO.N,IO_126*%
X147320000Y-77470000D02*
X146050000Y-76200000D01*
X147320000Y-80010000D02*
X147320000Y-77470000D01*
X145288000Y-82042000D02*
X147320000Y-80010000D01*
X141170010Y-83365990D02*
X142494000Y-82042000D01*
X141170010Y-88569508D02*
X141170010Y-83365990D01*
X141220000Y-88619498D02*
X141170010Y-88569508D01*
X142494000Y-82042000D02*
X145288000Y-82042000D01*
X141220000Y-89592000D02*
X141220000Y-88619498D01*
%TO.N,IO_125*%
X148590000Y-80010000D02*
X148590000Y-78740000D01*
X144780000Y-83820000D02*
X148590000Y-80010000D01*
X142240000Y-83820000D02*
X144780000Y-83820000D01*
X141720000Y-84340000D02*
X142240000Y-83820000D01*
X141720000Y-89592000D02*
X141720000Y-84340000D01*
%TO.N,IO_124*%
X149860000Y-77470000D02*
X148590000Y-76200000D01*
X149860000Y-80010000D02*
X149860000Y-77470000D01*
X144780000Y-85090000D02*
X149860000Y-80010000D01*
X143510000Y-85090000D02*
X144780000Y-85090000D01*
X142220000Y-86380000D02*
X143510000Y-85090000D01*
X142220000Y-89592000D02*
X142220000Y-86380000D01*
%TO.N,IO_123*%
X142720000Y-89592000D02*
X142720000Y-87150000D01*
X142720000Y-87150000D02*
X143510000Y-86360000D01*
X143510000Y-86360000D02*
X144780000Y-86360000D01*
X151130000Y-80010000D02*
X151130000Y-78740000D01*
X144780000Y-86360000D02*
X151130000Y-80010000D01*
%TO.N,IO_117*%
X145720000Y-89592000D02*
X145720000Y-86690000D01*
X145720000Y-86690000D02*
X152400000Y-80010000D01*
X152400000Y-80010000D02*
X152400000Y-77470000D01*
X152400000Y-77470000D02*
X151130000Y-76200000D01*
%TO.N,IO_116*%
X153670000Y-80010000D02*
X153670000Y-78740000D01*
X146220000Y-87460000D02*
X153670000Y-80010000D01*
X146220000Y-89592000D02*
X146220000Y-87460000D01*
%TO.N,IO_114*%
X154940000Y-77470000D02*
X153670000Y-76200000D01*
X154940000Y-80010000D02*
X154940000Y-77470000D01*
X147220000Y-87730000D02*
X154940000Y-80010000D01*
X147220000Y-89592000D02*
X147220000Y-87730000D01*
%TO.N,IO_112*%
X156210000Y-80010000D02*
X156210000Y-78740000D01*
X148220000Y-88000000D02*
X156210000Y-80010000D01*
X148220000Y-89592000D02*
X148220000Y-88000000D01*
%TO.N,IO_106*%
X157480000Y-77470000D02*
X156210000Y-76200000D01*
X157480000Y-87780502D02*
X157480000Y-77470000D01*
X152680502Y-92580000D02*
X157480000Y-87780502D01*
X151708000Y-92580000D02*
X152680502Y-92580000D01*
%TO.N,IO_105*%
X158750000Y-87146912D02*
X158750000Y-78740000D01*
X152816912Y-93080000D02*
X158750000Y-87146912D01*
X151708000Y-93080000D02*
X152816912Y-93080000D01*
%TO.N,IO_103*%
X152680502Y-94080000D02*
X160020000Y-86740502D01*
X151708000Y-94080000D02*
X152680502Y-94080000D01*
X160020000Y-77470000D02*
X158750000Y-76200000D01*
X160020000Y-86740502D02*
X160020000Y-77470000D01*
%TO.N,IO_101*%
X161290000Y-86470502D02*
X161290000Y-78740000D01*
X152680502Y-95080000D02*
X161290000Y-86470502D01*
X151708000Y-95080000D02*
X152680502Y-95080000D01*
%TO.N,IO_100*%
X152816912Y-95580000D02*
X162560000Y-85836912D01*
X151708000Y-95580000D02*
X152816912Y-95580000D01*
X162560000Y-77470000D02*
X161290000Y-76200000D01*
X162560000Y-85836912D02*
X162560000Y-77470000D01*
%TO.N,IO_99*%
X163830000Y-85203322D02*
X163830000Y-78740000D01*
X152953322Y-96080000D02*
X163830000Y-85203322D01*
X151708000Y-96080000D02*
X152953322Y-96080000D01*
%TO.N,IO_98*%
X165100000Y-77470000D02*
X163830000Y-76200000D01*
X165100000Y-84569732D02*
X165100000Y-77470000D01*
X153089732Y-96580000D02*
X165100000Y-84569732D01*
X151708000Y-96580000D02*
X153089732Y-96580000D01*
%TO.N,JEN*%
X127806000Y-97580000D02*
X127762000Y-97536000D01*
X130232000Y-97580000D02*
X127806000Y-97580000D01*
D25*
%TO.N,Net-(R6-Pad2)*%
X147720000Y-91078000D02*
X147720000Y-89592000D01*
X147828000Y-91186000D02*
X147720000Y-91078000D01*
%TO.N,Net-(R7-Pad2)*%
X146720000Y-91094000D02*
X146720000Y-89592000D01*
X146812000Y-91186000D02*
X146720000Y-91094000D01*
%TO.N,Net-(R8-Pad2)*%
X143220000Y-90714000D02*
X143220000Y-89592000D01*
X143002000Y-90932000D02*
X143220000Y-90714000D01*
X142748000Y-90932000D02*
X143002000Y-90932000D01*
%TO.N,Net-(R9-Pad2)*%
X139220000Y-88166000D02*
X138938000Y-87884000D01*
X139220000Y-89592000D02*
X139220000Y-88166000D01*
D26*
%TO.N,Net-(R10-Pad2)*%
X138720000Y-90968000D02*
X138720000Y-89592000D01*
X138938000Y-91186000D02*
X138720000Y-90968000D01*
%TO.N,Net-(R11-Pad2)*%
X136720000Y-89592000D02*
X136720000Y-87444000D01*
X136398000Y-87122000D02*
X136398000Y-85598000D01*
X136720000Y-87444000D02*
X136398000Y-87122000D01*
X136398000Y-85598000D02*
X136398000Y-83566000D01*
D25*
%TO.N,Net-(R12-Pad2)*%
X144220000Y-88594000D02*
X143510000Y-87884000D01*
X144220000Y-89592000D02*
X144220000Y-88594000D01*
%TO.N,~RESET*%
X124118235Y-95580000D02*
X119380000Y-90841765D01*
X130232000Y-95580000D02*
X124118235Y-95580000D01*
X119380000Y-90841765D02*
X119380000Y-83820000D01*
X119380000Y-83820000D02*
X116840000Y-81280000D01*
X113671998Y-81280000D02*
X109861998Y-77470000D01*
X116840000Y-81280000D02*
X113671998Y-81280000D01*
X109490000Y-77470000D02*
X107240000Y-75220000D01*
X109861998Y-77470000D02*
X109490000Y-77470000D01*
X107172500Y-75287500D02*
X107240000Y-75220000D01*
X104140000Y-75287500D02*
X107172500Y-75287500D01*
%TO.N,USER_LED*%
X116482500Y-88651385D02*
X116482500Y-83820000D01*
X123911115Y-96080000D02*
X116482500Y-88651385D01*
X130232000Y-96080000D02*
X123911115Y-96080000D01*
%TO.N,50MHz_CLK*%
X127052000Y-101786000D02*
X124714000Y-101786000D01*
X129346000Y-104080000D02*
X127052000Y-101786000D01*
X130232000Y-104080000D02*
X129346000Y-104080000D01*
%TD*%
D29*
%TO.N,H_GND*%
X111760000Y-104648000D02*
X109552799Y-104648000D01*
X109550000Y-104042750D01*
X109391250Y-103884000D01*
X107442000Y-103884000D01*
X107442000Y-103904000D01*
X107188000Y-103904000D01*
X107188000Y-103884000D01*
X105238750Y-103884000D01*
X105080000Y-104042750D01*
X105077201Y-104648000D01*
X102870000Y-104648000D01*
X102870000Y-102807000D01*
X105076928Y-102807000D01*
X105080000Y-103471250D01*
X105238750Y-103630000D01*
X107188000Y-103630000D01*
X107188000Y-102330750D01*
X107442000Y-102330750D01*
X107442000Y-103630000D01*
X109391250Y-103630000D01*
X109550000Y-103471250D01*
X109553072Y-102807000D01*
X109540812Y-102682518D01*
X109504502Y-102562820D01*
X109445537Y-102452506D01*
X109366185Y-102355815D01*
X109269494Y-102276463D01*
X109159180Y-102217498D01*
X109039482Y-102181188D01*
X108915000Y-102168928D01*
X107600750Y-102172000D01*
X107442000Y-102330750D01*
X107188000Y-102330750D01*
X107029250Y-102172000D01*
X105715000Y-102168928D01*
X105590518Y-102181188D01*
X105470820Y-102217498D01*
X105360506Y-102276463D01*
X105263815Y-102355815D01*
X105184463Y-102452506D01*
X105125498Y-102562820D01*
X105089188Y-102682518D01*
X105076928Y-102807000D01*
X102870000Y-102807000D01*
X102870000Y-101346000D01*
X111760000Y-101346000D01*
X111760000Y-104648000D01*
%TA.AperFunction,Conductor*%
D30*
G36*
X111760000Y-104648000D02*
G01*
X109552799Y-104648000D01*
X109550000Y-104042750D01*
X109391250Y-103884000D01*
X107442000Y-103884000D01*
X107442000Y-103904000D01*
X107188000Y-103904000D01*
X107188000Y-103884000D01*
X105238750Y-103884000D01*
X105080000Y-104042750D01*
X105077201Y-104648000D01*
X102870000Y-104648000D01*
X102870000Y-102807000D01*
X105076928Y-102807000D01*
X105080000Y-103471250D01*
X105238750Y-103630000D01*
X107188000Y-103630000D01*
X107188000Y-102330750D01*
X107442000Y-102330750D01*
X107442000Y-103630000D01*
X109391250Y-103630000D01*
X109550000Y-103471250D01*
X109553072Y-102807000D01*
X109540812Y-102682518D01*
X109504502Y-102562820D01*
X109445537Y-102452506D01*
X109366185Y-102355815D01*
X109269494Y-102276463D01*
X109159180Y-102217498D01*
X109039482Y-102181188D01*
X108915000Y-102168928D01*
X107600750Y-102172000D01*
X107442000Y-102330750D01*
X107188000Y-102330750D01*
X107029250Y-102172000D01*
X105715000Y-102168928D01*
X105590518Y-102181188D01*
X105470820Y-102217498D01*
X105360506Y-102276463D01*
X105263815Y-102355815D01*
X105184463Y-102452506D01*
X105125498Y-102562820D01*
X105089188Y-102682518D01*
X105076928Y-102807000D01*
X102870000Y-102807000D01*
X102870000Y-101346000D01*
X111760000Y-101346000D01*
X111760000Y-104648000D01*
G37*
%TD.AperFunction*%
%TD*%
D29*
%TO.N,H_GND*%
X106334463Y-108552506D02*
X106275498Y-108662820D01*
X106239188Y-108782518D01*
X106226928Y-108907000D01*
X106230000Y-109571250D01*
X106388750Y-109730000D01*
X107188000Y-109730000D01*
X107188000Y-109710000D01*
X107442000Y-109710000D01*
X107442000Y-109730000D01*
X108241250Y-109730000D01*
X108400000Y-109571250D01*
X108403072Y-108907000D01*
X108390812Y-108782518D01*
X108354502Y-108662820D01*
X108295537Y-108552506D01*
X108217978Y-108458000D01*
X108458000Y-108458000D01*
X108458000Y-112776000D01*
X106172000Y-112776000D01*
X106172000Y-110807000D01*
X106226928Y-110807000D01*
X106239188Y-110931482D01*
X106275498Y-111051180D01*
X106334463Y-111161494D01*
X106413815Y-111258185D01*
X106510506Y-111337537D01*
X106620820Y-111396502D01*
X106740518Y-111432812D01*
X106865000Y-111445072D01*
X107029250Y-111442000D01*
X107188000Y-111283250D01*
X107188000Y-109984000D01*
X107442000Y-109984000D01*
X107442000Y-111283250D01*
X107600750Y-111442000D01*
X107765000Y-111445072D01*
X107889482Y-111432812D01*
X108009180Y-111396502D01*
X108119494Y-111337537D01*
X108216185Y-111258185D01*
X108295537Y-111161494D01*
X108354502Y-111051180D01*
X108390812Y-110931482D01*
X108403072Y-110807000D01*
X108400000Y-110142750D01*
X108241250Y-109984000D01*
X107442000Y-109984000D01*
X107188000Y-109984000D01*
X106388750Y-109984000D01*
X106230000Y-110142750D01*
X106226928Y-110807000D01*
X106172000Y-110807000D01*
X106172000Y-108458000D01*
X106412022Y-108458000D01*
X106334463Y-108552506D01*
%TA.AperFunction,Conductor*%
D30*
G36*
X106334463Y-108552506D02*
G01*
X106275498Y-108662820D01*
X106239188Y-108782518D01*
X106226928Y-108907000D01*
X106230000Y-109571250D01*
X106388750Y-109730000D01*
X107188000Y-109730000D01*
X107188000Y-109710000D01*
X107442000Y-109710000D01*
X107442000Y-109730000D01*
X108241250Y-109730000D01*
X108400000Y-109571250D01*
X108403072Y-108907000D01*
X108390812Y-108782518D01*
X108354502Y-108662820D01*
X108295537Y-108552506D01*
X108217978Y-108458000D01*
X108458000Y-108458000D01*
X108458000Y-112776000D01*
X106172000Y-112776000D01*
X106172000Y-110807000D01*
X106226928Y-110807000D01*
X106239188Y-110931482D01*
X106275498Y-111051180D01*
X106334463Y-111161494D01*
X106413815Y-111258185D01*
X106510506Y-111337537D01*
X106620820Y-111396502D01*
X106740518Y-111432812D01*
X106865000Y-111445072D01*
X107029250Y-111442000D01*
X107188000Y-111283250D01*
X107188000Y-109984000D01*
X107442000Y-109984000D01*
X107442000Y-111283250D01*
X107600750Y-111442000D01*
X107765000Y-111445072D01*
X107889482Y-111432812D01*
X108009180Y-111396502D01*
X108119494Y-111337537D01*
X108216185Y-111258185D01*
X108295537Y-111161494D01*
X108354502Y-111051180D01*
X108390812Y-110931482D01*
X108403072Y-110807000D01*
X108400000Y-110142750D01*
X108241250Y-109984000D01*
X107442000Y-109984000D01*
X107188000Y-109984000D01*
X106388750Y-109984000D01*
X106230000Y-110142750D01*
X106226928Y-110807000D01*
X106172000Y-110807000D01*
X106172000Y-108458000D01*
X106412022Y-108458000D01*
X106334463Y-108552506D01*
G37*
%TD.AperFunction*%
%TD*%
D29*
%TO.N,H_VCC*%
X116078000Y-110998000D02*
X110670634Y-110998000D01*
X110690812Y-110931482D01*
X110703072Y-110807000D01*
X110700000Y-110142750D01*
X110541250Y-109984000D01*
X109742000Y-109984000D01*
X109742000Y-110004000D01*
X109488000Y-110004000D01*
X109488000Y-109984000D01*
X109468000Y-109984000D01*
X109468000Y-109730000D01*
X109488000Y-109730000D01*
X109488000Y-108430750D01*
X109742000Y-108430750D01*
X109742000Y-109730000D01*
X110541250Y-109730000D01*
X110700000Y-109571250D01*
X110703072Y-108907000D01*
X110690812Y-108782518D01*
X110654502Y-108662820D01*
X110595537Y-108552506D01*
X110516185Y-108455815D01*
X110419494Y-108376463D01*
X110309180Y-108317498D01*
X110189482Y-108281188D01*
X110065000Y-108268928D01*
X109900750Y-108272000D01*
X109742000Y-108430750D01*
X109488000Y-108430750D01*
X109329250Y-108272000D01*
X109220000Y-108269957D01*
X109220000Y-107188000D01*
X116078000Y-107188000D01*
X116078000Y-110998000D01*
%TA.AperFunction,Conductor*%
D30*
G36*
X116078000Y-110998000D02*
G01*
X110670634Y-110998000D01*
X110690812Y-110931482D01*
X110703072Y-110807000D01*
X110700000Y-110142750D01*
X110541250Y-109984000D01*
X109742000Y-109984000D01*
X109742000Y-110004000D01*
X109488000Y-110004000D01*
X109488000Y-109984000D01*
X109468000Y-109984000D01*
X109468000Y-109730000D01*
X109488000Y-109730000D01*
X109488000Y-108430750D01*
X109742000Y-108430750D01*
X109742000Y-109730000D01*
X110541250Y-109730000D01*
X110700000Y-109571250D01*
X110703072Y-108907000D01*
X110690812Y-108782518D01*
X110654502Y-108662820D01*
X110595537Y-108552506D01*
X110516185Y-108455815D01*
X110419494Y-108376463D01*
X110309180Y-108317498D01*
X110189482Y-108281188D01*
X110065000Y-108268928D01*
X109900750Y-108272000D01*
X109742000Y-108430750D01*
X109488000Y-108430750D01*
X109329250Y-108272000D01*
X109220000Y-108269957D01*
X109220000Y-107188000D01*
X116078000Y-107188000D01*
X116078000Y-110998000D01*
G37*
%TD.AperFunction*%
%TD*%
M02*
