M48
; DRILL file {KiCad (5.1.9)-1} date 02/04/21 20:28:22
; FORMAT={-:-/ absolute / inch / decimal}
; #@! TF.CreationDate,2021-02-04T20:28:22-06:00
; #@! TF.GenerationSoftware,Kicad,Pcbnew,(5.1.9)-1
; #@! TF.FileFunction,Plated,1,4,PTH
FMAT,2
INCH
T1C0.0157
T2C0.0236
T3C0.0295
T4C0.0315
T5C0.0354
T6C0.0394
%
G90
G05
T1
X3.8Y-3.9
X3.91Y-3.3
X4.0Y-3.52
X4.0Y-3.87
X4.05Y-3.69
X4.065Y-4.015
X4.085Y-4.055
X4.085Y-4.095
X4.105Y-4.015
X4.125Y-4.055
X4.125Y-4.095
X4.14Y-4.75
X4.145Y-4.015
X4.15Y-3.09
X4.185Y-4.015
X4.195Y-4.385
X4.195Y-4.425
X4.225Y-4.015
X4.225Y-4.405
X4.24Y-3.23
X4.25Y-3.46
X4.255Y-4.385
X4.255Y-4.425
X4.265Y-4.015
X4.305Y-4.015
X4.325Y-4.055
X4.325Y-4.095
X4.345Y-4.015
X4.36Y-3.93
X4.365Y-4.055
X4.365Y-4.095
X4.385Y-4.015
X4.395Y-4.235
X4.395Y-4.275
X4.395Y-4.315
X4.395Y-4.355
X4.4Y-3.59
X4.4Y-3.73
X4.4Y-3.8
X4.435Y-4.235
X4.435Y-4.275
X4.435Y-4.315
X4.435Y-4.355
X4.475Y-4.235
X4.475Y-4.275
X4.475Y-4.315
X4.475Y-4.355
X4.49Y-3.66
X4.515Y-4.235
X4.515Y-4.275
X4.515Y-4.315
X4.515Y-4.355
X4.555Y-4.235
X4.555Y-4.275
X4.555Y-4.315
X4.555Y-4.355
X4.61Y-4.01
X4.61Y-4.17
X4.71Y-4.07
X4.77Y-4.01
X4.85Y-4.17
X4.91Y-4.11
X4.99Y-3.82
X5.03Y-3.84
X5.07Y-3.98
X5.17Y-4.44
X5.18Y-4.19
X5.19Y-3.46
X5.21Y-3.6
X5.21Y-3.64
X5.21Y-3.69
X5.21Y-3.77
X5.21Y-3.84
X5.21Y-3.91
X5.21Y-3.99
X5.21Y-4.05
X5.21Y-4.14
X5.21Y-4.22
X5.21Y-4.27
X5.21Y-4.31
X5.25Y-3.65
X5.25Y-4.27
X5.25Y-4.31
X5.36Y-4.31
X5.37Y-3.29
X5.37Y-3.69
X5.37Y-3.77
X5.37Y-3.84
X5.37Y-3.91
X5.37Y-3.99
X5.37Y-4.07
X5.37Y-4.14
X5.37Y-4.22
X5.42Y-3.58
X5.43Y-3.75
X5.44Y-4.31
X5.45Y-3.37
X5.45Y-4.15
X5.47Y-3.46
X5.47Y-3.59
X5.51Y-3.58
X5.51Y-3.75
X5.51Y-4.15
X5.51Y-4.31
X5.58Y-3.58
X5.58Y-4.15
X5.59Y-3.75
X5.59Y-4.31
X5.6Y-4.43
X5.62Y-3.27
X5.62Y-3.58
X5.65Y-3.46
X5.66Y-3.75
X5.66Y-4.15
X5.66Y-4.31
X5.68Y-3.27
X5.69Y-3.58
X5.7Y-3.46
X5.7Y-4.31
X5.74Y-4.31
X5.75Y-3.72
X5.75Y-3.8
X5.75Y-3.87
X5.75Y-3.95
X5.75Y-4.02
X5.75Y-4.1
X5.75Y-4.17
X5.78Y-3.59
X5.78Y-4.32
X5.82Y-3.59
X5.83Y-3.84
X5.85Y-3.63
X5.9Y-3.59
X5.9Y-3.63
X5.9Y-3.67
X5.91Y-3.46
X5.91Y-3.73
X5.91Y-3.8
X5.91Y-3.88
X5.91Y-3.95
X5.91Y-4.03
X5.91Y-4.07
X5.91Y-4.13
X5.91Y-4.17
X5.93Y-4.35
X5.93Y-4.39
X5.96Y-3.42
X6.0Y-3.39
T2
X4.05Y-4.55
X4.1287Y-4.55
X4.2713Y-4.55
X4.35Y-4.55
T3
X3.9632Y-4.1978
X3.9632Y-4.2608
X4.0104Y-4.1663
X4.0104Y-4.2293
X4.0104Y-4.2923
T5
X3.8Y-4.55
X3.9Y-4.55
X4.3Y-3.3
X4.4Y-3.3
T6
X3.8Y-3.4
X3.8Y-3.5
X3.8Y-3.6
X3.8Y-3.7
X3.8Y-3.8
X3.9Y-3.4
X3.9Y-3.5
X3.9Y-3.6
X3.9Y-3.7
X3.9Y-3.8
X4.222Y-2.9614
X4.222Y-3.1386
X4.25Y-4.8
X4.25Y-4.9
X4.35Y-4.8
X4.35Y-4.9
X4.478Y-2.9614
X4.478Y-3.1386
X4.65Y-3.0
X4.65Y-3.1
X4.65Y-4.8
X4.65Y-4.9
X4.75Y-3.0
X4.75Y-3.1
X4.75Y-4.8
X4.75Y-4.9
X4.85Y-3.0
X4.85Y-3.1
X4.85Y-4.8
X4.85Y-4.9
X4.95Y-3.0
X4.95Y-3.1
X4.95Y-4.8
X4.95Y-4.9
X5.05Y-3.0
X5.05Y-3.1
X5.05Y-4.8
X5.05Y-4.9
X5.15Y-3.0
X5.15Y-3.1
X5.15Y-4.8
X5.15Y-4.9
X5.25Y-3.0
X5.25Y-3.1
X5.25Y-4.8
X5.25Y-4.9
X5.35Y-3.0
X5.35Y-3.1
X5.35Y-4.8
X5.35Y-4.9
X5.45Y-3.0
X5.45Y-3.1
X5.45Y-4.8
X5.45Y-4.9
X5.55Y-3.0
X5.55Y-3.1
X5.55Y-4.8
X5.55Y-4.9
X5.65Y-3.0
X5.65Y-3.1
X5.65Y-4.8
X5.65Y-4.9
X5.75Y-3.0
X5.75Y-3.1
X5.75Y-4.8
X5.75Y-4.9
X5.85Y-3.0
X5.85Y-3.1
X5.85Y-4.8
X5.85Y-4.9
X5.95Y-3.0
X5.95Y-3.1
X5.95Y-4.8
X5.95Y-4.9
X6.05Y-3.0
X6.05Y-3.1
X6.05Y-4.8
X6.05Y-4.9
X6.15Y-3.0
X6.15Y-3.1
X6.15Y-4.8
X6.15Y-4.9
X6.25Y-3.0
X6.25Y-3.1
X6.25Y-4.8
X6.25Y-4.9
X6.35Y-3.0
X6.35Y-3.1
X6.35Y-4.8
X6.35Y-4.9
X6.45Y-3.0
X6.45Y-3.1
X6.45Y-4.8
X6.45Y-4.9
X6.55Y-3.0
X6.55Y-3.1
X6.55Y-4.8
X6.55Y-4.9
X6.75Y-3.3
X6.75Y-3.4
X6.75Y-3.5
X6.75Y-3.6
X6.75Y-3.7
X6.75Y-3.8
X6.75Y-3.9
X6.75Y-4.0
X6.75Y-4.1
X6.75Y-4.2
X6.75Y-4.3
X6.75Y-4.4
X6.75Y-4.5
X6.75Y-4.6
X6.85Y-3.3
X6.85Y-3.4
X6.85Y-3.5
X6.85Y-3.6
X6.85Y-3.7
X6.85Y-3.8
X6.85Y-3.9
X6.85Y-4.0
X6.85Y-4.1
X6.85Y-4.2
X6.85Y-4.3
X6.85Y-4.4
X6.85Y-4.5
X6.85Y-4.6
T4
G00X3.8096Y-4.0837
M15
G01X3.7663Y-4.0837
M16
G05
G00X3.8096Y-4.375
M15
G01X3.7663Y-4.375
M16
G05
G00X3.9967Y-4.0837
M15
G01X3.9533Y-4.0837
M16
G05
G00X3.9967Y-4.375
M15
G01X3.9533Y-4.375
M16
G05
T0
M30
