%TF.GenerationSoftware,KiCad,Pcbnew,(5.1.9)-1*%
%TF.CreationDate,2021-02-04T20:28:27-06:00*%
%TF.ProjectId,Intel_10M02SCE144_Breakout_Board,496e7465-6c5f-4313-904d-303253434531,rev?*%
%TF.SameCoordinates,Original*%
%TF.FileFunction,Copper,L4,Bot*%
%TF.FilePolarity,Positive*%
%FSLAX46Y46*%
G04 Gerber Fmt 4.6, Leading zero omitted, Abs format (unit mm)*
G04 Created by KiCad (PCBNEW (5.1.9)-1) date 2021-02-04 20:28:27*
%MOMM*%
%LPD*%
G01*
G04 APERTURE LIST*
%TA.AperFunction,ComponentPad*%
%ADD10C,1.200000*%
%TD*%
%TA.AperFunction,ComponentPad*%
%ADD11R,1.200000X1.200000*%
%TD*%
%TA.AperFunction,ComponentPad*%
%ADD12C,1.800000*%
%TD*%
%TA.AperFunction,ComponentPad*%
%ADD13R,1.800000X1.800000*%
%TD*%
%TA.AperFunction,ComponentPad*%
%ADD14R,1.700000X1.700000*%
%TD*%
%TA.AperFunction,ComponentPad*%
%ADD15O,1.700000X1.700000*%
%TD*%
%TA.AperFunction,ComponentPad*%
%ADD16C,1.500000*%
%TD*%
%TA.AperFunction,ComponentPad*%
%ADD17O,2.100000X1.000000*%
%TD*%
%TA.AperFunction,ComponentPad*%
%ADD18C,1.100000*%
%TD*%
%TA.AperFunction,ViaPad*%
%ADD19C,0.800000*%
%TD*%
%TA.AperFunction,Conductor*%
%ADD20C,0.300000*%
%TD*%
%TA.AperFunction,Conductor*%
%ADD21C,0.250000*%
%TD*%
G04 APERTURE END LIST*
D10*
%TO.P,C1,2*%
%TO.N,H_GND*%
X104870000Y-115570000D03*
D11*
%TO.P,C1,1*%
%TO.N,+5V*%
X102870000Y-115570000D03*
%TD*%
%TO.P,C2,1*%
%TO.N,H_VCC*%
X108490000Y-115570000D03*
D10*
%TO.P,C2,2*%
%TO.N,H_GND*%
X110490000Y-115570000D03*
%TD*%
%TO.P,C4,1*%
%TO.N,H_VCC*%
%TA.AperFunction,SMDPad,CuDef*%
G36*
G01*
X149609000Y-105807500D02*
X149609000Y-106282500D01*
G75*
G02*
X149371500Y-106520000I-237500J0D01*
G01*
X148771500Y-106520000D01*
G75*
G02*
X148534000Y-106282500I0J237500D01*
G01*
X148534000Y-105807500D01*
G75*
G02*
X148771500Y-105570000I237500J0D01*
G01*
X149371500Y-105570000D01*
G75*
G02*
X149609000Y-105807500I0J-237500D01*
G01*
G37*
%TD.AperFunction*%
%TO.P,C4,2*%
%TO.N,H_GND*%
%TA.AperFunction,SMDPad,CuDef*%
G36*
G01*
X147884000Y-105807500D02*
X147884000Y-106282500D01*
G75*
G02*
X147646500Y-106520000I-237500J0D01*
G01*
X147046500Y-106520000D01*
G75*
G02*
X146809000Y-106282500I0J237500D01*
G01*
X146809000Y-105807500D01*
G75*
G02*
X147046500Y-105570000I237500J0D01*
G01*
X147646500Y-105570000D01*
G75*
G02*
X147884000Y-105807500I0J-237500D01*
G01*
G37*
%TD.AperFunction*%
%TD*%
%TO.P,C5,2*%
%TO.N,H_GND*%
%TA.AperFunction,SMDPad,CuDef*%
G36*
G01*
X134564000Y-103488500D02*
X134564000Y-103013500D01*
G75*
G02*
X134801500Y-102776000I237500J0D01*
G01*
X135401500Y-102776000D01*
G75*
G02*
X135639000Y-103013500I0J-237500D01*
G01*
X135639000Y-103488500D01*
G75*
G02*
X135401500Y-103726000I-237500J0D01*
G01*
X134801500Y-103726000D01*
G75*
G02*
X134564000Y-103488500I0J237500D01*
G01*
G37*
%TD.AperFunction*%
%TO.P,C5,1*%
%TO.N,H_VCC*%
%TA.AperFunction,SMDPad,CuDef*%
G36*
G01*
X132839000Y-103488500D02*
X132839000Y-103013500D01*
G75*
G02*
X133076500Y-102776000I237500J0D01*
G01*
X133676500Y-102776000D01*
G75*
G02*
X133914000Y-103013500I0J-237500D01*
G01*
X133914000Y-103488500D01*
G75*
G02*
X133676500Y-103726000I-237500J0D01*
G01*
X133076500Y-103726000D01*
G75*
G02*
X132839000Y-103488500I0J237500D01*
G01*
G37*
%TD.AperFunction*%
%TD*%
%TO.P,C6,1*%
%TO.N,H_VCC*%
%TA.AperFunction,SMDPad,CuDef*%
G36*
G01*
X138286500Y-108969000D02*
X137811500Y-108969000D01*
G75*
G02*
X137574000Y-108731500I0J237500D01*
G01*
X137574000Y-108131500D01*
G75*
G02*
X137811500Y-107894000I237500J0D01*
G01*
X138286500Y-107894000D01*
G75*
G02*
X138524000Y-108131500I0J-237500D01*
G01*
X138524000Y-108731500D01*
G75*
G02*
X138286500Y-108969000I-237500J0D01*
G01*
G37*
%TD.AperFunction*%
%TO.P,C6,2*%
%TO.N,H_GND*%
%TA.AperFunction,SMDPad,CuDef*%
G36*
G01*
X138286500Y-107244000D02*
X137811500Y-107244000D01*
G75*
G02*
X137574000Y-107006500I0J237500D01*
G01*
X137574000Y-106406500D01*
G75*
G02*
X137811500Y-106169000I237500J0D01*
G01*
X138286500Y-106169000D01*
G75*
G02*
X138524000Y-106406500I0J-237500D01*
G01*
X138524000Y-107006500D01*
G75*
G02*
X138286500Y-107244000I-237500J0D01*
G01*
G37*
%TD.AperFunction*%
%TD*%
%TO.P,C7,1*%
%TO.N,H_VCC*%
%TA.AperFunction,SMDPad,CuDef*%
G36*
G01*
X144001500Y-108969000D02*
X143526500Y-108969000D01*
G75*
G02*
X143289000Y-108731500I0J237500D01*
G01*
X143289000Y-108131500D01*
G75*
G02*
X143526500Y-107894000I237500J0D01*
G01*
X144001500Y-107894000D01*
G75*
G02*
X144239000Y-108131500I0J-237500D01*
G01*
X144239000Y-108731500D01*
G75*
G02*
X144001500Y-108969000I-237500J0D01*
G01*
G37*
%TD.AperFunction*%
%TO.P,C7,2*%
%TO.N,H_GND*%
%TA.AperFunction,SMDPad,CuDef*%
G36*
G01*
X144001500Y-107244000D02*
X143526500Y-107244000D01*
G75*
G02*
X143289000Y-107006500I0J237500D01*
G01*
X143289000Y-106406500D01*
G75*
G02*
X143526500Y-106169000I237500J0D01*
G01*
X144001500Y-106169000D01*
G75*
G02*
X144239000Y-106406500I0J-237500D01*
G01*
X144239000Y-107006500D01*
G75*
G02*
X144001500Y-107244000I-237500J0D01*
G01*
G37*
%TD.AperFunction*%
%TD*%
%TO.P,C8,2*%
%TO.N,H_GND*%
%TA.AperFunction,SMDPad,CuDef*%
G36*
G01*
X139716500Y-93416000D02*
X140191500Y-93416000D01*
G75*
G02*
X140429000Y-93653500I0J-237500D01*
G01*
X140429000Y-94253500D01*
G75*
G02*
X140191500Y-94491000I-237500J0D01*
G01*
X139716500Y-94491000D01*
G75*
G02*
X139479000Y-94253500I0J237500D01*
G01*
X139479000Y-93653500D01*
G75*
G02*
X139716500Y-93416000I237500J0D01*
G01*
G37*
%TD.AperFunction*%
%TO.P,C8,1*%
%TO.N,H_VCC*%
%TA.AperFunction,SMDPad,CuDef*%
G36*
G01*
X139716500Y-91691000D02*
X140191500Y-91691000D01*
G75*
G02*
X140429000Y-91928500I0J-237500D01*
G01*
X140429000Y-92528500D01*
G75*
G02*
X140191500Y-92766000I-237500J0D01*
G01*
X139716500Y-92766000D01*
G75*
G02*
X139479000Y-92528500I0J237500D01*
G01*
X139479000Y-91928500D01*
G75*
G02*
X139716500Y-91691000I237500J0D01*
G01*
G37*
%TD.AperFunction*%
%TD*%
%TO.P,C9,2*%
%TO.N,H_GND*%
%TA.AperFunction,SMDPad,CuDef*%
G36*
G01*
X137811500Y-93416000D02*
X138286500Y-93416000D01*
G75*
G02*
X138524000Y-93653500I0J-237500D01*
G01*
X138524000Y-94253500D01*
G75*
G02*
X138286500Y-94491000I-237500J0D01*
G01*
X137811500Y-94491000D01*
G75*
G02*
X137574000Y-94253500I0J237500D01*
G01*
X137574000Y-93653500D01*
G75*
G02*
X137811500Y-93416000I237500J0D01*
G01*
G37*
%TD.AperFunction*%
%TO.P,C9,1*%
%TO.N,H_VCC*%
%TA.AperFunction,SMDPad,CuDef*%
G36*
G01*
X137811500Y-91691000D02*
X138286500Y-91691000D01*
G75*
G02*
X138524000Y-91928500I0J-237500D01*
G01*
X138524000Y-92528500D01*
G75*
G02*
X138286500Y-92766000I-237500J0D01*
G01*
X137811500Y-92766000D01*
G75*
G02*
X137574000Y-92528500I0J237500D01*
G01*
X137574000Y-91928500D01*
G75*
G02*
X137811500Y-91691000I237500J0D01*
G01*
G37*
%TD.AperFunction*%
%TD*%
%TO.P,C10,1*%
%TO.N,H_VCC*%
%TA.AperFunction,SMDPad,CuDef*%
G36*
G01*
X149609000Y-100092500D02*
X149609000Y-100567500D01*
G75*
G02*
X149371500Y-100805000I-237500J0D01*
G01*
X148771500Y-100805000D01*
G75*
G02*
X148534000Y-100567500I0J237500D01*
G01*
X148534000Y-100092500D01*
G75*
G02*
X148771500Y-99855000I237500J0D01*
G01*
X149371500Y-99855000D01*
G75*
G02*
X149609000Y-100092500I0J-237500D01*
G01*
G37*
%TD.AperFunction*%
%TO.P,C10,2*%
%TO.N,H_GND*%
%TA.AperFunction,SMDPad,CuDef*%
G36*
G01*
X147884000Y-100092500D02*
X147884000Y-100567500D01*
G75*
G02*
X147646500Y-100805000I-237500J0D01*
G01*
X147046500Y-100805000D01*
G75*
G02*
X146809000Y-100567500I0J237500D01*
G01*
X146809000Y-100092500D01*
G75*
G02*
X147046500Y-99855000I237500J0D01*
G01*
X147646500Y-99855000D01*
G75*
G02*
X147884000Y-100092500I0J-237500D01*
G01*
G37*
%TD.AperFunction*%
%TD*%
%TO.P,C11,2*%
%TO.N,H_GND*%
%TA.AperFunction,SMDPad,CuDef*%
G36*
G01*
X147884000Y-98187500D02*
X147884000Y-98662500D01*
G75*
G02*
X147646500Y-98900000I-237500J0D01*
G01*
X147046500Y-98900000D01*
G75*
G02*
X146809000Y-98662500I0J237500D01*
G01*
X146809000Y-98187500D01*
G75*
G02*
X147046500Y-97950000I237500J0D01*
G01*
X147646500Y-97950000D01*
G75*
G02*
X147884000Y-98187500I0J-237500D01*
G01*
G37*
%TD.AperFunction*%
%TO.P,C11,1*%
%TO.N,H_VCC*%
%TA.AperFunction,SMDPad,CuDef*%
G36*
G01*
X149609000Y-98187500D02*
X149609000Y-98662500D01*
G75*
G02*
X149371500Y-98900000I-237500J0D01*
G01*
X148771500Y-98900000D01*
G75*
G02*
X148534000Y-98662500I0J237500D01*
G01*
X148534000Y-98187500D01*
G75*
G02*
X148771500Y-97950000I237500J0D01*
G01*
X149371500Y-97950000D01*
G75*
G02*
X149609000Y-98187500I0J-237500D01*
G01*
G37*
%TD.AperFunction*%
%TD*%
%TO.P,C12,1*%
%TO.N,H_VCC*%
%TA.AperFunction,SMDPad,CuDef*%
G36*
G01*
X132839000Y-93963500D02*
X132839000Y-93488500D01*
G75*
G02*
X133076500Y-93251000I237500J0D01*
G01*
X133676500Y-93251000D01*
G75*
G02*
X133914000Y-93488500I0J-237500D01*
G01*
X133914000Y-93963500D01*
G75*
G02*
X133676500Y-94201000I-237500J0D01*
G01*
X133076500Y-94201000D01*
G75*
G02*
X132839000Y-93963500I0J237500D01*
G01*
G37*
%TD.AperFunction*%
%TO.P,C12,2*%
%TO.N,H_GND*%
%TA.AperFunction,SMDPad,CuDef*%
G36*
G01*
X134564000Y-93963500D02*
X134564000Y-93488500D01*
G75*
G02*
X134801500Y-93251000I237500J0D01*
G01*
X135401500Y-93251000D01*
G75*
G02*
X135639000Y-93488500I0J-237500D01*
G01*
X135639000Y-93963500D01*
G75*
G02*
X135401500Y-94201000I-237500J0D01*
G01*
X134801500Y-94201000D01*
G75*
G02*
X134564000Y-93963500I0J237500D01*
G01*
G37*
%TD.AperFunction*%
%TD*%
%TO.P,C13,2*%
%TO.N,H_GND*%
%TA.AperFunction,SMDPad,CuDef*%
G36*
G01*
X134564000Y-95868500D02*
X134564000Y-95393500D01*
G75*
G02*
X134801500Y-95156000I237500J0D01*
G01*
X135401500Y-95156000D01*
G75*
G02*
X135639000Y-95393500I0J-237500D01*
G01*
X135639000Y-95868500D01*
G75*
G02*
X135401500Y-96106000I-237500J0D01*
G01*
X134801500Y-96106000D01*
G75*
G02*
X134564000Y-95868500I0J237500D01*
G01*
G37*
%TD.AperFunction*%
%TO.P,C13,1*%
%TO.N,H_VCC*%
%TA.AperFunction,SMDPad,CuDef*%
G36*
G01*
X132839000Y-95868500D02*
X132839000Y-95393500D01*
G75*
G02*
X133076500Y-95156000I237500J0D01*
G01*
X133676500Y-95156000D01*
G75*
G02*
X133914000Y-95393500I0J-237500D01*
G01*
X133914000Y-95868500D01*
G75*
G02*
X133676500Y-96106000I-237500J0D01*
G01*
X133076500Y-96106000D01*
G75*
G02*
X132839000Y-95868500I0J237500D01*
G01*
G37*
%TD.AperFunction*%
%TD*%
%TO.P,C14,1*%
%TO.N,H_VCC*%
%TA.AperFunction,SMDPad,CuDef*%
G36*
G01*
X132839000Y-97773500D02*
X132839000Y-97298500D01*
G75*
G02*
X133076500Y-97061000I237500J0D01*
G01*
X133676500Y-97061000D01*
G75*
G02*
X133914000Y-97298500I0J-237500D01*
G01*
X133914000Y-97773500D01*
G75*
G02*
X133676500Y-98011000I-237500J0D01*
G01*
X133076500Y-98011000D01*
G75*
G02*
X132839000Y-97773500I0J237500D01*
G01*
G37*
%TD.AperFunction*%
%TO.P,C14,2*%
%TO.N,H_GND*%
%TA.AperFunction,SMDPad,CuDef*%
G36*
G01*
X134564000Y-97773500D02*
X134564000Y-97298500D01*
G75*
G02*
X134801500Y-97061000I237500J0D01*
G01*
X135401500Y-97061000D01*
G75*
G02*
X135639000Y-97298500I0J-237500D01*
G01*
X135639000Y-97773500D01*
G75*
G02*
X135401500Y-98011000I-237500J0D01*
G01*
X134801500Y-98011000D01*
G75*
G02*
X134564000Y-97773500I0J237500D01*
G01*
G37*
%TD.AperFunction*%
%TD*%
%TO.P,C15,2*%
%TO.N,H_GND*%
%TA.AperFunction,SMDPad,CuDef*%
G36*
G01*
X141621500Y-93416000D02*
X142096500Y-93416000D01*
G75*
G02*
X142334000Y-93653500I0J-237500D01*
G01*
X142334000Y-94253500D01*
G75*
G02*
X142096500Y-94491000I-237500J0D01*
G01*
X141621500Y-94491000D01*
G75*
G02*
X141384000Y-94253500I0J237500D01*
G01*
X141384000Y-93653500D01*
G75*
G02*
X141621500Y-93416000I237500J0D01*
G01*
G37*
%TD.AperFunction*%
%TO.P,C15,1*%
%TO.N,H_VCC*%
%TA.AperFunction,SMDPad,CuDef*%
G36*
G01*
X141621500Y-91691000D02*
X142096500Y-91691000D01*
G75*
G02*
X142334000Y-91928500I0J-237500D01*
G01*
X142334000Y-92528500D01*
G75*
G02*
X142096500Y-92766000I-237500J0D01*
G01*
X141621500Y-92766000D01*
G75*
G02*
X141384000Y-92528500I0J237500D01*
G01*
X141384000Y-91928500D01*
G75*
G02*
X141621500Y-91691000I237500J0D01*
G01*
G37*
%TD.AperFunction*%
%TD*%
%TO.P,C16,1*%
%TO.N,H_VCC*%
%TA.AperFunction,SMDPad,CuDef*%
G36*
G01*
X143526500Y-91691000D02*
X144001500Y-91691000D01*
G75*
G02*
X144239000Y-91928500I0J-237500D01*
G01*
X144239000Y-92528500D01*
G75*
G02*
X144001500Y-92766000I-237500J0D01*
G01*
X143526500Y-92766000D01*
G75*
G02*
X143289000Y-92528500I0J237500D01*
G01*
X143289000Y-91928500D01*
G75*
G02*
X143526500Y-91691000I237500J0D01*
G01*
G37*
%TD.AperFunction*%
%TO.P,C16,2*%
%TO.N,H_GND*%
%TA.AperFunction,SMDPad,CuDef*%
G36*
G01*
X143526500Y-93416000D02*
X144001500Y-93416000D01*
G75*
G02*
X144239000Y-93653500I0J-237500D01*
G01*
X144239000Y-94253500D01*
G75*
G02*
X144001500Y-94491000I-237500J0D01*
G01*
X143526500Y-94491000D01*
G75*
G02*
X143289000Y-94253500I0J237500D01*
G01*
X143289000Y-93653500D01*
G75*
G02*
X143526500Y-93416000I237500J0D01*
G01*
G37*
%TD.AperFunction*%
%TD*%
%TO.P,C17,2*%
%TO.N,H_GND*%
%TA.AperFunction,SMDPad,CuDef*%
G36*
G01*
X147884000Y-94377500D02*
X147884000Y-94852500D01*
G75*
G02*
X147646500Y-95090000I-237500J0D01*
G01*
X147046500Y-95090000D01*
G75*
G02*
X146809000Y-94852500I0J237500D01*
G01*
X146809000Y-94377500D01*
G75*
G02*
X147046500Y-94140000I237500J0D01*
G01*
X147646500Y-94140000D01*
G75*
G02*
X147884000Y-94377500I0J-237500D01*
G01*
G37*
%TD.AperFunction*%
%TO.P,C17,1*%
%TO.N,H_VCC*%
%TA.AperFunction,SMDPad,CuDef*%
G36*
G01*
X149609000Y-94377500D02*
X149609000Y-94852500D01*
G75*
G02*
X149371500Y-95090000I-237500J0D01*
G01*
X148771500Y-95090000D01*
G75*
G02*
X148534000Y-94852500I0J237500D01*
G01*
X148534000Y-94377500D01*
G75*
G02*
X148771500Y-94140000I237500J0D01*
G01*
X149371500Y-94140000D01*
G75*
G02*
X149609000Y-94377500I0J-237500D01*
G01*
G37*
%TD.AperFunction*%
%TD*%
%TO.P,C18,2*%
%TO.N,H_GND*%
%TA.AperFunction,SMDPad,CuDef*%
G36*
G01*
X147884000Y-96282500D02*
X147884000Y-96757500D01*
G75*
G02*
X147646500Y-96995000I-237500J0D01*
G01*
X147046500Y-96995000D01*
G75*
G02*
X146809000Y-96757500I0J237500D01*
G01*
X146809000Y-96282500D01*
G75*
G02*
X147046500Y-96045000I237500J0D01*
G01*
X147646500Y-96045000D01*
G75*
G02*
X147884000Y-96282500I0J-237500D01*
G01*
G37*
%TD.AperFunction*%
%TO.P,C18,1*%
%TO.N,H_VCC*%
%TA.AperFunction,SMDPad,CuDef*%
G36*
G01*
X149609000Y-96282500D02*
X149609000Y-96757500D01*
G75*
G02*
X149371500Y-96995000I-237500J0D01*
G01*
X148771500Y-96995000D01*
G75*
G02*
X148534000Y-96757500I0J237500D01*
G01*
X148534000Y-96282500D01*
G75*
G02*
X148771500Y-96045000I237500J0D01*
G01*
X149371500Y-96045000D01*
G75*
G02*
X149609000Y-96282500I0J-237500D01*
G01*
G37*
%TD.AperFunction*%
%TD*%
%TO.P,C19,2*%
%TO.N,H_GND*%
%TA.AperFunction,SMDPad,CuDef*%
G36*
G01*
X147884000Y-103902500D02*
X147884000Y-104377500D01*
G75*
G02*
X147646500Y-104615000I-237500J0D01*
G01*
X147046500Y-104615000D01*
G75*
G02*
X146809000Y-104377500I0J237500D01*
G01*
X146809000Y-103902500D01*
G75*
G02*
X147046500Y-103665000I237500J0D01*
G01*
X147646500Y-103665000D01*
G75*
G02*
X147884000Y-103902500I0J-237500D01*
G01*
G37*
%TD.AperFunction*%
%TO.P,C19,1*%
%TO.N,H_VCC*%
%TA.AperFunction,SMDPad,CuDef*%
G36*
G01*
X149609000Y-103902500D02*
X149609000Y-104377500D01*
G75*
G02*
X149371500Y-104615000I-237500J0D01*
G01*
X148771500Y-104615000D01*
G75*
G02*
X148534000Y-104377500I0J237500D01*
G01*
X148534000Y-103902500D01*
G75*
G02*
X148771500Y-103665000I237500J0D01*
G01*
X149371500Y-103665000D01*
G75*
G02*
X149609000Y-103902500I0J-237500D01*
G01*
G37*
%TD.AperFunction*%
%TD*%
%TO.P,C20,1*%
%TO.N,H_VCC*%
%TA.AperFunction,SMDPad,CuDef*%
G36*
G01*
X149609000Y-101997500D02*
X149609000Y-102472500D01*
G75*
G02*
X149371500Y-102710000I-237500J0D01*
G01*
X148771500Y-102710000D01*
G75*
G02*
X148534000Y-102472500I0J237500D01*
G01*
X148534000Y-101997500D01*
G75*
G02*
X148771500Y-101760000I237500J0D01*
G01*
X149371500Y-101760000D01*
G75*
G02*
X149609000Y-101997500I0J-237500D01*
G01*
G37*
%TD.AperFunction*%
%TO.P,C20,2*%
%TO.N,H_GND*%
%TA.AperFunction,SMDPad,CuDef*%
G36*
G01*
X147884000Y-101997500D02*
X147884000Y-102472500D01*
G75*
G02*
X147646500Y-102710000I-237500J0D01*
G01*
X147046500Y-102710000D01*
G75*
G02*
X146809000Y-102472500I0J237500D01*
G01*
X146809000Y-101997500D01*
G75*
G02*
X147046500Y-101760000I237500J0D01*
G01*
X147646500Y-101760000D01*
G75*
G02*
X147884000Y-101997500I0J-237500D01*
G01*
G37*
%TD.AperFunction*%
%TD*%
%TO.P,C21,1*%
%TO.N,H_VCC*%
%TA.AperFunction,SMDPad,CuDef*%
G36*
G01*
X140191500Y-108969000D02*
X139716500Y-108969000D01*
G75*
G02*
X139479000Y-108731500I0J237500D01*
G01*
X139479000Y-108131500D01*
G75*
G02*
X139716500Y-107894000I237500J0D01*
G01*
X140191500Y-107894000D01*
G75*
G02*
X140429000Y-108131500I0J-237500D01*
G01*
X140429000Y-108731500D01*
G75*
G02*
X140191500Y-108969000I-237500J0D01*
G01*
G37*
%TD.AperFunction*%
%TO.P,C21,2*%
%TO.N,H_GND*%
%TA.AperFunction,SMDPad,CuDef*%
G36*
G01*
X140191500Y-107244000D02*
X139716500Y-107244000D01*
G75*
G02*
X139479000Y-107006500I0J237500D01*
G01*
X139479000Y-106406500D01*
G75*
G02*
X139716500Y-106169000I237500J0D01*
G01*
X140191500Y-106169000D01*
G75*
G02*
X140429000Y-106406500I0J-237500D01*
G01*
X140429000Y-107006500D01*
G75*
G02*
X140191500Y-107244000I-237500J0D01*
G01*
G37*
%TD.AperFunction*%
%TD*%
%TO.P,C22,1*%
%TO.N,H_VCC*%
%TA.AperFunction,SMDPad,CuDef*%
G36*
G01*
X142096500Y-108969000D02*
X141621500Y-108969000D01*
G75*
G02*
X141384000Y-108731500I0J237500D01*
G01*
X141384000Y-108131500D01*
G75*
G02*
X141621500Y-107894000I237500J0D01*
G01*
X142096500Y-107894000D01*
G75*
G02*
X142334000Y-108131500I0J-237500D01*
G01*
X142334000Y-108731500D01*
G75*
G02*
X142096500Y-108969000I-237500J0D01*
G01*
G37*
%TD.AperFunction*%
%TO.P,C22,2*%
%TO.N,H_GND*%
%TA.AperFunction,SMDPad,CuDef*%
G36*
G01*
X142096500Y-107244000D02*
X141621500Y-107244000D01*
G75*
G02*
X141384000Y-107006500I0J237500D01*
G01*
X141384000Y-106406500D01*
G75*
G02*
X141621500Y-106169000I237500J0D01*
G01*
X142096500Y-106169000D01*
G75*
G02*
X142334000Y-106406500I0J-237500D01*
G01*
X142334000Y-107006500D01*
G75*
G02*
X142096500Y-107244000I-237500J0D01*
G01*
G37*
%TD.AperFunction*%
%TD*%
%TO.P,C23,2*%
%TO.N,H_GND*%
%TA.AperFunction,SMDPad,CuDef*%
G36*
G01*
X134564000Y-105393500D02*
X134564000Y-104918500D01*
G75*
G02*
X134801500Y-104681000I237500J0D01*
G01*
X135401500Y-104681000D01*
G75*
G02*
X135639000Y-104918500I0J-237500D01*
G01*
X135639000Y-105393500D01*
G75*
G02*
X135401500Y-105631000I-237500J0D01*
G01*
X134801500Y-105631000D01*
G75*
G02*
X134564000Y-105393500I0J237500D01*
G01*
G37*
%TD.AperFunction*%
%TO.P,C23,1*%
%TO.N,H_VCC*%
%TA.AperFunction,SMDPad,CuDef*%
G36*
G01*
X132839000Y-105393500D02*
X132839000Y-104918500D01*
G75*
G02*
X133076500Y-104681000I237500J0D01*
G01*
X133676500Y-104681000D01*
G75*
G02*
X133914000Y-104918500I0J-237500D01*
G01*
X133914000Y-105393500D01*
G75*
G02*
X133676500Y-105631000I-237500J0D01*
G01*
X133076500Y-105631000D01*
G75*
G02*
X132839000Y-105393500I0J237500D01*
G01*
G37*
%TD.AperFunction*%
%TD*%
%TO.P,C24,1*%
%TO.N,H_VCC*%
%TA.AperFunction,SMDPad,CuDef*%
G36*
G01*
X132839000Y-107298500D02*
X132839000Y-106823500D01*
G75*
G02*
X133076500Y-106586000I237500J0D01*
G01*
X133676500Y-106586000D01*
G75*
G02*
X133914000Y-106823500I0J-237500D01*
G01*
X133914000Y-107298500D01*
G75*
G02*
X133676500Y-107536000I-237500J0D01*
G01*
X133076500Y-107536000D01*
G75*
G02*
X132839000Y-107298500I0J237500D01*
G01*
G37*
%TD.AperFunction*%
%TO.P,C24,2*%
%TO.N,H_GND*%
%TA.AperFunction,SMDPad,CuDef*%
G36*
G01*
X134564000Y-107298500D02*
X134564000Y-106823500D01*
G75*
G02*
X134801500Y-106586000I237500J0D01*
G01*
X135401500Y-106586000D01*
G75*
G02*
X135639000Y-106823500I0J-237500D01*
G01*
X135639000Y-107298500D01*
G75*
G02*
X135401500Y-107536000I-237500J0D01*
G01*
X134801500Y-107536000D01*
G75*
G02*
X134564000Y-107298500I0J237500D01*
G01*
G37*
%TD.AperFunction*%
%TD*%
%TO.P,C25,2*%
%TO.N,H_GND*%
%TA.AperFunction,SMDPad,CuDef*%
G36*
G01*
X134564000Y-99678500D02*
X134564000Y-99203500D01*
G75*
G02*
X134801500Y-98966000I237500J0D01*
G01*
X135401500Y-98966000D01*
G75*
G02*
X135639000Y-99203500I0J-237500D01*
G01*
X135639000Y-99678500D01*
G75*
G02*
X135401500Y-99916000I-237500J0D01*
G01*
X134801500Y-99916000D01*
G75*
G02*
X134564000Y-99678500I0J237500D01*
G01*
G37*
%TD.AperFunction*%
%TO.P,C25,1*%
%TO.N,H_VCC*%
%TA.AperFunction,SMDPad,CuDef*%
G36*
G01*
X132839000Y-99678500D02*
X132839000Y-99203500D01*
G75*
G02*
X133076500Y-98966000I237500J0D01*
G01*
X133676500Y-98966000D01*
G75*
G02*
X133914000Y-99203500I0J-237500D01*
G01*
X133914000Y-99678500D01*
G75*
G02*
X133676500Y-99916000I-237500J0D01*
G01*
X133076500Y-99916000D01*
G75*
G02*
X132839000Y-99678500I0J237500D01*
G01*
G37*
%TD.AperFunction*%
%TD*%
%TO.P,C26,1*%
%TO.N,H_VCC*%
%TA.AperFunction,SMDPad,CuDef*%
G36*
G01*
X132839000Y-101583500D02*
X132839000Y-101108500D01*
G75*
G02*
X133076500Y-100871000I237500J0D01*
G01*
X133676500Y-100871000D01*
G75*
G02*
X133914000Y-101108500I0J-237500D01*
G01*
X133914000Y-101583500D01*
G75*
G02*
X133676500Y-101821000I-237500J0D01*
G01*
X133076500Y-101821000D01*
G75*
G02*
X132839000Y-101583500I0J237500D01*
G01*
G37*
%TD.AperFunction*%
%TO.P,C26,2*%
%TO.N,H_GND*%
%TA.AperFunction,SMDPad,CuDef*%
G36*
G01*
X134564000Y-101583500D02*
X134564000Y-101108500D01*
G75*
G02*
X134801500Y-100871000I237500J0D01*
G01*
X135401500Y-100871000D01*
G75*
G02*
X135639000Y-101108500I0J-237500D01*
G01*
X135639000Y-101583500D01*
G75*
G02*
X135401500Y-101821000I-237500J0D01*
G01*
X134801500Y-101821000D01*
G75*
G02*
X134564000Y-101583500I0J237500D01*
G01*
G37*
%TD.AperFunction*%
%TD*%
%TO.P,C27,1*%
%TO.N,TDO*%
%TA.AperFunction,SMDPad,CuDef*%
G36*
G01*
X104156500Y-86992000D02*
X104631500Y-86992000D01*
G75*
G02*
X104869000Y-87229500I0J-237500D01*
G01*
X104869000Y-87829500D01*
G75*
G02*
X104631500Y-88067000I-237500J0D01*
G01*
X104156500Y-88067000D01*
G75*
G02*
X103919000Y-87829500I0J237500D01*
G01*
X103919000Y-87229500D01*
G75*
G02*
X104156500Y-86992000I237500J0D01*
G01*
G37*
%TD.AperFunction*%
%TO.P,C27,2*%
%TO.N,H_GND*%
%TA.AperFunction,SMDPad,CuDef*%
G36*
G01*
X104156500Y-88717000D02*
X104631500Y-88717000D01*
G75*
G02*
X104869000Y-88954500I0J-237500D01*
G01*
X104869000Y-89554500D01*
G75*
G02*
X104631500Y-89792000I-237500J0D01*
G01*
X104156500Y-89792000D01*
G75*
G02*
X103919000Y-89554500I0J237500D01*
G01*
X103919000Y-88954500D01*
G75*
G02*
X104156500Y-88717000I237500J0D01*
G01*
G37*
%TD.AperFunction*%
%TD*%
%TO.P,C28,2*%
%TO.N,H_GND*%
%TA.AperFunction,SMDPad,CuDef*%
G36*
G01*
X104156500Y-97607000D02*
X104631500Y-97607000D01*
G75*
G02*
X104869000Y-97844500I0J-237500D01*
G01*
X104869000Y-98444500D01*
G75*
G02*
X104631500Y-98682000I-237500J0D01*
G01*
X104156500Y-98682000D01*
G75*
G02*
X103919000Y-98444500I0J237500D01*
G01*
X103919000Y-97844500D01*
G75*
G02*
X104156500Y-97607000I237500J0D01*
G01*
G37*
%TD.AperFunction*%
%TO.P,C28,1*%
%TO.N,TDI*%
%TA.AperFunction,SMDPad,CuDef*%
G36*
G01*
X104156500Y-95882000D02*
X104631500Y-95882000D01*
G75*
G02*
X104869000Y-96119500I0J-237500D01*
G01*
X104869000Y-96719500D01*
G75*
G02*
X104631500Y-96957000I-237500J0D01*
G01*
X104156500Y-96957000D01*
G75*
G02*
X103919000Y-96719500I0J237500D01*
G01*
X103919000Y-96119500D01*
G75*
G02*
X104156500Y-95882000I237500J0D01*
G01*
G37*
%TD.AperFunction*%
%TD*%
%TO.P,C29,1*%
%TO.N,TCK*%
%TA.AperFunction,SMDPad,CuDef*%
G36*
G01*
X104010000Y-82279500D02*
X104010000Y-81804500D01*
G75*
G02*
X104247500Y-81567000I237500J0D01*
G01*
X104847500Y-81567000D01*
G75*
G02*
X105085000Y-81804500I0J-237500D01*
G01*
X105085000Y-82279500D01*
G75*
G02*
X104847500Y-82517000I-237500J0D01*
G01*
X104247500Y-82517000D01*
G75*
G02*
X104010000Y-82279500I0J237500D01*
G01*
G37*
%TD.AperFunction*%
%TO.P,C29,2*%
%TO.N,H_GND*%
%TA.AperFunction,SMDPad,CuDef*%
G36*
G01*
X105735000Y-82279500D02*
X105735000Y-81804500D01*
G75*
G02*
X105972500Y-81567000I237500J0D01*
G01*
X106572500Y-81567000D01*
G75*
G02*
X106810000Y-81804500I0J-237500D01*
G01*
X106810000Y-82279500D01*
G75*
G02*
X106572500Y-82517000I-237500J0D01*
G01*
X105972500Y-82517000D01*
G75*
G02*
X105735000Y-82279500I0J237500D01*
G01*
G37*
%TD.AperFunction*%
%TD*%
%TO.P,C30,2*%
%TO.N,H_GND*%
%TA.AperFunction,SMDPad,CuDef*%
G36*
G01*
X104156500Y-92273000D02*
X104631500Y-92273000D01*
G75*
G02*
X104869000Y-92510500I0J-237500D01*
G01*
X104869000Y-93110500D01*
G75*
G02*
X104631500Y-93348000I-237500J0D01*
G01*
X104156500Y-93348000D01*
G75*
G02*
X103919000Y-93110500I0J237500D01*
G01*
X103919000Y-92510500D01*
G75*
G02*
X104156500Y-92273000I237500J0D01*
G01*
G37*
%TD.AperFunction*%
%TO.P,C30,1*%
%TO.N,TMS*%
%TA.AperFunction,SMDPad,CuDef*%
G36*
G01*
X104156500Y-90548000D02*
X104631500Y-90548000D01*
G75*
G02*
X104869000Y-90785500I0J-237500D01*
G01*
X104869000Y-91385500D01*
G75*
G02*
X104631500Y-91623000I-237500J0D01*
G01*
X104156500Y-91623000D01*
G75*
G02*
X103919000Y-91385500I0J237500D01*
G01*
X103919000Y-90785500D01*
G75*
G02*
X104156500Y-90548000I237500J0D01*
G01*
G37*
%TD.AperFunction*%
%TD*%
D12*
%TO.P,D1,2*%
%TO.N,Net-(D1-Pad2)*%
X99060000Y-115570000D03*
D13*
%TO.P,D1,1*%
%TO.N,H_GND*%
X96520000Y-115570000D03*
%TD*%
%TO.P,D2,1*%
%TO.N,H_GND*%
X109220000Y-83820000D03*
D12*
%TO.P,D2,2*%
%TO.N,Net-(D2-Pad2)*%
X111760000Y-83820000D03*
%TD*%
%TO.P,D3,2*%
%TO.N,TDO*%
%TA.AperFunction,SMDPad,CuDef*%
G36*
G01*
X106725000Y-89170500D02*
X106725000Y-89645500D01*
G75*
G02*
X106487500Y-89883000I-237500J0D01*
G01*
X105912500Y-89883000D01*
G75*
G02*
X105675000Y-89645500I0J237500D01*
G01*
X105675000Y-89170500D01*
G75*
G02*
X105912500Y-88933000I237500J0D01*
G01*
X106487500Y-88933000D01*
G75*
G02*
X106725000Y-89170500I0J-237500D01*
G01*
G37*
%TD.AperFunction*%
%TO.P,D3,1*%
%TO.N,H_VCC*%
%TA.AperFunction,SMDPad,CuDef*%
G36*
G01*
X108475000Y-89170500D02*
X108475000Y-89645500D01*
G75*
G02*
X108237500Y-89883000I-237500J0D01*
G01*
X107662500Y-89883000D01*
G75*
G02*
X107425000Y-89645500I0J237500D01*
G01*
X107425000Y-89170500D01*
G75*
G02*
X107662500Y-88933000I237500J0D01*
G01*
X108237500Y-88933000D01*
G75*
G02*
X108475000Y-89170500I0J-237500D01*
G01*
G37*
%TD.AperFunction*%
%TD*%
%TO.P,D4,1*%
%TO.N,H_VCC*%
%TA.AperFunction,SMDPad,CuDef*%
G36*
G01*
X108588000Y-96282500D02*
X108588000Y-96757500D01*
G75*
G02*
X108350500Y-96995000I-237500J0D01*
G01*
X107775500Y-96995000D01*
G75*
G02*
X107538000Y-96757500I0J237500D01*
G01*
X107538000Y-96282500D01*
G75*
G02*
X107775500Y-96045000I237500J0D01*
G01*
X108350500Y-96045000D01*
G75*
G02*
X108588000Y-96282500I0J-237500D01*
G01*
G37*
%TD.AperFunction*%
%TO.P,D4,2*%
%TO.N,TDI*%
%TA.AperFunction,SMDPad,CuDef*%
G36*
G01*
X106838000Y-96282500D02*
X106838000Y-96757500D01*
G75*
G02*
X106600500Y-96995000I-237500J0D01*
G01*
X106025500Y-96995000D01*
G75*
G02*
X105788000Y-96757500I0J237500D01*
G01*
X105788000Y-96282500D01*
G75*
G02*
X106025500Y-96045000I237500J0D01*
G01*
X106600500Y-96045000D01*
G75*
G02*
X106838000Y-96282500I0J-237500D01*
G01*
G37*
%TD.AperFunction*%
%TD*%
%TO.P,D5,2*%
%TO.N,TCK*%
%TA.AperFunction,SMDPad,CuDef*%
G36*
G01*
X103536000Y-79772500D02*
X103536000Y-80247500D01*
G75*
G02*
X103298500Y-80485000I-237500J0D01*
G01*
X102723500Y-80485000D01*
G75*
G02*
X102486000Y-80247500I0J237500D01*
G01*
X102486000Y-79772500D01*
G75*
G02*
X102723500Y-79535000I237500J0D01*
G01*
X103298500Y-79535000D01*
G75*
G02*
X103536000Y-79772500I0J-237500D01*
G01*
G37*
%TD.AperFunction*%
%TO.P,D5,1*%
%TO.N,H_VCC*%
%TA.AperFunction,SMDPad,CuDef*%
G36*
G01*
X105286000Y-79772500D02*
X105286000Y-80247500D01*
G75*
G02*
X105048500Y-80485000I-237500J0D01*
G01*
X104473500Y-80485000D01*
G75*
G02*
X104236000Y-80247500I0J237500D01*
G01*
X104236000Y-79772500D01*
G75*
G02*
X104473500Y-79535000I237500J0D01*
G01*
X105048500Y-79535000D01*
G75*
G02*
X105286000Y-79772500I0J-237500D01*
G01*
G37*
%TD.AperFunction*%
%TD*%
%TO.P,D6,1*%
%TO.N,H_VCC*%
%TA.AperFunction,SMDPad,CuDef*%
G36*
G01*
X108588000Y-90948500D02*
X108588000Y-91423500D01*
G75*
G02*
X108350500Y-91661000I-237500J0D01*
G01*
X107775500Y-91661000D01*
G75*
G02*
X107538000Y-91423500I0J237500D01*
G01*
X107538000Y-90948500D01*
G75*
G02*
X107775500Y-90711000I237500J0D01*
G01*
X108350500Y-90711000D01*
G75*
G02*
X108588000Y-90948500I0J-237500D01*
G01*
G37*
%TD.AperFunction*%
%TO.P,D6,2*%
%TO.N,TMS*%
%TA.AperFunction,SMDPad,CuDef*%
G36*
G01*
X106838000Y-90948500D02*
X106838000Y-91423500D01*
G75*
G02*
X106600500Y-91661000I-237500J0D01*
G01*
X106025500Y-91661000D01*
G75*
G02*
X105788000Y-91423500I0J237500D01*
G01*
X105788000Y-90948500D01*
G75*
G02*
X106025500Y-90711000I237500J0D01*
G01*
X106600500Y-90711000D01*
G75*
G02*
X106838000Y-90948500I0J-237500D01*
G01*
G37*
%TD.AperFunction*%
%TD*%
D14*
%TO.P,J2,1*%
%TO.N,+5V*%
X107950000Y-124460000D03*
D15*
%TO.P,J2,2*%
X107950000Y-121920000D03*
%TO.P,J2,3*%
%TO.N,H_GND*%
X110490000Y-124460000D03*
%TO.P,J2,4*%
X110490000Y-121920000D03*
%TD*%
%TO.P,J3,40*%
%TO.N,H_GND*%
X166370000Y-121920000D03*
%TO.P,J3,39*%
X166370000Y-124460000D03*
%TO.P,J3,38*%
%TO.N,IO_70*%
X163830000Y-121920000D03*
%TO.P,J3,37*%
%TO.N,IO_69*%
X163830000Y-124460000D03*
%TO.P,J3,36*%
%TO.N,IO_68*%
X161290000Y-121920000D03*
%TO.P,J3,35*%
%TO.N,IO_67*%
X161290000Y-124460000D03*
%TO.P,J3,34*%
%TO.N,IO_65*%
X158750000Y-121920000D03*
%TO.P,J3,33*%
%TO.N,IO_63*%
X158750000Y-124460000D03*
%TO.P,J3,32*%
%TO.N,IO_62*%
X156210000Y-121920000D03*
%TO.P,J3,31*%
%TO.N,IO_61*%
X156210000Y-124460000D03*
%TO.P,J3,30*%
%TO.N,IO_60*%
X153670000Y-121920000D03*
%TO.P,J3,29*%
%TO.N,IO_59*%
X153670000Y-124460000D03*
%TO.P,J3,28*%
%TO.N,IO_55*%
X151130000Y-121920000D03*
%TO.P,J3,27*%
%TO.N,IO_54*%
X151130000Y-124460000D03*
%TO.P,J3,26*%
%TO.N,IO_53*%
X148590000Y-121920000D03*
%TO.P,J3,25*%
%TO.N,IO_52*%
X148590000Y-124460000D03*
%TO.P,J3,24*%
%TO.N,IO_51*%
X146050000Y-121920000D03*
%TO.P,J3,23*%
%TO.N,IO_50*%
X146050000Y-124460000D03*
%TO.P,J3,22*%
%TO.N,H_VCC*%
X143510000Y-121920000D03*
%TO.P,J3,21*%
X143510000Y-124460000D03*
%TO.P,J3,20*%
%TO.N,H_GND*%
X140970000Y-121920000D03*
%TO.P,J3,19*%
X140970000Y-124460000D03*
%TO.P,J3,18*%
%TO.N,IO_49*%
X138430000Y-121920000D03*
%TO.P,J3,17*%
%TO.N,IO_48*%
X138430000Y-124460000D03*
%TO.P,J3,16*%
%TO.N,IO_47*%
X135890000Y-121920000D03*
%TO.P,J3,15*%
%TO.N,IO_46*%
X135890000Y-124460000D03*
%TO.P,J3,14*%
%TO.N,IO_44*%
X133350000Y-121920000D03*
%TO.P,J3,13*%
%TO.N,IO_42*%
X133350000Y-124460000D03*
%TO.P,J3,12*%
%TO.N,IO_41*%
X130810000Y-121920000D03*
%TO.P,J3,11*%
%TO.N,IO_40*%
X130810000Y-124460000D03*
%TO.P,J3,10*%
%TO.N,IO_39*%
X128270000Y-121920000D03*
%TO.P,J3,9*%
%TO.N,IO_33*%
X128270000Y-124460000D03*
%TO.P,J3,8*%
%TO.N,IO_32*%
X125730000Y-121920000D03*
%TO.P,J3,7*%
%TO.N,IO_31*%
X125730000Y-124460000D03*
%TO.P,J3,6*%
%TO.N,IO_28*%
X123190000Y-121920000D03*
%TO.P,J3,5*%
%TO.N,IO_27*%
X123190000Y-124460000D03*
%TO.P,J3,4*%
%TO.N,H_VCC*%
X120650000Y-121920000D03*
%TO.P,J3,3*%
X120650000Y-124460000D03*
%TO.P,J3,2*%
%TO.N,H_GND*%
X118110000Y-121920000D03*
D14*
%TO.P,J3,1*%
X118110000Y-124460000D03*
%TD*%
%TO.P,J4,1*%
%TO.N,H_GND*%
X173990000Y-116840000D03*
D15*
%TO.P,J4,2*%
X171450000Y-116840000D03*
%TO.P,J4,3*%
%TO.N,H_VCC*%
X173990000Y-114300000D03*
%TO.P,J4,4*%
X171450000Y-114300000D03*
%TO.P,J4,5*%
%TO.N,IO_74*%
X173990000Y-111760000D03*
%TO.P,J4,6*%
%TO.N,IO_75*%
X171450000Y-111760000D03*
%TO.P,J4,7*%
%TO.N,IO_76*%
X173990000Y-109220000D03*
%TO.P,J4,8*%
%TO.N,IO_77*%
X171450000Y-109220000D03*
%TO.P,J4,9*%
%TO.N,IO_78*%
X173990000Y-106680000D03*
%TO.P,J4,10*%
%TO.N,IO_79*%
X171450000Y-106680000D03*
%TO.P,J4,11*%
%TO.N,IO_80*%
X173990000Y-104140000D03*
%TO.P,J4,12*%
%TO.N,IO_81*%
X171450000Y-104140000D03*
%TO.P,J4,13*%
%TO.N,IO_84*%
X173990000Y-101600000D03*
%TO.P,J4,14*%
%TO.N,IO_85*%
X171450000Y-101600000D03*
%TO.P,J4,15*%
%TO.N,IO_86*%
X173990000Y-99060000D03*
%TO.P,J4,16*%
%TO.N,IO_87*%
X171450000Y-99060000D03*
%TO.P,J4,17*%
%TO.N,IO_88*%
X173990000Y-96520000D03*
%TO.P,J4,18*%
%TO.N,IO_89*%
X171450000Y-96520000D03*
%TO.P,J4,19*%
%TO.N,IO_90*%
X173990000Y-93980000D03*
%TO.P,J4,20*%
%TO.N,IO_91*%
X171450000Y-93980000D03*
%TO.P,J4,21*%
%TO.N,IO_92*%
X173990000Y-91440000D03*
%TO.P,J4,22*%
%TO.N,IO_94*%
X171450000Y-91440000D03*
%TO.P,J4,23*%
%TO.N,IO_95*%
X173990000Y-88900000D03*
%TO.P,J4,24*%
%TO.N,IO_97*%
X171450000Y-88900000D03*
%TO.P,J4,25*%
%TO.N,H_VCC*%
X173990000Y-86360000D03*
%TO.P,J4,26*%
X171450000Y-86360000D03*
%TO.P,J4,27*%
%TO.N,H_GND*%
X173990000Y-83820000D03*
%TO.P,J4,28*%
X171450000Y-83820000D03*
%TD*%
D14*
%TO.P,J5,1*%
%TO.N,H_GND*%
X118110000Y-78740000D03*
D15*
%TO.P,J5,2*%
X118110000Y-76200000D03*
%TO.P,J5,3*%
%TO.N,H_VCC*%
X120650000Y-78740000D03*
%TO.P,J5,4*%
X120650000Y-76200000D03*
%TO.P,J5,5*%
%TO.N,IO_7*%
X123190000Y-78740000D03*
%TO.P,J5,6*%
%TO.N,IO_8*%
X123190000Y-76200000D03*
%TO.P,J5,7*%
%TO.N,IO_5*%
X125730000Y-78740000D03*
%TO.P,J5,8*%
%TO.N,IO_6*%
X125730000Y-76200000D03*
%TO.P,J5,9*%
%TO.N,IO_3*%
X128270000Y-78740000D03*
%TO.P,J5,10*%
%TO.N,IO_4*%
X128270000Y-76200000D03*
%TO.P,J5,11*%
%TO.N,IO_141*%
X130810000Y-78740000D03*
%TO.P,J5,12*%
%TO.N,IO_140*%
X130810000Y-76200000D03*
%TO.P,J5,13*%
%TO.N,IO_139*%
X133350000Y-78740000D03*
%TO.P,J5,14*%
%TO.N,IO_138*%
X133350000Y-76200000D03*
%TO.P,J5,15*%
%TO.N,IO_137*%
X135890000Y-78740000D03*
%TO.P,J5,16*%
%TO.N,IO_134*%
X135890000Y-76200000D03*
%TO.P,J5,17*%
%TO.N,IO_129*%
X138430000Y-78740000D03*
%TO.P,J5,18*%
%TO.N,IO_128*%
X138430000Y-76200000D03*
%TO.P,J5,19*%
%TO.N,H_GND*%
X140970000Y-78740000D03*
%TO.P,J5,20*%
X140970000Y-76200000D03*
%TO.P,J5,21*%
%TO.N,H_VCC*%
X143510000Y-78740000D03*
%TO.P,J5,22*%
X143510000Y-76200000D03*
%TO.P,J5,23*%
%TO.N,IO_127*%
X146050000Y-78740000D03*
%TO.P,J5,24*%
%TO.N,IO_126*%
X146050000Y-76200000D03*
%TO.P,J5,25*%
%TO.N,IO_125*%
X148590000Y-78740000D03*
%TO.P,J5,26*%
%TO.N,IO_124*%
X148590000Y-76200000D03*
%TO.P,J5,27*%
%TO.N,IO_123*%
X151130000Y-78740000D03*
%TO.P,J5,28*%
%TO.N,IO_117*%
X151130000Y-76200000D03*
%TO.P,J5,29*%
%TO.N,IO_116*%
X153670000Y-78740000D03*
%TO.P,J5,30*%
%TO.N,IO_114*%
X153670000Y-76200000D03*
%TO.P,J5,31*%
%TO.N,IO_112*%
X156210000Y-78740000D03*
%TO.P,J5,32*%
%TO.N,IO_106*%
X156210000Y-76200000D03*
%TO.P,J5,33*%
%TO.N,IO_105*%
X158750000Y-78740000D03*
%TO.P,J5,34*%
%TO.N,IO_103*%
X158750000Y-76200000D03*
%TO.P,J5,35*%
%TO.N,IO_101*%
X161290000Y-78740000D03*
%TO.P,J5,36*%
%TO.N,IO_100*%
X161290000Y-76200000D03*
%TO.P,J5,37*%
%TO.N,IO_99*%
X163830000Y-78740000D03*
%TO.P,J5,38*%
%TO.N,IO_98*%
X163830000Y-76200000D03*
%TO.P,J5,39*%
%TO.N,H_GND*%
X166370000Y-78740000D03*
%TO.P,J5,40*%
X166370000Y-76200000D03*
%TD*%
D14*
%TO.P,J6,1*%
%TO.N,TCK*%
X96520000Y-86360000D03*
D15*
%TO.P,J6,2*%
%TO.N,H_GND*%
X99060000Y-86360000D03*
%TO.P,J6,3*%
%TO.N,TDO*%
X96520000Y-88900000D03*
%TO.P,J6,4*%
%TO.N,H_VCC*%
X99060000Y-88900000D03*
%TO.P,J6,5*%
%TO.N,TMS*%
X96520000Y-91440000D03*
%TO.P,J6,6*%
%TO.N,Net-(J6-Pad6)*%
X99060000Y-91440000D03*
%TO.P,J6,7*%
%TO.N,Net-(J6-Pad7)*%
X96520000Y-93980000D03*
%TO.P,J6,8*%
%TO.N,JEN*%
X99060000Y-93980000D03*
%TO.P,J6,9*%
%TO.N,TDI*%
X96520000Y-96520000D03*
%TO.P,J6,10*%
%TO.N,H_GND*%
X99060000Y-96520000D03*
%TD*%
%TO.P,R2,1*%
%TO.N,TCK*%
%TA.AperFunction,SMDPad,CuDef*%
G36*
G01*
X95120000Y-82787500D02*
X95120000Y-82312500D01*
G75*
G02*
X95357500Y-82075000I237500J0D01*
G01*
X95857500Y-82075000D01*
G75*
G02*
X96095000Y-82312500I0J-237500D01*
G01*
X96095000Y-82787500D01*
G75*
G02*
X95857500Y-83025000I-237500J0D01*
G01*
X95357500Y-83025000D01*
G75*
G02*
X95120000Y-82787500I0J237500D01*
G01*
G37*
%TD.AperFunction*%
%TO.P,R2,2*%
%TO.N,H_GND*%
%TA.AperFunction,SMDPad,CuDef*%
G36*
G01*
X96945000Y-82787500D02*
X96945000Y-82312500D01*
G75*
G02*
X97182500Y-82075000I237500J0D01*
G01*
X97682500Y-82075000D01*
G75*
G02*
X97920000Y-82312500I0J-237500D01*
G01*
X97920000Y-82787500D01*
G75*
G02*
X97682500Y-83025000I-237500J0D01*
G01*
X97182500Y-83025000D01*
G75*
G02*
X96945000Y-82787500I0J237500D01*
G01*
G37*
%TD.AperFunction*%
%TD*%
%TO.P,R3,2*%
%TO.N,TDI*%
%TA.AperFunction,SMDPad,CuDef*%
G36*
G01*
X109303000Y-98060500D02*
X109303000Y-98535500D01*
G75*
G02*
X109065500Y-98773000I-237500J0D01*
G01*
X108565500Y-98773000D01*
G75*
G02*
X108328000Y-98535500I0J237500D01*
G01*
X108328000Y-98060500D01*
G75*
G02*
X108565500Y-97823000I237500J0D01*
G01*
X109065500Y-97823000D01*
G75*
G02*
X109303000Y-98060500I0J-237500D01*
G01*
G37*
%TD.AperFunction*%
%TO.P,R3,1*%
%TO.N,H_VCC*%
%TA.AperFunction,SMDPad,CuDef*%
G36*
G01*
X111128000Y-98060500D02*
X111128000Y-98535500D01*
G75*
G02*
X110890500Y-98773000I-237500J0D01*
G01*
X110390500Y-98773000D01*
G75*
G02*
X110153000Y-98535500I0J237500D01*
G01*
X110153000Y-98060500D01*
G75*
G02*
X110390500Y-97823000I237500J0D01*
G01*
X110890500Y-97823000D01*
G75*
G02*
X111128000Y-98060500I0J-237500D01*
G01*
G37*
%TD.AperFunction*%
%TD*%
%TO.P,R4,1*%
%TO.N,H_VCC*%
%TA.AperFunction,SMDPad,CuDef*%
G36*
G01*
X111128000Y-92726500D02*
X111128000Y-93201500D01*
G75*
G02*
X110890500Y-93439000I-237500J0D01*
G01*
X110390500Y-93439000D01*
G75*
G02*
X110153000Y-93201500I0J237500D01*
G01*
X110153000Y-92726500D01*
G75*
G02*
X110390500Y-92489000I237500J0D01*
G01*
X110890500Y-92489000D01*
G75*
G02*
X111128000Y-92726500I0J-237500D01*
G01*
G37*
%TD.AperFunction*%
%TO.P,R4,2*%
%TO.N,TMS*%
%TA.AperFunction,SMDPad,CuDef*%
G36*
G01*
X109303000Y-92726500D02*
X109303000Y-93201500D01*
G75*
G02*
X109065500Y-93439000I-237500J0D01*
G01*
X108565500Y-93439000D01*
G75*
G02*
X108328000Y-93201500I0J237500D01*
G01*
X108328000Y-92726500D01*
G75*
G02*
X108565500Y-92489000I237500J0D01*
G01*
X109065500Y-92489000D01*
G75*
G02*
X109303000Y-92726500I0J-237500D01*
G01*
G37*
%TD.AperFunction*%
%TD*%
%TO.P,R5,2*%
%TO.N,JEN*%
%TA.AperFunction,SMDPad,CuDef*%
G36*
G01*
X106763000Y-94504500D02*
X106763000Y-94979500D01*
G75*
G02*
X106525500Y-95217000I-237500J0D01*
G01*
X106025500Y-95217000D01*
G75*
G02*
X105788000Y-94979500I0J237500D01*
G01*
X105788000Y-94504500D01*
G75*
G02*
X106025500Y-94267000I237500J0D01*
G01*
X106525500Y-94267000D01*
G75*
G02*
X106763000Y-94504500I0J-237500D01*
G01*
G37*
%TD.AperFunction*%
%TO.P,R5,1*%
%TO.N,H_VCC*%
%TA.AperFunction,SMDPad,CuDef*%
G36*
G01*
X108588000Y-94504500D02*
X108588000Y-94979500D01*
G75*
G02*
X108350500Y-95217000I-237500J0D01*
G01*
X107850500Y-95217000D01*
G75*
G02*
X107613000Y-94979500I0J237500D01*
G01*
X107613000Y-94504500D01*
G75*
G02*
X107850500Y-94267000I237500J0D01*
G01*
X108350500Y-94267000D01*
G75*
G02*
X108588000Y-94504500I0J-237500D01*
G01*
G37*
%TD.AperFunction*%
%TD*%
%TO.P,R6,1*%
%TO.N,H_VCC*%
%TA.AperFunction,SMDPad,CuDef*%
G36*
G01*
X148352500Y-84198000D02*
X148827500Y-84198000D01*
G75*
G02*
X149065000Y-84435500I0J-237500D01*
G01*
X149065000Y-84935500D01*
G75*
G02*
X148827500Y-85173000I-237500J0D01*
G01*
X148352500Y-85173000D01*
G75*
G02*
X148115000Y-84935500I0J237500D01*
G01*
X148115000Y-84435500D01*
G75*
G02*
X148352500Y-84198000I237500J0D01*
G01*
G37*
%TD.AperFunction*%
%TO.P,R6,2*%
%TO.N,Net-(R6-Pad2)*%
%TA.AperFunction,SMDPad,CuDef*%
G36*
G01*
X148352500Y-86023000D02*
X148827500Y-86023000D01*
G75*
G02*
X149065000Y-86260500I0J-237500D01*
G01*
X149065000Y-86760500D01*
G75*
G02*
X148827500Y-86998000I-237500J0D01*
G01*
X148352500Y-86998000D01*
G75*
G02*
X148115000Y-86760500I0J237500D01*
G01*
X148115000Y-86260500D01*
G75*
G02*
X148352500Y-86023000I237500J0D01*
G01*
G37*
%TD.AperFunction*%
%TD*%
%TO.P,R7,2*%
%TO.N,Net-(R7-Pad2)*%
%TA.AperFunction,SMDPad,CuDef*%
G36*
G01*
X146574500Y-86023000D02*
X147049500Y-86023000D01*
G75*
G02*
X147287000Y-86260500I0J-237500D01*
G01*
X147287000Y-86760500D01*
G75*
G02*
X147049500Y-86998000I-237500J0D01*
G01*
X146574500Y-86998000D01*
G75*
G02*
X146337000Y-86760500I0J237500D01*
G01*
X146337000Y-86260500D01*
G75*
G02*
X146574500Y-86023000I237500J0D01*
G01*
G37*
%TD.AperFunction*%
%TO.P,R7,1*%
%TO.N,H_VCC*%
%TA.AperFunction,SMDPad,CuDef*%
G36*
G01*
X146574500Y-84198000D02*
X147049500Y-84198000D01*
G75*
G02*
X147287000Y-84435500I0J-237500D01*
G01*
X147287000Y-84935500D01*
G75*
G02*
X147049500Y-85173000I-237500J0D01*
G01*
X146574500Y-85173000D01*
G75*
G02*
X146337000Y-84935500I0J237500D01*
G01*
X146337000Y-84435500D01*
G75*
G02*
X146574500Y-84198000I237500J0D01*
G01*
G37*
%TD.AperFunction*%
%TD*%
%TO.P,R8,1*%
%TO.N,H_VCC*%
%TA.AperFunction,SMDPad,CuDef*%
G36*
G01*
X140732500Y-84198000D02*
X141207500Y-84198000D01*
G75*
G02*
X141445000Y-84435500I0J-237500D01*
G01*
X141445000Y-84935500D01*
G75*
G02*
X141207500Y-85173000I-237500J0D01*
G01*
X140732500Y-85173000D01*
G75*
G02*
X140495000Y-84935500I0J237500D01*
G01*
X140495000Y-84435500D01*
G75*
G02*
X140732500Y-84198000I237500J0D01*
G01*
G37*
%TD.AperFunction*%
%TO.P,R8,2*%
%TO.N,Net-(R8-Pad2)*%
%TA.AperFunction,SMDPad,CuDef*%
G36*
G01*
X140732500Y-86023000D02*
X141207500Y-86023000D01*
G75*
G02*
X141445000Y-86260500I0J-237500D01*
G01*
X141445000Y-86760500D01*
G75*
G02*
X141207500Y-86998000I-237500J0D01*
G01*
X140732500Y-86998000D01*
G75*
G02*
X140495000Y-86760500I0J237500D01*
G01*
X140495000Y-86260500D01*
G75*
G02*
X140732500Y-86023000I237500J0D01*
G01*
G37*
%TD.AperFunction*%
%TD*%
%TO.P,R9,2*%
%TO.N,Net-(R9-Pad2)*%
%TA.AperFunction,SMDPad,CuDef*%
G36*
G01*
X138954500Y-86023000D02*
X139429500Y-86023000D01*
G75*
G02*
X139667000Y-86260500I0J-237500D01*
G01*
X139667000Y-86760500D01*
G75*
G02*
X139429500Y-86998000I-237500J0D01*
G01*
X138954500Y-86998000D01*
G75*
G02*
X138717000Y-86760500I0J237500D01*
G01*
X138717000Y-86260500D01*
G75*
G02*
X138954500Y-86023000I237500J0D01*
G01*
G37*
%TD.AperFunction*%
%TO.P,R9,1*%
%TO.N,H_VCC*%
%TA.AperFunction,SMDPad,CuDef*%
G36*
G01*
X138954500Y-84198000D02*
X139429500Y-84198000D01*
G75*
G02*
X139667000Y-84435500I0J-237500D01*
G01*
X139667000Y-84935500D01*
G75*
G02*
X139429500Y-85173000I-237500J0D01*
G01*
X138954500Y-85173000D01*
G75*
G02*
X138717000Y-84935500I0J237500D01*
G01*
X138717000Y-84435500D01*
G75*
G02*
X138954500Y-84198000I237500J0D01*
G01*
G37*
%TD.AperFunction*%
%TD*%
%TO.P,R10,1*%
%TO.N,H_VCC*%
%TA.AperFunction,SMDPad,CuDef*%
G36*
G01*
X137176500Y-84198000D02*
X137651500Y-84198000D01*
G75*
G02*
X137889000Y-84435500I0J-237500D01*
G01*
X137889000Y-84935500D01*
G75*
G02*
X137651500Y-85173000I-237500J0D01*
G01*
X137176500Y-85173000D01*
G75*
G02*
X136939000Y-84935500I0J237500D01*
G01*
X136939000Y-84435500D01*
G75*
G02*
X137176500Y-84198000I237500J0D01*
G01*
G37*
%TD.AperFunction*%
%TO.P,R10,2*%
%TO.N,Net-(R10-Pad2)*%
%TA.AperFunction,SMDPad,CuDef*%
G36*
G01*
X137176500Y-86023000D02*
X137651500Y-86023000D01*
G75*
G02*
X137889000Y-86260500I0J-237500D01*
G01*
X137889000Y-86760500D01*
G75*
G02*
X137651500Y-86998000I-237500J0D01*
G01*
X137176500Y-86998000D01*
G75*
G02*
X136939000Y-86760500I0J237500D01*
G01*
X136939000Y-86260500D01*
G75*
G02*
X137176500Y-86023000I237500J0D01*
G01*
G37*
%TD.AperFunction*%
%TD*%
%TO.P,R11,2*%
%TO.N,Net-(R11-Pad2)*%
%TA.AperFunction,SMDPad,CuDef*%
G36*
G01*
X135398500Y-86023000D02*
X135873500Y-86023000D01*
G75*
G02*
X136111000Y-86260500I0J-237500D01*
G01*
X136111000Y-86760500D01*
G75*
G02*
X135873500Y-86998000I-237500J0D01*
G01*
X135398500Y-86998000D01*
G75*
G02*
X135161000Y-86760500I0J237500D01*
G01*
X135161000Y-86260500D01*
G75*
G02*
X135398500Y-86023000I237500J0D01*
G01*
G37*
%TD.AperFunction*%
%TO.P,R11,1*%
%TO.N,H_VCC*%
%TA.AperFunction,SMDPad,CuDef*%
G36*
G01*
X135398500Y-84198000D02*
X135873500Y-84198000D01*
G75*
G02*
X136111000Y-84435500I0J-237500D01*
G01*
X136111000Y-84935500D01*
G75*
G02*
X135873500Y-85173000I-237500J0D01*
G01*
X135398500Y-85173000D01*
G75*
G02*
X135161000Y-84935500I0J237500D01*
G01*
X135161000Y-84435500D01*
G75*
G02*
X135398500Y-84198000I237500J0D01*
G01*
G37*
%TD.AperFunction*%
%TD*%
%TO.P,R12,1*%
%TO.N,H_VCC*%
%TA.AperFunction,SMDPad,CuDef*%
G36*
G01*
X144034500Y-84198000D02*
X144509500Y-84198000D01*
G75*
G02*
X144747000Y-84435500I0J-237500D01*
G01*
X144747000Y-84935500D01*
G75*
G02*
X144509500Y-85173000I-237500J0D01*
G01*
X144034500Y-85173000D01*
G75*
G02*
X143797000Y-84935500I0J237500D01*
G01*
X143797000Y-84435500D01*
G75*
G02*
X144034500Y-84198000I237500J0D01*
G01*
G37*
%TD.AperFunction*%
%TO.P,R12,2*%
%TO.N,Net-(R12-Pad2)*%
%TA.AperFunction,SMDPad,CuDef*%
G36*
G01*
X144034500Y-86023000D02*
X144509500Y-86023000D01*
G75*
G02*
X144747000Y-86260500I0J-237500D01*
G01*
X144747000Y-86760500D01*
G75*
G02*
X144509500Y-86998000I-237500J0D01*
G01*
X144034500Y-86998000D01*
G75*
G02*
X143797000Y-86760500I0J237500D01*
G01*
X143797000Y-86260500D01*
G75*
G02*
X144034500Y-86023000I237500J0D01*
G01*
G37*
%TD.AperFunction*%
%TD*%
%TO.P,R13,2*%
%TO.N,H_GND*%
%TA.AperFunction,SMDPad,CuDef*%
G36*
G01*
X142985500Y-85173000D02*
X142510500Y-85173000D01*
G75*
G02*
X142273000Y-84935500I0J237500D01*
G01*
X142273000Y-84435500D01*
G75*
G02*
X142510500Y-84198000I237500J0D01*
G01*
X142985500Y-84198000D01*
G75*
G02*
X143223000Y-84435500I0J-237500D01*
G01*
X143223000Y-84935500D01*
G75*
G02*
X142985500Y-85173000I-237500J0D01*
G01*
G37*
%TD.AperFunction*%
%TO.P,R13,1*%
%TO.N,Net-(R12-Pad2)*%
%TA.AperFunction,SMDPad,CuDef*%
G36*
G01*
X142985500Y-86998000D02*
X142510500Y-86998000D01*
G75*
G02*
X142273000Y-86760500I0J237500D01*
G01*
X142273000Y-86260500D01*
G75*
G02*
X142510500Y-86023000I237500J0D01*
G01*
X142985500Y-86023000D01*
G75*
G02*
X143223000Y-86260500I0J-237500D01*
G01*
X143223000Y-86760500D01*
G75*
G02*
X142985500Y-86998000I-237500J0D01*
G01*
G37*
%TD.AperFunction*%
%TD*%
D16*
%TO.P,S1,4*%
%TO.N,H_GND*%
X113740000Y-79720000D03*
%TO.P,S1,3*%
%TO.N,Net-(S1-Pad3)*%
X107240000Y-79720000D03*
%TO.P,S1,2*%
%TO.N,Net-(S1-Pad2)*%
X113740000Y-75220000D03*
%TO.P,S1,1*%
%TO.N,~RESET*%
X107240000Y-75220000D03*
%TD*%
D17*
%TO.P,J1,6*%
%TO.N,Net-(J1-Pad6)*%
X100965000Y-103725000D03*
X96215000Y-111125000D03*
X96215000Y-103725000D03*
X100965000Y-111125000D03*
D18*
%TO.P,J1,2*%
%TO.N,Net-(J1-Pad2)*%
X100665000Y-106625000D03*
%TO.P,J1,3*%
%TO.N,Net-(J1-Pad3)*%
X101865000Y-107425000D03*
%TO.P,J1,5*%
%TO.N,H_GND*%
X101865000Y-109025000D03*
%TO.P,J1,1*%
%TO.N,+5V*%
X101865000Y-105825000D03*
%TO.P,J1,4*%
%TO.N,Net-(J1-Pad4)*%
X100665000Y-108225000D03*
%TD*%
D19*
%TO.N,H_GND*%
X136144000Y-109474000D03*
X142240000Y-112522000D03*
X146812000Y-109728000D03*
X150114000Y-103378000D03*
X148082000Y-97536000D03*
X150114000Y-87884000D03*
X144780000Y-87884000D03*
X138430000Y-85598000D03*
X131826000Y-87884000D03*
X126746000Y-97028000D03*
X128778000Y-101092000D03*
X131572000Y-106426000D03*
X136398000Y-107188000D03*
X136398000Y-105156000D03*
X136398000Y-103378000D03*
X136398000Y-101346000D03*
X136398000Y-99314000D03*
X136398000Y-97536000D03*
X136398000Y-95758000D03*
X137922000Y-95250000D03*
X139954000Y-95250000D03*
X141986000Y-95250000D03*
X143764000Y-95250000D03*
X146050000Y-94488000D03*
X146050000Y-96520000D03*
X146050000Y-98298000D03*
X146050000Y-100330000D03*
X146050000Y-102108000D03*
X146050000Y-104140000D03*
X146050000Y-105918000D03*
X143764000Y-105410000D03*
X141732000Y-105410000D03*
X139954000Y-105410000D03*
X138430000Y-105410000D03*
X136398000Y-93726000D03*
X142748000Y-83058000D03*
X131318000Y-112776000D03*
X149860000Y-93218000D03*
X107696000Y-82042000D03*
X101600000Y-98298000D03*
X101600000Y-89408000D03*
X99314000Y-83820000D03*
X123190000Y-105918000D03*
X124714000Y-104394000D03*
X117094000Y-105918000D03*
X107315000Y-101981000D03*
X108331000Y-101981000D03*
X109347000Y-101981000D03*
X110363000Y-101981000D03*
X111379000Y-101981000D03*
X106299000Y-101981000D03*
X105283000Y-101981000D03*
X104267000Y-101981000D03*
X103251000Y-101981000D03*
X109855000Y-102997000D03*
X110871000Y-102997000D03*
X109855000Y-104013000D03*
X110871000Y-104013000D03*
X104775000Y-102997000D03*
X103759000Y-102997000D03*
X103759000Y-104013000D03*
X104775000Y-104013000D03*
X106553000Y-112395000D03*
X106553000Y-111379000D03*
X108077000Y-111379000D03*
X108077000Y-112395000D03*
X107315000Y-111887000D03*
X102870000Y-93726000D03*
%TO.N,H_VCC*%
X110744000Y-99822000D03*
X121158000Y-101854000D03*
X119634000Y-103378000D03*
X117094000Y-101854000D03*
X105156000Y-120650000D03*
X105410000Y-78486000D03*
X151384000Y-86868000D03*
X152400000Y-86106000D03*
X144272000Y-83058000D03*
X132334000Y-93726000D03*
X133350000Y-92710000D03*
X132334000Y-95758000D03*
X132334000Y-97536000D03*
X132334000Y-99314000D03*
X132334000Y-101346000D03*
X132334000Y-105156000D03*
X138176000Y-109474000D03*
X132334000Y-102870000D03*
X132334000Y-107188000D03*
X132334000Y-91440000D03*
X132334000Y-92456000D03*
X132334000Y-108458000D03*
X132334000Y-109474000D03*
X133350000Y-109474000D03*
X133350000Y-108458000D03*
X139954000Y-109474000D03*
X141986000Y-109474000D03*
X143764000Y-109474000D03*
X145796000Y-109474000D03*
X144780000Y-109474000D03*
X150114000Y-105918000D03*
X150114000Y-104902000D03*
X150114000Y-102362000D03*
X150114000Y-100330000D03*
X150114000Y-98552000D03*
X150114000Y-96520000D03*
X150114000Y-94742000D03*
X144526000Y-90932000D03*
X141732000Y-90932000D03*
X139954000Y-90932000D03*
X137668000Y-90932000D03*
X149860000Y-91186000D03*
X149860000Y-92202000D03*
X150622000Y-111506000D03*
X150622000Y-110490000D03*
X148590000Y-92202000D03*
X111760000Y-96520000D03*
X111760000Y-94742000D03*
X111760000Y-91186000D03*
X107950000Y-87884000D03*
X114046000Y-92964000D03*
X111633000Y-107569000D03*
X112649000Y-107569000D03*
X113665000Y-107569000D03*
X114681000Y-107569000D03*
X115697000Y-107569000D03*
X111633000Y-108585000D03*
X112649000Y-108585000D03*
X113665000Y-108585000D03*
X114681000Y-108585000D03*
X115697000Y-108585000D03*
X111633000Y-109601000D03*
X112649000Y-109601000D03*
X113665000Y-109601000D03*
X114681000Y-109601000D03*
X115697000Y-109601000D03*
X111633000Y-110617000D03*
X112649000Y-110617000D03*
X113665000Y-110617000D03*
X114681000Y-110617000D03*
X115697000Y-110617000D03*
%TO.N,TDO*%
X96520000Y-99060000D03*
%TO.N,JEN*%
X127762000Y-97536000D03*
%TO.N,Net-(R6-Pad2)*%
X147828000Y-91186000D03*
%TO.N,Net-(R7-Pad2)*%
X146812000Y-91186000D03*
%TO.N,Net-(R8-Pad2)*%
X142748000Y-90932000D03*
%TO.N,Net-(R9-Pad2)*%
X138938000Y-87884000D03*
%TO.N,Net-(R10-Pad2)*%
X138938000Y-91186000D03*
%TO.N,Net-(R11-Pad2)*%
X136398000Y-83566000D03*
%TO.N,Net-(R12-Pad2)*%
X143510000Y-87884000D03*
%TD*%
D20*
%TO.N,H_GND*%
X136271000Y-107061000D02*
X136398000Y-107188000D01*
X135101500Y-107061000D02*
X136271000Y-107061000D01*
X135101500Y-105156000D02*
X136398000Y-105156000D01*
X136271000Y-103251000D02*
X136398000Y-103378000D01*
X135101500Y-103251000D02*
X136271000Y-103251000D01*
X135101500Y-101346000D02*
X136398000Y-101346000D01*
X136271000Y-99441000D02*
X136398000Y-99314000D01*
X135101500Y-99441000D02*
X136271000Y-99441000D01*
X135101500Y-97536000D02*
X136398000Y-97536000D01*
X136271000Y-95631000D02*
X136398000Y-95758000D01*
X135101500Y-95631000D02*
X136271000Y-95631000D01*
X138049000Y-95123000D02*
X137922000Y-95250000D01*
X138049000Y-93953500D02*
X138049000Y-95123000D01*
X139954000Y-93953500D02*
X139954000Y-95250000D01*
X141859000Y-95123000D02*
X141986000Y-95250000D01*
X141859000Y-93953500D02*
X141859000Y-95123000D01*
X143764000Y-93953500D02*
X143764000Y-95250000D01*
X146177000Y-94615000D02*
X146050000Y-94488000D01*
X147346500Y-94615000D02*
X146177000Y-94615000D01*
X147346500Y-96520000D02*
X146050000Y-96520000D01*
X147346500Y-100330000D02*
X146050000Y-100330000D01*
X146177000Y-102235000D02*
X146050000Y-102108000D01*
X147346500Y-102235000D02*
X146177000Y-102235000D01*
X146177000Y-106045000D02*
X146050000Y-105918000D01*
X147346500Y-106045000D02*
X146177000Y-106045000D01*
X143764000Y-106706500D02*
X143764000Y-105410000D01*
X141859000Y-105537000D02*
X141732000Y-105410000D01*
X141859000Y-106706500D02*
X141859000Y-105537000D01*
X139954000Y-106706500D02*
X139954000Y-105410000D01*
X138049000Y-105791000D02*
X138430000Y-105410000D01*
X138049000Y-106706500D02*
X138049000Y-105791000D01*
X135101500Y-93726000D02*
X136398000Y-93726000D01*
X142748000Y-84685500D02*
X142748000Y-83058000D01*
X106272500Y-82042000D02*
X107696000Y-82042000D01*
D21*
X98044000Y-82550000D02*
X99314000Y-83820000D01*
X97432500Y-82550000D02*
X98044000Y-82550000D01*
X101753500Y-89254500D02*
X101600000Y-89408000D01*
X104394000Y-89254500D02*
X101753500Y-89254500D01*
X101753500Y-98144500D02*
X101600000Y-98298000D01*
X104394000Y-98144500D02*
X101753500Y-98144500D01*
D20*
X103478500Y-93726000D02*
X104394000Y-92810500D01*
X102870000Y-93726000D02*
X103478500Y-93726000D01*
X147346500Y-104140000D02*
X146050000Y-104140000D01*
X146177000Y-98425000D02*
X146050000Y-98298000D01*
X147346500Y-98425000D02*
X146177000Y-98425000D01*
%TO.N,H_VCC*%
X133376500Y-92736500D02*
X133350000Y-92710000D01*
X133376500Y-93726000D02*
X133376500Y-92736500D01*
X133376500Y-93726000D02*
X132334000Y-93726000D01*
X132461000Y-95631000D02*
X132334000Y-95758000D01*
X133376500Y-95631000D02*
X132461000Y-95631000D01*
X133376500Y-97536000D02*
X132334000Y-97536000D01*
X132461000Y-99441000D02*
X132334000Y-99314000D01*
X133376500Y-99441000D02*
X132461000Y-99441000D01*
X133376500Y-101346000D02*
X132334000Y-101346000D01*
X132715000Y-103251000D02*
X132334000Y-102870000D01*
X133376500Y-103251000D02*
X132715000Y-103251000D01*
X133376500Y-105156000D02*
X132334000Y-105156000D01*
X132461000Y-107061000D02*
X132334000Y-107188000D01*
X133376500Y-107061000D02*
X132461000Y-107061000D01*
X138049000Y-109347000D02*
X138176000Y-109474000D01*
X138049000Y-108431500D02*
X138049000Y-109347000D01*
X139954000Y-108431500D02*
X139954000Y-109474000D01*
X141859000Y-109347000D02*
X141986000Y-109474000D01*
X141859000Y-108431500D02*
X141859000Y-109347000D01*
X143764000Y-108431500D02*
X143764000Y-109474000D01*
X149987000Y-106045000D02*
X150114000Y-105918000D01*
X149071500Y-106045000D02*
X149987000Y-106045000D01*
X149987000Y-102235000D02*
X150114000Y-102362000D01*
X149071500Y-102235000D02*
X149987000Y-102235000D01*
X149071500Y-100330000D02*
X150114000Y-100330000D01*
X149987000Y-98425000D02*
X150114000Y-98552000D01*
X149071500Y-98425000D02*
X149987000Y-98425000D01*
X149071500Y-96520000D02*
X150114000Y-96520000D01*
X149987000Y-94615000D02*
X150114000Y-94742000D01*
X149071500Y-94615000D02*
X149987000Y-94615000D01*
X141859000Y-91059000D02*
X141732000Y-90932000D01*
X141859000Y-92228500D02*
X141859000Y-91059000D01*
X139954000Y-92228500D02*
X139954000Y-90932000D01*
X143764000Y-91694000D02*
X144526000Y-90932000D01*
X143764000Y-92228500D02*
X143764000Y-91694000D01*
X137668000Y-91847500D02*
X138049000Y-92228500D01*
X137668000Y-90932000D02*
X137668000Y-91847500D01*
X144272000Y-84685500D02*
X144272000Y-83058000D01*
X144272000Y-84685500D02*
X146812000Y-84685500D01*
X146812000Y-84685500D02*
X148590000Y-84685500D01*
X141807510Y-85523010D02*
X140970000Y-84685500D01*
X143434490Y-85523010D02*
X141807510Y-85523010D01*
X144272000Y-84685500D02*
X143434490Y-85523010D01*
X140970000Y-84685500D02*
X139192000Y-84685500D01*
X139192000Y-84685500D02*
X137414000Y-84685500D01*
X137414000Y-84685500D02*
X135636000Y-84685500D01*
X150264500Y-86360000D02*
X148590000Y-84685500D01*
X149709500Y-84685500D02*
X148590000Y-84685500D01*
X150622000Y-85598000D02*
X149709500Y-84685500D01*
D21*
X149071500Y-94615000D02*
X149071500Y-93699500D01*
X149071500Y-93699500D02*
X148590000Y-93218000D01*
X148590000Y-93218000D02*
X148590000Y-92202000D01*
X148590000Y-92202000D02*
X148590000Y-92202000D01*
D20*
X104761000Y-79135000D02*
X105410000Y-78486000D01*
X104761000Y-80010000D02*
X104761000Y-79135000D01*
D21*
X110640500Y-99718500D02*
X110744000Y-99822000D01*
X110640500Y-98298000D02*
X110640500Y-99718500D01*
X108063000Y-96520000D02*
X111760000Y-96520000D01*
X108100500Y-94742000D02*
X111760000Y-94742000D01*
X110640500Y-92964000D02*
X114046000Y-92964000D01*
X108063000Y-91186000D02*
X111760000Y-91186000D01*
X107950000Y-89408000D02*
X107950000Y-87884000D01*
D20*
X149352000Y-104140000D02*
X150114000Y-104902000D01*
X149071500Y-104140000D02*
X149352000Y-104140000D01*
X150876000Y-86360000D02*
X151384000Y-86868000D01*
X150264500Y-86360000D02*
X150876000Y-86360000D01*
X151892000Y-85598000D02*
X152400000Y-86106000D01*
X150622000Y-85598000D02*
X151892000Y-85598000D01*
D21*
%TO.N,TDO*%
X106200000Y-89408000D02*
X106200000Y-88420000D01*
X105309500Y-87529500D02*
X104394000Y-87529500D01*
X106200000Y-88420000D02*
X105309500Y-87529500D01*
X97884999Y-87535001D02*
X96520000Y-88900000D01*
X104388499Y-87535001D02*
X97884999Y-87535001D01*
X104394000Y-87529500D02*
X104388499Y-87535001D01*
X95344999Y-97884999D02*
X95344999Y-90075001D01*
X95344999Y-90075001D02*
X96520000Y-88900000D01*
X96520000Y-99060000D02*
X95344999Y-97884999D01*
D20*
%TO.N,TDI*%
X106212500Y-96419500D02*
X106313000Y-96520000D01*
X104394000Y-96419500D02*
X106212500Y-96419500D01*
X108091000Y-98298000D02*
X108815500Y-98298000D01*
X106313000Y-96520000D02*
X108091000Y-98298000D01*
D21*
X104394000Y-96419500D02*
X101245500Y-96419500D01*
X97695001Y-95344999D02*
X96520000Y-96520000D01*
X100170999Y-95344999D02*
X97695001Y-95344999D01*
X101245500Y-96419500D02*
X100170999Y-95344999D01*
D20*
%TO.N,TCK*%
X96520000Y-83462500D02*
X95607500Y-82550000D01*
X96520000Y-86360000D02*
X96520000Y-83462500D01*
X95607500Y-82550000D02*
X96623500Y-81534000D01*
X101487000Y-81534000D02*
X103011000Y-80010000D01*
X104547500Y-82042000D02*
X102870000Y-82042000D01*
X102362000Y-81534000D02*
X101092000Y-81534000D01*
X102870000Y-82042000D02*
X102362000Y-81534000D01*
X101092000Y-81534000D02*
X101487000Y-81534000D01*
X96623500Y-81534000D02*
X101092000Y-81534000D01*
%TO.N,TMS*%
X106212500Y-91085500D02*
X106313000Y-91186000D01*
X104394000Y-91085500D02*
X106212500Y-91085500D01*
X108091000Y-92964000D02*
X108815500Y-92964000D01*
X106313000Y-91186000D02*
X108091000Y-92964000D01*
D21*
X104394000Y-91085500D02*
X100991500Y-91085500D01*
X97695001Y-90264999D02*
X96520000Y-91440000D01*
X100170999Y-90264999D02*
X97695001Y-90264999D01*
X100991500Y-91085500D02*
X100170999Y-90264999D01*
%TO.N,JEN*%
X99060000Y-93980000D02*
X101854000Y-93980000D01*
X102616000Y-94742000D02*
X106275500Y-94742000D01*
X101854000Y-93980000D02*
X102616000Y-94742000D01*
X107075510Y-95542010D02*
X106275500Y-94742000D01*
X116370010Y-95542010D02*
X107075510Y-95542010D01*
X118364000Y-97536000D02*
X116370010Y-95542010D01*
D20*
X127519999Y-97778001D02*
X127762000Y-97536000D01*
X126090001Y-97778001D02*
X127519999Y-97778001D01*
X125848000Y-97536000D02*
X126090001Y-97778001D01*
X118364000Y-97536000D02*
X125848000Y-97536000D01*
%TO.N,Net-(R6-Pad2)*%
X147828000Y-87272500D02*
X148590000Y-86510500D01*
X147828000Y-91186000D02*
X147828000Y-87272500D01*
%TO.N,Net-(R7-Pad2)*%
X146812000Y-91186000D02*
X146812000Y-86510500D01*
%TO.N,Net-(R8-Pad2)*%
X142748000Y-88288500D02*
X140970000Y-86510500D01*
X142748000Y-90932000D02*
X142748000Y-88288500D01*
%TO.N,Net-(R9-Pad2)*%
X138938000Y-86764500D02*
X139192000Y-86510500D01*
X138938000Y-87884000D02*
X138938000Y-86764500D01*
%TO.N,Net-(R10-Pad2)*%
X137171999Y-86752501D02*
X137414000Y-86510500D01*
X137171999Y-89165999D02*
X137171999Y-86752501D01*
X138938000Y-90932000D02*
X138938000Y-91186000D01*
X137171999Y-89165999D02*
X138938000Y-90932000D01*
%TO.N,Net-(R11-Pad2)*%
X135636000Y-86510500D02*
X135636000Y-86360000D01*
D21*
X134835990Y-85710490D02*
X135636000Y-86510500D01*
X134835990Y-84202500D02*
X134835990Y-85710490D01*
X135472490Y-83566000D02*
X134835990Y-84202500D01*
X136398000Y-83566000D02*
X135472490Y-83566000D01*
D20*
%TO.N,Net-(R12-Pad2)*%
X143510000Y-87272500D02*
X142748000Y-86510500D01*
X143510000Y-87272500D02*
X144272000Y-86510500D01*
X143510000Y-87884000D02*
X143510000Y-87272500D01*
%TD*%
M02*
